<svg width="57" height="83" viewBox="0 0 57 83" fill="none" xmlns="http://www.w3.org/2000/svg">
<g filter="url(#filter0_di_83_363)">
<path d="M23.8618 79C19.9198 79 16.2852 77.9955 12.958 75.9864C9.66701 73.9773 7.00887 71.3045 4.98362 67.968C2.99454 64.5956 2 60.9003 2 56.8821L2.1085 21.9564C2.1085 17.9024 3.10304 14.243 5.09212 10.9782C7.04504 7.71344 9.66701 5.07652 12.958 3.06744C16.2491 1.02248 19.8475 0 23.7533 0H30.8598C35.0911 0 38.8523 1.02248 42.1433 3.06744C45.4343 5.14827 48.0201 7.87489 49.9007 11.2473C51.8175 14.6197 52.7397 18.297 52.6673 22.2793L52.5589 38.2623C52.5589 42.1728 51.9983 45.6887 50.8772 48.8099C49.7561 51.9671 47.9659 54.4784 45.5067 56.344C43.0836 58.1737 39.8106 59.0886 35.6878 59.0886C30.697 59.0886 26.9178 57.1333 24.35 53.2227C21.8185 49.2763 20.5527 44.2895 20.5527 38.2623V23.7861C20.5527 23.5708 20.6974 23.4632 20.9867 23.4632H32.9754C33.2286 23.4632 33.3552 23.5708 33.3552 23.7861V38.5851C33.3552 41.6705 33.5541 43.9128 33.9519 45.312C34.3135 46.6394 35.0368 47.3031 36.1218 47.3031C37.3876 47.3031 38.1832 46.6932 38.5087 45.4734C38.8342 44.2178 38.9969 41.9217 38.9969 38.5851L39.1054 21.9564C39.1054 19.5168 38.3279 17.4539 36.7728 15.7677C35.2177 14.0815 33.2467 13.2384 30.8598 13.2384H23.7533C21.4749 13.3102 19.5401 14.1712 17.9488 15.8215C16.3576 17.4718 15.5619 19.5168 15.5619 21.9564V56.8821C15.5619 59.2859 16.3756 61.0976 18.0031 62.3174C19.6305 63.5372 21.5834 64.1471 23.8618 64.1471C28.1655 64.1471 33.0658 64.0933 38.5629 63.9857C44.0962 63.8781 49.3944 63.609 54.4575 63.1785C54.8192 63.1785 55 63.3579 55 63.7166V77.3856C55 77.7084 54.8192 77.8878 54.4575 77.9237C53.5534 77.9955 51.8898 78.0851 49.4667 78.1928C47.0437 78.3363 44.6387 78.4618 42.2518 78.5695C39.2501 78.713 36.1399 78.8206 32.9212 78.8924C29.7025 78.9641 26.6827 79 23.8618 79Z" fill="#FF9092"/>
</g>
<defs>
<filter id="filter0_di_83_363" x="0" y="0" width="57" height="84" filterUnits="userSpaceOnUse" color-interpolation-filters="sRGB">
<feFlood flood-opacity="0" result="BackgroundImageFix"/>
<feColorMatrix in="SourceAlpha" type="matrix" values="0 0 0 0 0 0 0 0 0 0 0 0 0 0 0 0 0 0 127 0" result="hardAlpha"/>
<feOffset dy="2"/>
<feGaussianBlur stdDeviation="1"/>
<feComposite in2="hardAlpha" operator="out"/>
<feColorMatrix type="matrix" values="0 0 0 0 0 0 0 0 0 0 0 0 0 0 0 0 0 0 0.25 0"/>
<feBlend mode="normal" in2="BackgroundImageFix" result="effect1_dropShadow_83_363"/>
<feBlend mode="normal" in="SourceGraphic" in2="effect1_dropShadow_83_363" result="shape"/>
<feColorMatrix in="SourceAlpha" type="matrix" values="0 0 0 0 0 0 0 0 0 0 0 0 0 0 0 0 0 0 127 0" result="hardAlpha"/>
<feOffset dy="5"/>
<feGaussianBlur stdDeviation="2.5"/>
<feComposite in2="hardAlpha" operator="arithmetic" k2="-1" k3="1"/>
<feColorMatrix type="matrix" values="0 0 0 0 1 0 0 0 0 1 0 0 0 0 1 0 0 0 0.35 0"/>
<feBlend mode="normal" in2="shape" result="effect2_innerShadow_83_363"/>
</filter>
</defs>
</svg>
