<svg width="52" height="96" viewBox="0 0 52 96" fill="none" xmlns="http://www.w3.org/2000/svg">
<g filter="url(#filter0_i_83_13)">
<path fill-rule="evenodd" clip-rule="evenodd" d="M3.97263 3.97264C-1.32421 9.26948 -1.32421 17.8574 3.97263 23.1542L6.47862 25.6602C6.4832 25.6648 6.4832 25.6722 6.47862 25.6768C6.47403 25.6814 6.47403 25.6888 6.47862 25.6934L23.0129 42.2277C23.0463 42.2611 23.0801 42.2936 23.1144 42.3255V73.8994H14.4258C13.0451 73.8994 11.9258 75.0187 11.9258 76.3994C11.9258 77.7801 13.0451 78.8994 14.4258 78.8994H23.1144V83.2236H8.83142C7.45071 83.2236 6.33142 84.3429 6.33142 85.7236C6.33142 87.1043 7.45071 88.2236 8.83142 88.2236H23.1144V93.183C23.1144 94.5637 24.2337 95.683 25.6144 95.683C26.9951 95.683 28.1144 94.5637 28.1144 93.183V76.4082L28.1144 76.3994L28.1144 76.3906V42.3933C28.1745 42.3404 28.2334 42.2852 28.2909 42.2277L47.3085 23.2101C52.6054 17.9132 52.6054 9.32533 47.3085 4.02848C42.0117 -1.26836 33.4238 -1.26836 28.1269 4.02848C26.7692 5.38624 24.5678 5.38624 23.2101 4.02848L23.1542 3.97263C17.8574 -1.32421 9.26948 -1.32421 3.97263 3.97264ZM10.9164 9.73461C7.38229 13.2687 7.38229 18.9986 10.9164 22.5327L12.5884 24.2047C12.5914 24.2078 12.5914 24.2127 12.5884 24.2158C12.5853 24.2188 12.5853 24.2238 12.5884 24.2268L23.6202 35.2586C24.5926 36.2311 26.1692 36.2311 27.1417 35.2586L39.8304 22.5699C43.3645 19.0359 43.3645 13.306 39.8304 9.77188C36.2963 6.23779 30.5664 6.23778 27.0323 9.77187C26.1264 10.6778 24.6576 10.6778 23.7517 9.77187L23.7145 9.73461C20.1804 6.20052 14.4505 6.20052 10.9164 9.73461Z" fill="#FF0206"/>
</g>
<defs>
<filter id="filter0_i_83_13" x="0" y="0" width="51.2811" height="100.683" filterUnits="userSpaceOnUse" color-interpolation-filters="sRGB">
<feFlood flood-opacity="0" result="BackgroundImageFix"/>
<feBlend mode="normal" in="SourceGraphic" in2="BackgroundImageFix" result="shape"/>
<feColorMatrix in="SourceAlpha" type="matrix" values="0 0 0 0 0 0 0 0 0 0 0 0 0 0 0 0 0 0 127 0" result="hardAlpha"/>
<feOffset dy="5"/>
<feGaussianBlur stdDeviation="2.5"/>
<feComposite in2="hardAlpha" operator="arithmetic" k2="-1" k3="1"/>
<feColorMatrix type="matrix" values="0 0 0 0 1 0 0 0 0 1 0 0 0 0 1 0 0 0 0.35 0"/>
<feBlend mode="normal" in2="shape" result="effect1_innerShadow_83_13"/>
</filter>
</defs>
</svg>
