<svg width="49" height="83" viewBox="0 0 49 83" fill="none" xmlns="http://www.w3.org/2000/svg">
<g filter="url(#filter0_di_83_303)">
<path d="M23.0745 78.8893L2.55901 79C2.18634 79 2 78.8155 2 78.4464L2.2236 0.562138C2.2236 0.266912 2.37267 0.119299 2.67081 0.119299L24.0807 0.00858955C28.3292 -0.10212 32.1677 0.857364 35.5963 2.88704C39.0621 4.91672 41.8199 7.66601 43.8696 11.1349C45.9565 14.5669 47 18.368 47 22.538V55.0867C47 59.4413 45.9379 63.4268 43.8137 67.0434C41.6522 70.623 38.7826 73.483 35.205 75.6234C31.6273 77.7268 27.5839 78.8155 23.0745 78.8893ZM24.0807 13.5705L16.087 13.6812L15.9752 65.0506H23.0745C25.9068 65.0506 28.2919 64.0726 30.2298 62.1168C32.1677 60.1609 33.1366 57.8175 33.1366 55.0867V22.4273C33.1366 20.0286 32.2422 17.9436 30.4534 16.1722C28.6646 14.364 26.5404 13.4967 24.0807 13.5705Z" fill="#FF8E90"/>
</g>
<defs>
<filter id="filter0_di_83_303" x="0" y="0" width="49" height="84" filterUnits="userSpaceOnUse" color-interpolation-filters="sRGB">
<feFlood flood-opacity="0" result="BackgroundImageFix"/>
<feColorMatrix in="SourceAlpha" type="matrix" values="0 0 0 0 0 0 0 0 0 0 0 0 0 0 0 0 0 0 127 0" result="hardAlpha"/>
<feOffset dy="2"/>
<feGaussianBlur stdDeviation="1"/>
<feComposite in2="hardAlpha" operator="out"/>
<feColorMatrix type="matrix" values="0 0 0 0 0 0 0 0 0 0 0 0 0 0 0 0 0 0 0.25 0"/>
<feBlend mode="normal" in2="BackgroundImageFix" result="effect1_dropShadow_83_303"/>
<feBlend mode="normal" in="SourceGraphic" in2="effect1_dropShadow_83_303" result="shape"/>
<feColorMatrix in="SourceAlpha" type="matrix" values="0 0 0 0 0 0 0 0 0 0 0 0 0 0 0 0 0 0 127 0" result="hardAlpha"/>
<feOffset dy="5"/>
<feGaussianBlur stdDeviation="2.5"/>
<feComposite in2="hardAlpha" operator="arithmetic" k2="-1" k3="1"/>
<feColorMatrix type="matrix" values="0 0 0 0 1 0 0 0 0 1 0 0 0 0 1 0 0 0 0.35 0"/>
<feBlend mode="normal" in2="shape" result="effect2_innerShadow_83_303"/>
</filter>
</defs>
</svg>
