<svg width="42" height="83" viewBox="0 0 42 83" fill="none" xmlns="http://www.w3.org/2000/svg">
<g filter="url(#filter0_di_83_62)">
<path d="M39.5516 79H2.44838C2.14946 79 2 78.8152 2 78.4456L2.11209 0.443509C2.11209 0.147836 2.26155 0 2.56047 0H39.4395C39.7384 0 39.8879 0.184795 39.8879 0.554386V13.2498C39.8879 13.5455 39.7384 13.6933 39.4395 13.6933H15.8997V31.4337H39.4395C39.7384 31.4337 39.8879 31.5815 39.8879 31.8772L40 44.7389C40 45.0346 39.8505 45.1825 39.5516 45.1825H15.8997V65.0295H39.5516C39.8505 65.0295 40 65.2143 40 65.5839V78.5565C40 78.8522 39.8505 79 39.5516 79Z" fill="#FF8E90"/>
</g>
<defs>
<filter id="filter0_di_83_62" x="0" y="0" width="42" height="84" filterUnits="userSpaceOnUse" color-interpolation-filters="sRGB">
<feFlood flood-opacity="0" result="BackgroundImageFix"/>
<feColorMatrix in="SourceAlpha" type="matrix" values="0 0 0 0 0 0 0 0 0 0 0 0 0 0 0 0 0 0 127 0" result="hardAlpha"/>
<feOffset dy="2"/>
<feGaussianBlur stdDeviation="1"/>
<feComposite in2="hardAlpha" operator="out"/>
<feColorMatrix type="matrix" values="0 0 0 0 0 0 0 0 0 0 0 0 0 0 0 0 0 0 0.25 0"/>
<feBlend mode="normal" in2="BackgroundImageFix" result="effect1_dropShadow_83_62"/>
<feBlend mode="normal" in="SourceGraphic" in2="effect1_dropShadow_83_62" result="shape"/>
<feColorMatrix in="SourceAlpha" type="matrix" values="0 0 0 0 0 0 0 0 0 0 0 0 0 0 0 0 0 0 127 0" result="hardAlpha"/>
<feOffset dy="5"/>
<feGaussianBlur stdDeviation="2.5"/>
<feComposite in2="hardAlpha" operator="arithmetic" k2="-1" k3="1"/>
<feColorMatrix type="matrix" values="0 0 0 0 1 0 0 0 0 1 0 0 0 0 1 0 0 0 0.35 0"/>
<feBlend mode="normal" in2="shape" result="effect2_innerShadow_83_62"/>
</filter>
</defs>
</svg>
