<svg width="780" height="83" viewBox="0 0 780 83" fill="none" xmlns="http://www.w3.org/2000/svg">
<g filter="url(#filter0_di_98_3)">
<path d="M762.123 77.9066H749.275C749.02 77.9066 748.892 77.7608 748.892 77.4692L749.002 45.6505L734.022 0.43737C733.949 0.14579 734.058 0 734.35 0H746.815C747.179 0 747.398 0.14579 747.471 0.43737L755.726 30.5612L764.146 0.43737C764.219 0.14579 764.401 0 764.692 0H777.267C777.558 0 777.668 0.14579 777.595 0.43737L762.451 45.2132L762.56 77.4692C762.56 77.7608 762.414 77.9066 762.123 77.9066Z" fill="#FF8E90"/>
</g>
<g filter="url(#filter1_di_98_3)">
<path d="M641.121 77.9066H628.437C628.146 77.9066 628 77.7243 628 77.3599L628.219 0.43737C628.219 0.14579 628.364 0 628.656 0H651.29C655.336 0 659.053 0.984083 662.443 2.95225C665.833 4.92042 668.53 7.56286 670.534 10.8796C672.575 14.1963 673.596 17.9504 673.596 22.1419C673.596 24.8754 673.177 27.3539 672.338 29.5772C671.5 31.8005 670.516 33.6775 669.386 35.2083C668.293 36.7391 667.29 37.869 666.379 38.5979C670.425 43.081 672.448 48.3476 672.448 54.3979L672.557 77.3599C672.557 77.7243 672.375 77.9066 672.01 77.9066H659.327C659.035 77.9066 658.889 77.7972 658.889 77.5786V54.3979C658.889 51.7008 657.942 49.3682 656.046 47.4C654.151 45.4318 651.818 44.4478 649.048 44.4478H641.668L641.558 77.3599C641.558 77.7243 641.413 77.9066 641.121 77.9066ZM651.29 13.3945H641.668V30.9986H651.29C653.586 30.9986 655.627 30.1421 657.413 28.4291C659.236 26.716 660.147 24.6203 660.147 22.1419C660.147 19.7728 659.272 17.7317 657.522 16.0187C655.773 14.2692 653.696 13.3945 651.29 13.3945Z" fill="#FF8E90"/>
</g>
<g filter="url(#filter2_di_98_3)">
<path d="M524 77.3599L537.887 0.43737C537.959 0.14579 538.142 0 538.433 0H554.671C554.962 0 555.144 0.14579 555.217 0.43737L568.557 77.3599C568.594 77.7243 568.448 77.9066 568.12 77.9066H555.709C555.345 77.9066 555.144 77.7243 555.108 77.3599L553.905 69.1592H538.652L537.449 77.3599C537.413 77.7243 537.23 77.9066 536.902 77.9066H524.437C524.146 77.9066 524 77.7243 524 77.3599ZM547.071 25.7502L546.415 21.5952L545.923 25.7502L540.893 57.1862H551.664L547.071 25.7502Z" fill="#FF8E90"/>
</g>
<g filter="url(#filter3_di_98_3)">
<path d="M440.923 79C436.987 79 433.342 77.9795 429.989 75.9384C426.636 73.8973 423.957 71.1638 421.952 67.7377C419.984 64.2752 419 60.5029 419 56.4208L419.219 0.43737C419.219 0.14579 419.364 0 419.656 0H432.23C432.522 0 432.668 0.14579 432.668 0.43737V56.4208C432.668 58.9356 433.47 61.086 435.073 62.872C436.677 64.6215 438.627 65.4962 440.923 65.4962C443.329 65.4962 445.333 64.6215 446.937 62.872C448.541 61.086 449.343 58.9356 449.343 56.4208V0.43737C449.343 0.14579 449.488 0 449.78 0H462.354C462.646 0 462.792 0.14579 462.792 0.43737L463.01 56.4208C463.01 60.5393 462.026 64.3299 460.058 67.7924C458.054 71.2185 455.393 73.952 452.076 75.9931C448.759 77.9977 445.042 79 440.923 79Z" fill="#FF8E90"/>
</g>
<g filter="url(#filter4_di_98_3)">
<path d="M326.121 77.9066H313.437C313.146 77.9066 313 77.7243 313 77.3599L313.219 0.43737C313.219 0.14579 313.364 0 313.656 0H336.29C340.336 0 344.053 0.984083 347.443 2.95225C350.833 4.92042 353.53 7.56286 355.534 10.8796C357.575 14.1963 358.596 17.9504 358.596 22.1419C358.596 24.8754 358.177 27.3539 357.338 29.5772C356.5 31.8005 355.516 33.6775 354.386 35.2083C353.293 36.7391 352.29 37.869 351.379 38.5979C355.425 43.081 357.448 48.3476 357.448 54.3979L357.557 77.3599C357.557 77.7243 357.375 77.9066 357.01 77.9066H344.327C344.035 77.9066 343.889 77.7972 343.889 77.5786V54.3979C343.889 51.7008 342.942 49.3682 341.046 47.4C339.151 45.4318 336.818 44.4478 334.048 44.4478H326.668L326.558 77.3599C326.558 77.7243 326.413 77.9066 326.121 77.9066ZM336.29 13.3945H326.668V30.9986H336.29C338.586 30.9986 340.627 30.1421 342.413 28.4291C344.236 26.716 345.147 24.6203 345.147 22.1419C345.147 19.7728 344.272 17.7317 342.522 16.0187C340.773 14.2692 338.696 13.3945 336.29 13.3945Z" fill="#FF8E90"/>
</g>
<g filter="url(#filter5_di_98_3)">
<path d="M229.502 77.9066H209.437C209.146 77.9066 209 77.7243 209 77.3599L209.219 0.43737C209.219 0.14579 209.364 0 209.656 0H231.197C235.388 0 239.197 1.02053 242.623 3.06159C245.976 5.10265 248.618 7.81799 250.55 11.2076C252.482 14.5608 253.448 18.2055 253.448 22.1419C253.448 25.3493 252.719 28.3379 251.261 31.108C249.803 33.878 248.072 36.1195 246.067 37.8325C248.218 39.9829 249.894 42.4796 251.097 45.3225C252.3 48.1654 252.901 51.1541 252.901 54.2886C252.901 58.6258 251.862 62.5804 249.785 66.1523C247.671 69.7241 244.846 72.5852 241.311 74.7356C237.775 76.8496 233.839 77.9066 229.502 77.9066ZM231.197 13.2851H222.668V30.8893H231.197C233.784 30.8893 235.88 29.9781 237.484 28.1557C239.087 26.2969 239.889 24.2923 239.889 22.1419C239.889 19.7728 239.033 17.7135 237.32 15.964C235.607 14.1781 233.566 13.2851 231.197 13.2851ZM229.502 44.4478H222.668L222.558 64.2388H229.502C232.199 64.2388 234.513 63.2547 236.445 61.2865C238.377 59.3183 239.343 56.9857 239.343 54.2886C239.343 51.5915 238.377 49.2771 236.445 47.3453C234.513 45.4136 232.199 44.4478 229.502 44.4478Z" fill="#FF8E90"/>
</g>
<g filter="url(#filter6_di_98_3)">
<path d="M143.63 77.9066H107.437C107.146 77.9066 107 77.7243 107 77.3599L107.109 0.43737C107.109 0.14579 107.255 0 107.547 0H143.52C143.812 0 143.958 0.182238 143.958 0.546713V13.0664C143.958 13.358 143.812 13.5038 143.52 13.5038H120.558V30.9986H143.52C143.812 30.9986 143.958 31.1444 143.958 31.436L144.067 44.1197C144.067 44.4113 143.921 44.5571 143.63 44.5571H120.558V64.1294H143.63C143.921 64.1294 144.067 64.3117 144.067 64.6761V77.4692C144.067 77.7608 143.921 77.9066 143.63 77.9066Z" fill="#FF8E90"/>
</g>
<g filter="url(#filter7_di_98_3)">
<path d="M15.1211 77.9066H2.54671C2.18224 77.9066 2 77.7243 2 77.3599L2.21869 0.43737C2.21869 0.14579 2.36448 0 2.65606 0H38.5204C38.8849 0 39.0671 0.14579 39.0671 0.43737V13.0664C39.0671 13.358 38.9213 13.5038 38.6298 13.5038H15.6678V30.8893H38.6298C38.9213 30.8893 39.0671 31.0715 39.0671 31.436L39.1765 44.1197C39.1765 44.4113 38.9942 44.5571 38.6298 44.5571H15.6678V77.3599C15.6678 77.7243 15.4856 77.9066 15.1211 77.9066Z" fill="#FF8E90"/>
</g>
<defs>
<filter id="filter0_di_98_3" x="732" y="0" width="47.6168" height="82.9067" filterUnits="userSpaceOnUse" color-interpolation-filters="sRGB">
<feFlood flood-opacity="0" result="BackgroundImageFix"/>
<feColorMatrix in="SourceAlpha" type="matrix" values="0 0 0 0 0 0 0 0 0 0 0 0 0 0 0 0 0 0 127 0" result="hardAlpha"/>
<feOffset dy="2"/>
<feGaussianBlur stdDeviation="1"/>
<feComposite in2="hardAlpha" operator="out"/>
<feColorMatrix type="matrix" values="0 0 0 0 0 0 0 0 0 0 0 0 0 0 0 0 0 0 0.25 0"/>
<feBlend mode="normal" in2="BackgroundImageFix" result="effect1_dropShadow_98_3"/>
<feBlend mode="normal" in="SourceGraphic" in2="effect1_dropShadow_98_3" result="shape"/>
<feColorMatrix in="SourceAlpha" type="matrix" values="0 0 0 0 0 0 0 0 0 0 0 0 0 0 0 0 0 0 127 0" result="hardAlpha"/>
<feOffset dy="5"/>
<feGaussianBlur stdDeviation="2.5"/>
<feComposite in2="hardAlpha" operator="arithmetic" k2="-1" k3="1"/>
<feColorMatrix type="matrix" values="0 0 0 0 1 0 0 0 0 1 0 0 0 0 1 0 0 0 0.35 0"/>
<feBlend mode="normal" in2="shape" result="effect2_innerShadow_98_3"/>
</filter>
<filter id="filter1_di_98_3" x="626" y="0" width="49.5958" height="82.9067" filterUnits="userSpaceOnUse" color-interpolation-filters="sRGB">
<feFlood flood-opacity="0" result="BackgroundImageFix"/>
<feColorMatrix in="SourceAlpha" type="matrix" values="0 0 0 0 0 0 0 0 0 0 0 0 0 0 0 0 0 0 127 0" result="hardAlpha"/>
<feOffset dy="2"/>
<feGaussianBlur stdDeviation="1"/>
<feComposite in2="hardAlpha" operator="out"/>
<feColorMatrix type="matrix" values="0 0 0 0 0 0 0 0 0 0 0 0 0 0 0 0 0 0 0.25 0"/>
<feBlend mode="normal" in2="BackgroundImageFix" result="effect1_dropShadow_98_3"/>
<feBlend mode="normal" in="SourceGraphic" in2="effect1_dropShadow_98_3" result="shape"/>
<feColorMatrix in="SourceAlpha" type="matrix" values="0 0 0 0 0 0 0 0 0 0 0 0 0 0 0 0 0 0 127 0" result="hardAlpha"/>
<feOffset dy="5"/>
<feGaussianBlur stdDeviation="2.5"/>
<feComposite in2="hardAlpha" operator="arithmetic" k2="-1" k3="1"/>
<feColorMatrix type="matrix" values="0 0 0 0 1 0 0 0 0 1 0 0 0 0 1 0 0 0 0.35 0"/>
<feBlend mode="normal" in2="shape" result="effect2_innerShadow_98_3"/>
</filter>
<filter id="filter2_di_98_3" x="522" y="0" width="48.5626" height="82.9067" filterUnits="userSpaceOnUse" color-interpolation-filters="sRGB">
<feFlood flood-opacity="0" result="BackgroundImageFix"/>
<feColorMatrix in="SourceAlpha" type="matrix" values="0 0 0 0 0 0 0 0 0 0 0 0 0 0 0 0 0 0 127 0" result="hardAlpha"/>
<feOffset dy="2"/>
<feGaussianBlur stdDeviation="1"/>
<feComposite in2="hardAlpha" operator="out"/>
<feColorMatrix type="matrix" values="0 0 0 0 0 0 0 0 0 0 0 0 0 0 0 0 0 0 0.25 0"/>
<feBlend mode="normal" in2="BackgroundImageFix" result="effect1_dropShadow_98_3"/>
<feBlend mode="normal" in="SourceGraphic" in2="effect1_dropShadow_98_3" result="shape"/>
<feColorMatrix in="SourceAlpha" type="matrix" values="0 0 0 0 0 0 0 0 0 0 0 0 0 0 0 0 0 0 127 0" result="hardAlpha"/>
<feOffset dy="5"/>
<feGaussianBlur stdDeviation="2.5"/>
<feComposite in2="hardAlpha" operator="arithmetic" k2="-1" k3="1"/>
<feColorMatrix type="matrix" values="0 0 0 0 1 0 0 0 0 1 0 0 0 0 1 0 0 0 0.35 0"/>
<feBlend mode="normal" in2="shape" result="effect2_innerShadow_98_3"/>
</filter>
<filter id="filter3_di_98_3" x="417" y="0" width="48.0104" height="84" filterUnits="userSpaceOnUse" color-interpolation-filters="sRGB">
<feFlood flood-opacity="0" result="BackgroundImageFix"/>
<feColorMatrix in="SourceAlpha" type="matrix" values="0 0 0 0 0 0 0 0 0 0 0 0 0 0 0 0 0 0 127 0" result="hardAlpha"/>
<feOffset dy="2"/>
<feGaussianBlur stdDeviation="1"/>
<feComposite in2="hardAlpha" operator="out"/>
<feColorMatrix type="matrix" values="0 0 0 0 0 0 0 0 0 0 0 0 0 0 0 0 0 0 0.25 0"/>
<feBlend mode="normal" in2="BackgroundImageFix" result="effect1_dropShadow_98_3"/>
<feBlend mode="normal" in="SourceGraphic" in2="effect1_dropShadow_98_3" result="shape"/>
<feColorMatrix in="SourceAlpha" type="matrix" values="0 0 0 0 0 0 0 0 0 0 0 0 0 0 0 0 0 0 127 0" result="hardAlpha"/>
<feOffset dy="5"/>
<feGaussianBlur stdDeviation="2.5"/>
<feComposite in2="hardAlpha" operator="arithmetic" k2="-1" k3="1"/>
<feColorMatrix type="matrix" values="0 0 0 0 1 0 0 0 0 1 0 0 0 0 1 0 0 0 0.35 0"/>
<feBlend mode="normal" in2="shape" result="effect2_innerShadow_98_3"/>
</filter>
<filter id="filter4_di_98_3" x="311" y="0" width="49.5958" height="82.9067" filterUnits="userSpaceOnUse" color-interpolation-filters="sRGB">
<feFlood flood-opacity="0" result="BackgroundImageFix"/>
<feColorMatrix in="SourceAlpha" type="matrix" values="0 0 0 0 0 0 0 0 0 0 0 0 0 0 0 0 0 0 127 0" result="hardAlpha"/>
<feOffset dy="2"/>
<feGaussianBlur stdDeviation="1"/>
<feComposite in2="hardAlpha" operator="out"/>
<feColorMatrix type="matrix" values="0 0 0 0 0 0 0 0 0 0 0 0 0 0 0 0 0 0 0.25 0"/>
<feBlend mode="normal" in2="BackgroundImageFix" result="effect1_dropShadow_98_3"/>
<feBlend mode="normal" in="SourceGraphic" in2="effect1_dropShadow_98_3" result="shape"/>
<feColorMatrix in="SourceAlpha" type="matrix" values="0 0 0 0 0 0 0 0 0 0 0 0 0 0 0 0 0 0 127 0" result="hardAlpha"/>
<feOffset dy="5"/>
<feGaussianBlur stdDeviation="2.5"/>
<feComposite in2="hardAlpha" operator="arithmetic" k2="-1" k3="1"/>
<feColorMatrix type="matrix" values="0 0 0 0 1 0 0 0 0 1 0 0 0 0 1 0 0 0 0.35 0"/>
<feBlend mode="normal" in2="shape" result="effect2_innerShadow_98_3"/>
</filter>
<filter id="filter5_di_98_3" x="207" y="0" width="48.4478" height="82.9067" filterUnits="userSpaceOnUse" color-interpolation-filters="sRGB">
<feFlood flood-opacity="0" result="BackgroundImageFix"/>
<feColorMatrix in="SourceAlpha" type="matrix" values="0 0 0 0 0 0 0 0 0 0 0 0 0 0 0 0 0 0 127 0" result="hardAlpha"/>
<feOffset dy="2"/>
<feGaussianBlur stdDeviation="1"/>
<feComposite in2="hardAlpha" operator="out"/>
<feColorMatrix type="matrix" values="0 0 0 0 0 0 0 0 0 0 0 0 0 0 0 0 0 0 0.25 0"/>
<feBlend mode="normal" in2="BackgroundImageFix" result="effect1_dropShadow_98_3"/>
<feBlend mode="normal" in="SourceGraphic" in2="effect1_dropShadow_98_3" result="shape"/>
<feColorMatrix in="SourceAlpha" type="matrix" values="0 0 0 0 0 0 0 0 0 0 0 0 0 0 0 0 0 0 127 0" result="hardAlpha"/>
<feOffset dy="5"/>
<feGaussianBlur stdDeviation="2.5"/>
<feComposite in2="hardAlpha" operator="arithmetic" k2="-1" k3="1"/>
<feColorMatrix type="matrix" values="0 0 0 0 1 0 0 0 0 1 0 0 0 0 1 0 0 0 0.35 0"/>
<feBlend mode="normal" in2="shape" result="effect2_innerShadow_98_3"/>
</filter>
<filter id="filter6_di_98_3" x="105" y="0" width="41.0671" height="82.9067" filterUnits="userSpaceOnUse" color-interpolation-filters="sRGB">
<feFlood flood-opacity="0" result="BackgroundImageFix"/>
<feColorMatrix in="SourceAlpha" type="matrix" values="0 0 0 0 0 0 0 0 0 0 0 0 0 0 0 0 0 0 127 0" result="hardAlpha"/>
<feOffset dy="2"/>
<feGaussianBlur stdDeviation="1"/>
<feComposite in2="hardAlpha" operator="out"/>
<feColorMatrix type="matrix" values="0 0 0 0 0 0 0 0 0 0 0 0 0 0 0 0 0 0 0.25 0"/>
<feBlend mode="normal" in2="BackgroundImageFix" result="effect1_dropShadow_98_3"/>
<feBlend mode="normal" in="SourceGraphic" in2="effect1_dropShadow_98_3" result="shape"/>
<feColorMatrix in="SourceAlpha" type="matrix" values="0 0 0 0 0 0 0 0 0 0 0 0 0 0 0 0 0 0 127 0" result="hardAlpha"/>
<feOffset dy="5"/>
<feGaussianBlur stdDeviation="2.5"/>
<feComposite in2="hardAlpha" operator="arithmetic" k2="-1" k3="1"/>
<feColorMatrix type="matrix" values="0 0 0 0 1 0 0 0 0 1 0 0 0 0 1 0 0 0 0.35 0"/>
<feBlend mode="normal" in2="shape" result="effect2_innerShadow_98_3"/>
</filter>
<filter id="filter7_di_98_3" x="0" y="0" width="41.1765" height="82.9067" filterUnits="userSpaceOnUse" color-interpolation-filters="sRGB">
<feFlood flood-opacity="0" result="BackgroundImageFix"/>
<feColorMatrix in="SourceAlpha" type="matrix" values="0 0 0 0 0 0 0 0 0 0 0 0 0 0 0 0 0 0 127 0" result="hardAlpha"/>
<feOffset dy="2"/>
<feGaussianBlur stdDeviation="1"/>
<feComposite in2="hardAlpha" operator="out"/>
<feColorMatrix type="matrix" values="0 0 0 0 0 0 0 0 0 0 0 0 0 0 0 0 0 0 0.25 0"/>
<feBlend mode="normal" in2="BackgroundImageFix" result="effect1_dropShadow_98_3"/>
<feBlend mode="normal" in="SourceGraphic" in2="effect1_dropShadow_98_3" result="shape"/>
<feColorMatrix in="SourceAlpha" type="matrix" values="0 0 0 0 0 0 0 0 0 0 0 0 0 0 0 0 0 0 127 0" result="hardAlpha"/>
<feOffset dy="5"/>
<feGaussianBlur stdDeviation="2.5"/>
<feComposite in2="hardAlpha" operator="arithmetic" k2="-1" k3="1"/>
<feColorMatrix type="matrix" values="0 0 0 0 1 0 0 0 0 1 0 0 0 0 1 0 0 0 0.35 0"/>
<feBlend mode="normal" in2="shape" result="effect2_innerShadow_98_3"/>
</filter>
</defs>
</svg>
