<svg width="47" height="83" viewBox="0 0 47 83" fill="none" xmlns="http://www.w3.org/2000/svg">
<g filter="url(#filter0_di_83_290)">
<path d="M23.4195 79C19.4469 79 15.8681 78.0134 12.6829 76.0402C9.46192 74.067 6.86725 71.4121 4.89888 68.0756C2.96629 64.7391 2 61.0079 2 56.8822V21.9564C2 17.9382 2.98419 14.2788 4.95256 10.9782C6.88514 7.64169 9.47982 4.98683 12.7366 3.01362C15.9933 1.00454 19.5543 0 23.4195 0C27.4636 0 31.114 0.968665 34.3708 2.90599C37.6275 4.8792 40.2043 7.51612 42.1011 10.8168C44.0337 14.1174 45 17.8306 45 21.9564V27.015C45 27.302 44.8211 27.4455 44.4632 27.4455H32.1161C31.8298 27.4455 31.6866 27.302 31.6866 27.015V22.8174C31.6866 20.0191 30.8993 17.705 29.3246 15.8753C27.7499 14.0456 25.7815 13.1308 23.4195 13.1308C21.3079 13.1308 19.429 14.0098 17.7828 15.7677C16.1365 17.5257 15.3134 19.5886 15.3134 21.9564V56.8822C15.3134 59.2859 16.1186 61.3667 17.7291 63.1247C19.3396 64.8467 21.2364 65.7078 23.4195 65.7078C25.7815 65.7078 27.7499 64.8647 29.3246 63.1785C30.8993 61.4564 31.6866 59.3576 31.6866 56.8822V51.4469H24.01C23.6163 51.4469 23.4195 51.2675 23.4195 50.9087V38.5851C23.4195 38.2264 23.6163 38.047 24.01 38.047H44.5705C44.8568 38.047 45 38.2264 45 38.5851V56.8822C45 61.0079 44.0337 64.7391 42.1011 68.0756C40.1328 71.4121 37.5381 74.067 34.3171 76.0402C31.0961 78.0134 27.4636 79 23.4195 79Z" fill="#FFE05E"/>
</g>
<defs>
<filter id="filter0_di_83_290" x="0" y="0" width="47" height="84" filterUnits="userSpaceOnUse" color-interpolation-filters="sRGB">
<feFlood flood-opacity="0" result="BackgroundImageFix"/>
<feColorMatrix in="SourceAlpha" type="matrix" values="0 0 0 0 0 0 0 0 0 0 0 0 0 0 0 0 0 0 127 0" result="hardAlpha"/>
<feOffset dy="2"/>
<feGaussianBlur stdDeviation="1"/>
<feComposite in2="hardAlpha" operator="out"/>
<feColorMatrix type="matrix" values="0 0 0 0 0 0 0 0 0 0 0 0 0 0 0 0 0 0 0.25 0"/>
<feBlend mode="normal" in2="BackgroundImageFix" result="effect1_dropShadow_83_290"/>
<feBlend mode="normal" in="SourceGraphic" in2="effect1_dropShadow_83_290" result="shape"/>
<feColorMatrix in="SourceAlpha" type="matrix" values="0 0 0 0 0 0 0 0 0 0 0 0 0 0 0 0 0 0 127 0" result="hardAlpha"/>
<feOffset dy="5"/>
<feGaussianBlur stdDeviation="2.5"/>
<feComposite in2="hardAlpha" operator="arithmetic" k2="-1" k3="1"/>
<feColorMatrix type="matrix" values="0 0 0 0 1 0 0 0 0 1 0 0 0 0 1 0 0 0 0.35 0"/>
<feBlend mode="normal" in2="shape" result="effect2_innerShadow_83_290"/>
</filter>
</defs>
</svg>
