<svg width="105" height="105" viewBox="0 0 105 105" fill="none" xmlns="http://www.w3.org/2000/svg">
<mask id="path-1-inside-1_83_146" fill="white">
<path fill-rule="evenodd" clip-rule="evenodd" d="M50.75 58.1473V105H54.75V58.8386L71.3809 83.5256C71.8438 84.2126 72.776 84.3944 73.463 83.9315C74.1501 83.4687 74.3319 82.5365 73.869 81.8494L55.276 54.25H105V50.25H59.4919C68.3221 43.9405 81.4931 30.2111 83.7654 27.1189C86.9278 22.8155 86.0029 16.7633 81.6995 13.601C77.3962 10.4386 71.344 11.3635 68.1816 15.6669C66.2555 18.2879 59.0877 30.453 54.75 40.2785V0H50.75V42.9575C46.6617 32.8057 38.2907 18.5324 36.1849 15.6669C33.0225 11.3635 26.9704 10.4386 22.667 13.601C18.3637 16.7633 17.4387 22.8155 20.6011 27.1189C22.8735 30.2111 36.0445 43.9405 44.8746 50.25H0V54.25H49.7583L31.131 81.9003C30.6681 82.5874 30.8499 83.5196 31.537 83.9824C32.224 84.4453 33.1562 84.2635 33.6191 83.5765L50.75 58.1473ZM54.75 49.1093V48.7592C56.3511 44.9637 66.0953 21.9642 68.4952 18.6984C71.1123 15.137 75.8378 14.1633 79.0498 16.5237C82.2618 18.8841 82.744 23.6846 80.1269 27.2461C77.6614 30.6011 57.1223 47.197 54.75 49.1093ZM49.5889 49.289C49.5889 49.289 38.2377 22.2598 35.6206 18.6984C33.0034 15.137 28.2779 14.1633 25.0659 16.5237C21.8539 18.8841 21.3717 23.6846 23.9889 27.2461C26.606 30.8075 49.5889 49.289 49.5889 49.289Z"/>
</mask>
<path fill-rule="evenodd" clip-rule="evenodd" d="M50.75 58.1473V105H54.75V58.8386L71.3809 83.5256C71.8438 84.2126 72.776 84.3944 73.463 83.9315C74.1501 83.4687 74.3319 82.5365 73.869 81.8494L55.276 54.25H105V50.25H59.4919C68.3221 43.9405 81.4931 30.2111 83.7654 27.1189C86.9278 22.8155 86.0029 16.7633 81.6995 13.601C77.3962 10.4386 71.344 11.3635 68.1816 15.6669C66.2555 18.2879 59.0877 30.453 54.75 40.2785V0H50.75V42.9575C46.6617 32.8057 38.2907 18.5324 36.1849 15.6669C33.0225 11.3635 26.9704 10.4386 22.667 13.601C18.3637 16.7633 17.4387 22.8155 20.6011 27.1189C22.8735 30.2111 36.0445 43.9405 44.8746 50.25H0V54.25H49.7583L31.131 81.9003C30.6681 82.5874 30.8499 83.5196 31.537 83.9824C32.224 84.4453 33.1562 84.2635 33.6191 83.5765L50.75 58.1473ZM54.75 49.1093V48.7592C56.3511 44.9637 66.0953 21.9642 68.4952 18.6984C71.1123 15.137 75.8378 14.1633 79.0498 16.5237C82.2618 18.8841 82.744 23.6846 80.1269 27.2461C77.6614 30.6011 57.1223 47.197 54.75 49.1093ZM49.5889 49.289C49.5889 49.289 38.2377 22.2598 35.6206 18.6984C33.0034 15.137 28.2779 14.1633 25.0659 16.5237C21.8539 18.8841 21.3717 23.6846 23.9889 27.2461C26.606 30.8075 49.5889 49.289 49.5889 49.289Z" fill="#FF77E6"/>
<path d="M50.75 105H49.75V106H50.75V105ZM50.75 58.1473H51.75V54.8731L49.9206 57.5886L50.75 58.1473ZM54.75 105V106H55.75V105H54.75ZM54.75 58.8386L55.5794 58.2799L53.75 55.5644V58.8386H54.75ZM71.3809 83.5256L70.5516 84.0843H70.5516L71.3809 83.5256ZM73.463 83.9315L74.0218 84.7609V84.7609L73.463 83.9315ZM73.869 81.8494L74.6984 81.2907L73.869 81.8494ZM55.276 54.25V53.25H53.3966L54.4467 54.8087L55.276 54.25ZM105 54.25V55.25H106V54.25H105ZM105 50.25H106V49.25H105V50.25ZM59.4919 50.25L58.9105 49.4364L56.3724 51.25H59.4919V50.25ZM83.7654 27.1189L82.9596 26.5267L83.7654 27.1189ZM81.6995 13.601L82.2917 12.7952L81.6995 13.601ZM68.1816 15.6669L68.9874 16.2591L68.1816 15.6669ZM54.75 40.2785H53.75L55.6648 40.6824L54.75 40.2785ZM54.75 0H55.75V-1H54.75V0ZM50.75 0V-1H49.75V0H50.75ZM50.75 42.9575L49.8224 43.331L51.75 42.9575H50.75ZM36.1849 15.6669L36.9907 15.0747L36.1849 15.6669ZM22.667 13.601L23.2592 14.4068L22.667 13.601ZM20.6011 27.1189L21.4069 26.5267L20.6011 27.1189ZM44.8746 50.25V51.25H47.9942L45.456 49.4364L44.8746 50.25ZM0 50.25V49.25H-1V50.25H0ZM0 54.25H-1V55.25H0V54.25ZM49.7583 54.25L50.5876 54.8087L51.6377 53.25H49.7583V54.25ZM31.131 81.9003L31.9604 82.459H31.9604L31.131 81.9003ZM31.537 83.9824L32.0957 83.1531L32.0957 83.1531L31.537 83.9824ZM33.6191 83.5765L34.4484 84.1352V84.1352L33.6191 83.5765ZM54.75 48.7592L53.8286 48.3706L53.75 48.5569V48.7592H54.75ZM54.75 49.1093H53.75V51.1998L55.3776 49.8878L54.75 49.1093ZM68.4952 18.6984L69.301 19.2905L68.4952 18.6984ZM79.0498 16.5237L78.4576 17.3295L79.0498 16.5237ZM80.1269 27.2461L79.321 26.6539L80.1269 27.2461ZM35.6206 18.6984L34.8147 19.2905L35.6206 18.6984ZM49.5889 49.289L48.9622 50.0683L50.5109 48.9018L49.5889 49.289ZM25.0659 16.5237L25.6581 17.3295L25.0659 16.5237ZM23.9889 27.2461L24.7947 26.6539L23.9889 27.2461ZM51.75 105V58.1473H49.75V105H51.75ZM54.75 104H50.75V106H54.75V104ZM53.75 58.8386V105H55.75V58.8386H53.75ZM72.2103 82.9669L55.5794 58.2799L53.9206 59.3973L70.5516 84.0843L72.2103 82.9669ZM72.9043 83.1022C72.6753 83.2565 72.3646 83.1959 72.2103 82.9669L70.5516 84.0843C71.323 85.2294 72.8766 85.5323 74.0218 84.7609L72.9043 83.1022ZM73.0396 82.4081C73.1939 82.6372 73.1334 82.9479 72.9043 83.1022L74.0218 84.7609C75.1669 83.9895 75.4698 82.4358 74.6984 81.2907L73.0396 82.4081ZM54.4467 54.8087L73.0396 82.4081L74.6984 81.2907L56.1054 53.6913L54.4467 54.8087ZM105 53.25H55.276V55.25H105V53.25ZM104 50.25V54.25H106V50.25H104ZM59.4919 51.25H105V49.25H59.4919V51.25ZM82.9596 26.5267C81.8768 28.0002 78.0702 32.1545 73.3863 36.7653C68.715 41.3638 63.2598 46.3286 58.9105 49.4364L60.0733 51.0636C64.5542 47.8619 70.0996 42.8073 74.7894 38.1906C79.4666 33.5863 83.3817 29.3297 84.5713 27.711L82.9596 26.5267ZM81.1074 14.4068C84.9657 17.2421 85.795 22.6684 82.9596 26.5267L84.5713 27.711C88.0607 22.9626 87.0401 16.2846 82.2917 12.7952L81.1074 14.4068ZM68.9874 16.2591C71.8228 12.4007 77.249 11.5715 81.1074 14.4068L82.2917 12.7952C77.5433 9.30574 70.8652 10.3263 67.3758 15.0747L68.9874 16.2591ZM55.6648 40.6824C59.9813 30.9049 67.115 18.8071 68.9874 16.2591L67.3758 15.0747C65.3961 17.7687 58.1941 30.0011 53.8352 39.8747L55.6648 40.6824ZM53.75 0V40.2785H55.75V0H53.75ZM50.75 1H54.75V-1H50.75V1ZM51.75 42.9575V0H49.75V42.9575H51.75ZM35.3791 16.2591C37.4321 19.0528 45.7634 33.2518 49.8224 43.331L51.6776 42.5839C47.5601 32.3596 39.1492 18.012 36.9907 15.0747L35.3791 16.2591ZM23.2592 14.4068C27.1175 11.5715 32.5438 12.4007 35.3791 16.2591L36.9907 15.0747C33.5013 10.3263 26.8232 9.30574 22.0749 12.7952L23.2592 14.4068ZM21.4069 26.5267C18.5716 22.6684 19.4009 17.2421 23.2592 14.4068L22.0749 12.7952C17.3265 16.2846 16.3059 22.9626 19.7953 27.711L21.4069 26.5267ZM45.456 49.4364C41.1067 46.3286 35.6516 41.3638 30.9802 36.7653C26.2964 32.1545 22.4898 28.0002 21.4069 26.5267L19.7953 27.711C20.9848 29.3297 24.8999 33.5863 29.5772 38.1906C34.267 42.8073 39.8124 47.8619 44.2932 51.0636L45.456 49.4364ZM0 51.25H44.8746V49.25H0V51.25ZM1 54.25V50.25H-1V54.25H1ZM49.7583 53.25H0V55.25H49.7583V53.25ZM31.9604 82.459L50.5876 54.8087L48.9289 53.6913L30.3016 81.3416L31.9604 82.459ZM32.0957 83.1531C31.8667 82.9988 31.8061 82.6881 31.9604 82.459L30.3016 81.3416C29.5302 82.4867 29.8331 84.0404 30.9783 84.8118L32.0957 83.1531ZM32.7897 83.0177C32.6354 83.2468 32.3247 83.3074 32.0957 83.1531L30.9782 84.8118C32.1234 85.5832 33.677 85.2803 34.4484 84.1352L32.7897 83.0177ZM49.9206 57.5886L32.7897 83.0178L34.4484 84.1352L51.5794 58.706L49.9206 57.5886ZM53.75 48.7592V49.1093H55.75V48.7592H53.75ZM55.6714 49.1479C56.4712 47.2518 59.3048 40.5594 62.2374 33.9349C63.704 30.622 65.1927 27.3322 66.4627 24.67C67.7527 21.9661 68.7692 20.0142 69.301 19.2905L67.6894 18.1062C67.0212 19.0155 65.9197 21.1632 64.6576 23.8088C63.3756 26.4961 61.8782 29.8057 60.4086 33.1254C57.4689 39.766 54.6299 46.4711 53.8286 48.3706L55.6714 49.1479ZM69.301 19.2905C71.6501 16.0939 75.7669 15.3522 78.4576 17.3295L79.642 15.7179C75.9087 12.9744 70.5746 14.18 67.6894 18.1062L69.301 19.2905ZM78.4576 17.3295C81.1483 19.3068 81.6702 23.4572 79.321 26.6539L80.9327 27.8382C83.8179 23.9121 83.3753 18.4613 79.642 15.7179L78.4576 17.3295ZM79.321 26.6539C79.0676 26.9988 78.5322 27.5736 77.7294 28.3527C76.9416 29.1174 75.9394 30.0379 74.79 31.062C72.4918 33.1096 69.6281 35.5509 66.7614 37.9521C61.0291 42.7534 55.3071 47.3758 54.1224 48.3307L55.3776 49.8878C56.5652 48.9305 62.2988 44.2988 68.0456 39.4853C70.9183 37.0791 73.7999 34.6228 76.1204 32.5553C77.2803 31.5219 78.3058 30.5805 79.1224 29.7879C79.924 29.0098 80.5697 28.3321 80.9327 27.8382L79.321 26.6539ZM34.8147 19.2905C35.3987 20.0851 36.5547 22.3388 38.0029 25.4074C39.4294 28.4303 41.0895 32.1334 42.6706 35.7315C44.2512 39.3284 45.7504 42.8149 46.8546 45.4025C47.4066 46.6962 47.8598 47.7649 48.175 48.5101C48.3326 48.8827 48.4556 49.1744 48.5392 49.3729C48.581 49.4721 48.613 49.548 48.6344 49.5991C48.6452 49.6246 48.6533 49.6439 48.6587 49.6569C48.6615 49.6633 48.6635 49.6682 48.6649 49.6714C48.6655 49.673 48.666 49.6742 48.6664 49.675C48.6665 49.6754 48.6667 49.6757 48.6668 49.6759C48.6668 49.6761 48.6669 49.6762 49.5889 49.289C50.5109 48.9018 50.5108 48.9017 50.5107 48.9015C50.5106 48.9013 50.5105 48.9009 50.5103 48.9005C50.51 48.8997 50.5094 48.8984 50.5087 48.8968C50.5073 48.8934 50.5053 48.8885 50.5025 48.8819C50.497 48.8689 50.4888 48.8493 50.478 48.8236C50.4564 48.7722 50.4243 48.6959 50.3823 48.5963C50.2984 48.3971 50.175 48.1046 50.017 47.7311C49.7012 46.9843 49.2471 45.9135 48.6941 44.6176C47.5882 42.0259 46.086 38.5325 44.5017 34.9269C42.9178 31.3226 41.2494 27.6006 39.8116 24.5539C38.3953 21.5528 37.1511 19.0923 36.4264 18.1062L34.8147 19.2905ZM25.6581 17.3295C28.3488 15.3522 32.4656 16.0939 34.8147 19.2905L36.4264 18.1062C33.5412 14.18 28.2071 12.9744 24.4738 15.7179L25.6581 17.3295ZM24.7947 26.6539C22.4456 23.4572 22.9674 19.3068 25.6581 17.3295L24.4738 15.7179C20.7405 18.4613 20.2979 23.9121 23.1831 27.8382L24.7947 26.6539ZM49.5889 49.289C50.2155 48.5097 50.2155 48.5097 50.2153 48.5095C50.2151 48.5094 50.2149 48.5092 50.2145 48.5089C50.2139 48.5084 50.2128 48.5075 50.2115 48.5064C50.2087 48.5042 50.2046 48.5009 50.1991 48.4965C50.1881 48.4877 50.1717 48.4744 50.15 48.457C50.1066 48.422 50.0421 48.3701 49.9578 48.3021C49.7892 48.1661 49.5414 47.9662 49.225 47.7103C48.5922 47.1987 47.6852 46.4636 46.5884 45.5703C44.3948 43.7835 41.4433 41.3646 38.4109 38.8351C35.3772 36.3047 32.2677 33.6679 29.7559 31.444C28.4995 30.3317 27.3986 29.3279 26.5339 28.4953C25.6526 27.6469 25.0652 27.022 24.7947 26.6539L23.1831 27.8382C23.5669 28.3605 24.2702 29.0922 25.1467 29.9361C26.0398 30.796 27.1638 31.8203 28.4301 32.9415C30.9636 35.1845 34.0905 37.8359 37.1298 40.371C40.1702 42.9071 43.128 45.3312 45.3254 47.121C46.4242 48.016 47.3331 48.7526 47.9674 49.2655C48.2846 49.522 48.5331 49.7226 48.7025 49.8591C48.7871 49.9273 48.852 49.9796 48.8957 50.0148C48.9176 50.0324 48.9342 50.0457 48.9453 50.0547C48.9509 50.0592 48.9551 50.0626 48.9579 50.0648C48.9593 50.066 48.9604 50.0668 48.9611 50.0674C48.9615 50.0677 48.9617 50.0679 48.9619 50.0681C48.9621 50.0682 48.9622 50.0683 49.5889 49.289Z" fill="#FF77E6" mask="url(#path-1-inside-1_83_146)"/>
</svg>
