<svg width="48" height="83" viewBox="0 0 48 83" fill="none" xmlns="http://www.w3.org/2000/svg">
<g filter="url(#filter0_di_83_300)">
<path d="M15.118 79H2.43727C2.14576 79 2 78.8152 2 78.4456L2.10932 0.443509C2.10932 0.147836 2.29151 0 2.6559 0H15.118C15.4824 0 15.6646 0.147836 15.6646 0.443509L15.5553 31.3228H32.3354V0.443509C32.3354 0.147836 32.4812 0 32.7727 0H45.2348C45.5992 0 45.7814 0.147836 45.7814 0.443509L46 78.4456C46 78.8152 45.8178 79 45.4534 79H32.882C32.5176 79 32.3354 78.8152 32.3354 78.4456V45.0716H15.5553V78.4456C15.5553 78.8152 15.4095 79 15.118 79Z" fill="#FF8E90"/>
</g>
<defs>
<filter id="filter0_di_83_300" x="0" y="0" width="48" height="84" filterUnits="userSpaceOnUse" color-interpolation-filters="sRGB">
<feFlood flood-opacity="0" result="BackgroundImageFix"/>
<feColorMatrix in="SourceAlpha" type="matrix" values="0 0 0 0 0 0 0 0 0 0 0 0 0 0 0 0 0 0 127 0" result="hardAlpha"/>
<feOffset dy="2"/>
<feGaussianBlur stdDeviation="1"/>
<feComposite in2="hardAlpha" operator="out"/>
<feColorMatrix type="matrix" values="0 0 0 0 0 0 0 0 0 0 0 0 0 0 0 0 0 0 0.25 0"/>
<feBlend mode="normal" in2="BackgroundImageFix" result="effect1_dropShadow_83_300"/>
<feBlend mode="normal" in="SourceGraphic" in2="effect1_dropShadow_83_300" result="shape"/>
<feColorMatrix in="SourceAlpha" type="matrix" values="0 0 0 0 0 0 0 0 0 0 0 0 0 0 0 0 0 0 127 0" result="hardAlpha"/>
<feOffset dy="5"/>
<feGaussianBlur stdDeviation="2.5"/>
<feComposite in2="hardAlpha" operator="arithmetic" k2="-1" k3="1"/>
<feColorMatrix type="matrix" values="0 0 0 0 1 0 0 0 0 1 0 0 0 0 1 0 0 0 0.35 0"/>
<feBlend mode="normal" in2="shape" result="effect2_innerShadow_83_300"/>
</filter>
</defs>
</svg>
