<svg width="468" height="83" viewBox="0 0 468 83" fill="none" xmlns="http://www.w3.org/2000/svg">
<g filter="url(#filter0_di_91_924)">
<path d="M450.37 79H437.409C437.152 79 437.023 78.8522 437.023 78.5565L437.134 46.2912L422.022 0.443509C421.949 0.147836 422.059 0 422.353 0H434.928C435.295 0 435.516 0.147836 435.589 0.443509L443.917 30.9902L452.411 0.443509C452.484 0.147836 452.668 0 452.962 0H465.647C465.941 0 466.051 0.147836 465.978 0.443509L450.701 45.8477L450.811 78.5565C450.811 78.8522 450.664 79 450.37 79Z" fill="#FF8E90"/>
</g>
<g filter="url(#filter1_di_91_924)">
<path d="M332.284 79H319.554C319.185 79 319 78.8152 319 78.4456L319.221 0.443509C319.221 0.147836 319.369 0 319.664 0H341.472C348.41 0 353.889 2.12515 357.911 6.37544C361.97 10.5888 364 16.3359 364 23.6168C364 28.9389 362.948 33.5773 360.845 37.5319C358.705 41.4496 355.937 44.4802 352.542 46.6239C349.148 48.7675 345.458 49.8393 341.472 49.8393H332.838V78.4456C332.838 78.8152 332.653 79 332.284 79ZM341.472 13.4716L332.838 13.5825V36.0905H341.472C343.871 36.0905 345.956 34.9448 347.727 32.6533C349.498 30.3249 350.384 27.3127 350.384 23.6168C350.384 20.6601 349.59 18.2393 348.004 16.3544C346.417 14.4325 344.24 13.4716 341.472 13.4716Z" fill="#FF8E90"/>
</g>
<g filter="url(#filter2_di_91_924)">
<path d="M229.284 79H216.554C216.185 79 216 78.8152 216 78.4456L216.221 0.443509C216.221 0.147836 216.369 0 216.664 0H238.472C245.41 0 250.889 2.12515 254.911 6.37544C258.97 10.5888 261 16.3359 261 23.6168C261 28.9389 259.948 33.5773 257.845 37.5319C255.705 41.4496 252.937 44.4802 249.542 46.6239C246.148 48.7675 242.458 49.8393 238.472 49.8393H229.838V78.4456C229.838 78.8152 229.653 79 229.284 79ZM238.472 13.4716L229.838 13.5825V36.0905H238.472C240.871 36.0905 242.956 34.9448 244.727 32.6533C246.498 30.3249 247.384 27.3127 247.384 23.6168C247.384 20.6601 246.59 18.2393 245.004 16.3544C243.417 14.4325 241.24 13.4716 238.472 13.4716Z" fill="#FF8E90"/>
</g>
<g filter="url(#filter3_di_91_924)">
<path d="M107 78.4456L121.023 0.443509C121.096 0.147836 121.28 0 121.575 0H137.972C138.266 0 138.45 0.147836 138.524 0.443509L151.994 78.4456C152.031 78.8152 151.884 79 151.553 79H139.021C138.653 79 138.45 78.8152 138.413 78.4456L137.199 70.1298H121.796L120.581 78.4456C120.544 78.8152 120.36 79 120.029 79H107.442C107.147 79 107 78.8152 107 78.4456ZM130.298 26.1116L129.635 21.8982L129.138 26.1116L124.059 57.9888H134.935L130.298 26.1116Z" fill="#FF8E90"/>
</g>
<g filter="url(#filter4_di_91_924)">
<path d="M15.118 79H2.43727C2.14576 79 2 78.8152 2 78.4456L2.10932 0.443509C2.10932 0.147836 2.29151 0 2.6559 0H15.118C15.4824 0 15.6646 0.147836 15.6646 0.443509L15.5553 31.3228H32.3354V0.443509C32.3354 0.147836 32.4812 0 32.7727 0H45.2348C45.5992 0 45.7814 0.147836 45.7814 0.443509L46 78.4456C46 78.8152 45.8178 79 45.4534 79H32.882C32.5176 79 32.3354 78.8152 32.3354 78.4456V45.0716H15.5553V78.4456C15.5553 78.8152 15.4095 79 15.118 79Z" fill="#FF8E90"/>
</g>
<defs>
<filter id="filter0_di_91_924" x="420" y="0" width="48" height="84" filterUnits="userSpaceOnUse" color-interpolation-filters="sRGB">
<feFlood flood-opacity="0" result="BackgroundImageFix"/>
<feColorMatrix in="SourceAlpha" type="matrix" values="0 0 0 0 0 0 0 0 0 0 0 0 0 0 0 0 0 0 127 0" result="hardAlpha"/>
<feOffset dy="2"/>
<feGaussianBlur stdDeviation="1"/>
<feComposite in2="hardAlpha" operator="out"/>
<feColorMatrix type="matrix" values="0 0 0 0 0 0 0 0 0 0 0 0 0 0 0 0 0 0 0.25 0"/>
<feBlend mode="normal" in2="BackgroundImageFix" result="effect1_dropShadow_91_924"/>
<feBlend mode="normal" in="SourceGraphic" in2="effect1_dropShadow_91_924" result="shape"/>
<feColorMatrix in="SourceAlpha" type="matrix" values="0 0 0 0 0 0 0 0 0 0 0 0 0 0 0 0 0 0 127 0" result="hardAlpha"/>
<feOffset dy="5"/>
<feGaussianBlur stdDeviation="2.5"/>
<feComposite in2="hardAlpha" operator="arithmetic" k2="-1" k3="1"/>
<feColorMatrix type="matrix" values="0 0 0 0 1 0 0 0 0 1 0 0 0 0 1 0 0 0 0.35 0"/>
<feBlend mode="normal" in2="shape" result="effect2_innerShadow_91_924"/>
</filter>
<filter id="filter1_di_91_924" x="317" y="0" width="49" height="84" filterUnits="userSpaceOnUse" color-interpolation-filters="sRGB">
<feFlood flood-opacity="0" result="BackgroundImageFix"/>
<feColorMatrix in="SourceAlpha" type="matrix" values="0 0 0 0 0 0 0 0 0 0 0 0 0 0 0 0 0 0 127 0" result="hardAlpha"/>
<feOffset dy="2"/>
<feGaussianBlur stdDeviation="1"/>
<feComposite in2="hardAlpha" operator="out"/>
<feColorMatrix type="matrix" values="0 0 0 0 0 0 0 0 0 0 0 0 0 0 0 0 0 0 0.25 0"/>
<feBlend mode="normal" in2="BackgroundImageFix" result="effect1_dropShadow_91_924"/>
<feBlend mode="normal" in="SourceGraphic" in2="effect1_dropShadow_91_924" result="shape"/>
<feColorMatrix in="SourceAlpha" type="matrix" values="0 0 0 0 0 0 0 0 0 0 0 0 0 0 0 0 0 0 127 0" result="hardAlpha"/>
<feOffset dy="5"/>
<feGaussianBlur stdDeviation="2.5"/>
<feComposite in2="hardAlpha" operator="arithmetic" k2="-1" k3="1"/>
<feColorMatrix type="matrix" values="0 0 0 0 1 0 0 0 0 1 0 0 0 0 1 0 0 0 0.35 0"/>
<feBlend mode="normal" in2="shape" result="effect2_innerShadow_91_924"/>
</filter>
<filter id="filter2_di_91_924" x="214" y="0" width="49" height="84" filterUnits="userSpaceOnUse" color-interpolation-filters="sRGB">
<feFlood flood-opacity="0" result="BackgroundImageFix"/>
<feColorMatrix in="SourceAlpha" type="matrix" values="0 0 0 0 0 0 0 0 0 0 0 0 0 0 0 0 0 0 127 0" result="hardAlpha"/>
<feOffset dy="2"/>
<feGaussianBlur stdDeviation="1"/>
<feComposite in2="hardAlpha" operator="out"/>
<feColorMatrix type="matrix" values="0 0 0 0 0 0 0 0 0 0 0 0 0 0 0 0 0 0 0.25 0"/>
<feBlend mode="normal" in2="BackgroundImageFix" result="effect1_dropShadow_91_924"/>
<feBlend mode="normal" in="SourceGraphic" in2="effect1_dropShadow_91_924" result="shape"/>
<feColorMatrix in="SourceAlpha" type="matrix" values="0 0 0 0 0 0 0 0 0 0 0 0 0 0 0 0 0 0 127 0" result="hardAlpha"/>
<feOffset dy="5"/>
<feGaussianBlur stdDeviation="2.5"/>
<feComposite in2="hardAlpha" operator="arithmetic" k2="-1" k3="1"/>
<feColorMatrix type="matrix" values="0 0 0 0 1 0 0 0 0 1 0 0 0 0 1 0 0 0 0.35 0"/>
<feBlend mode="normal" in2="shape" result="effect2_innerShadow_91_924"/>
</filter>
<filter id="filter3_di_91_924" x="105" y="0" width="49" height="84" filterUnits="userSpaceOnUse" color-interpolation-filters="sRGB">
<feFlood flood-opacity="0" result="BackgroundImageFix"/>
<feColorMatrix in="SourceAlpha" type="matrix" values="0 0 0 0 0 0 0 0 0 0 0 0 0 0 0 0 0 0 127 0" result="hardAlpha"/>
<feOffset dy="2"/>
<feGaussianBlur stdDeviation="1"/>
<feComposite in2="hardAlpha" operator="out"/>
<feColorMatrix type="matrix" values="0 0 0 0 0 0 0 0 0 0 0 0 0 0 0 0 0 0 0.25 0"/>
<feBlend mode="normal" in2="BackgroundImageFix" result="effect1_dropShadow_91_924"/>
<feBlend mode="normal" in="SourceGraphic" in2="effect1_dropShadow_91_924" result="shape"/>
<feColorMatrix in="SourceAlpha" type="matrix" values="0 0 0 0 0 0 0 0 0 0 0 0 0 0 0 0 0 0 127 0" result="hardAlpha"/>
<feOffset dy="5"/>
<feGaussianBlur stdDeviation="2.5"/>
<feComposite in2="hardAlpha" operator="arithmetic" k2="-1" k3="1"/>
<feColorMatrix type="matrix" values="0 0 0 0 1 0 0 0 0 1 0 0 0 0 1 0 0 0 0.35 0"/>
<feBlend mode="normal" in2="shape" result="effect2_innerShadow_91_924"/>
</filter>
<filter id="filter4_di_91_924" x="0" y="0" width="48" height="84" filterUnits="userSpaceOnUse" color-interpolation-filters="sRGB">
<feFlood flood-opacity="0" result="BackgroundImageFix"/>
<feColorMatrix in="SourceAlpha" type="matrix" values="0 0 0 0 0 0 0 0 0 0 0 0 0 0 0 0 0 0 127 0" result="hardAlpha"/>
<feOffset dy="2"/>
<feGaussianBlur stdDeviation="1"/>
<feComposite in2="hardAlpha" operator="out"/>
<feColorMatrix type="matrix" values="0 0 0 0 0 0 0 0 0 0 0 0 0 0 0 0 0 0 0.25 0"/>
<feBlend mode="normal" in2="BackgroundImageFix" result="effect1_dropShadow_91_924"/>
<feBlend mode="normal" in="SourceGraphic" in2="effect1_dropShadow_91_924" result="shape"/>
<feColorMatrix in="SourceAlpha" type="matrix" values="0 0 0 0 0 0 0 0 0 0 0 0 0 0 0 0 0 0 127 0" result="hardAlpha"/>
<feOffset dy="5"/>
<feGaussianBlur stdDeviation="2.5"/>
<feComposite in2="hardAlpha" operator="arithmetic" k2="-1" k3="1"/>
<feColorMatrix type="matrix" values="0 0 0 0 1 0 0 0 0 1 0 0 0 0 1 0 0 0 0.35 0"/>
<feBlend mode="normal" in2="shape" result="effect2_innerShadow_91_924"/>
</filter>
</defs>
</svg>
