<svg width="52" height="96" viewBox="0 0 52 96" fill="none" xmlns="http://www.w3.org/2000/svg">
<mask id="path-1-inside-1_83_686" fill="white">
<path fill-rule="evenodd" clip-rule="evenodd" d="M3.97263 3.97264C-1.32421 9.26948 -1.32421 17.8574 3.97263 23.1542L6.47862 25.6602C6.4832 25.6648 6.4832 25.6722 6.47862 25.6768C6.47403 25.6814 6.47403 25.6888 6.47862 25.6934L23.0129 42.2277C23.0463 42.2611 23.0801 42.2936 23.1144 42.3255V73.8994H14.4258C13.0451 73.8994 11.9258 75.0187 11.9258 76.3994C11.9258 77.7801 13.0451 78.8994 14.4258 78.8994H23.1144V83.2236H8.83142C7.45071 83.2236 6.33142 84.3429 6.33142 85.7236C6.33142 87.1043 7.45071 88.2236 8.83142 88.2236H23.1144V93.183C23.1144 94.5637 24.2337 95.683 25.6144 95.683C26.9951 95.683 28.1144 94.5637 28.1144 93.183V76.4082L28.1144 76.3994L28.1144 76.3906V42.3933C28.1745 42.3404 28.2334 42.2852 28.2909 42.2277L47.3085 23.2101C52.6054 17.9132 52.6054 9.32533 47.3085 4.02848C42.0117 -1.26836 33.4238 -1.26836 28.1269 4.02848C26.7692 5.38624 24.5678 5.38624 23.2101 4.02848L23.1542 3.97263C17.8574 -1.32421 9.26947 -1.32421 3.97263 3.97264ZM10.9164 9.73461C7.38229 13.2687 7.38229 18.9986 10.9164 22.5327L12.5884 24.2047C12.5914 24.2078 12.5914 24.2127 12.5884 24.2158C12.5853 24.2188 12.5853 24.2238 12.5884 24.2268L23.6202 35.2586C24.5926 36.2311 26.1692 36.2311 27.1417 35.2586L39.8304 22.5699C43.3645 19.0359 43.3645 13.306 39.8304 9.77188C36.2963 6.23779 30.5664 6.23778 27.0323 9.77187C26.1264 10.6778 24.6576 10.6778 23.7517 9.77187L23.7145 9.73461C20.1804 6.20052 14.4505 6.20052 10.9164 9.73461Z"/>
</mask>
<g filter="url(#filter0_i_83_686)">
<path fill-rule="evenodd" clip-rule="evenodd" d="M3.97263 3.97264C-1.32421 9.26948 -1.32421 17.8574 3.97263 23.1542L6.47862 25.6602C6.4832 25.6648 6.4832 25.6722 6.47862 25.6768C6.47403 25.6814 6.47403 25.6888 6.47862 25.6934L23.0129 42.2277C23.0463 42.2611 23.0801 42.2936 23.1144 42.3255V73.8994H14.4258C13.0451 73.8994 11.9258 75.0187 11.9258 76.3994C11.9258 77.7801 13.0451 78.8994 14.4258 78.8994H23.1144V83.2236H8.83142C7.45071 83.2236 6.33142 84.3429 6.33142 85.7236C6.33142 87.1043 7.45071 88.2236 8.83142 88.2236H23.1144V93.183C23.1144 94.5637 24.2337 95.683 25.6144 95.683C26.9951 95.683 28.1144 94.5637 28.1144 93.183V76.4082L28.1144 76.3994L28.1144 76.3906V42.3933C28.1745 42.3404 28.2334 42.2852 28.2909 42.2277L47.3085 23.2101C52.6054 17.9132 52.6054 9.32533 47.3085 4.02848C42.0117 -1.26836 33.4238 -1.26836 28.1269 4.02848C26.7692 5.38624 24.5678 5.38624 23.2101 4.02848L23.1542 3.97263C17.8574 -1.32421 9.26947 -1.32421 3.97263 3.97264ZM10.9164 9.73461C7.38229 13.2687 7.38229 18.9986 10.9164 22.5327L12.5884 24.2047C12.5914 24.2078 12.5914 24.2127 12.5884 24.2158C12.5853 24.2188 12.5853 24.2238 12.5884 24.2268L23.6202 35.2586C24.5926 36.2311 26.1692 36.2311 27.1417 35.2586L39.8304 22.5699C43.3645 19.0359 43.3645 13.306 39.8304 9.77188C36.2963 6.23779 30.5664 6.23778 27.0323 9.77187C26.1264 10.6778 24.6576 10.6778 23.7517 9.77187L23.7145 9.73461C20.1804 6.20052 14.4505 6.20052 10.9164 9.73461Z" fill="#FFA0C2"/>
</g>
<path d="M3.97263 23.1542L3.26553 23.8613L3.26553 23.8613L3.97263 23.1542ZM3.97263 3.97264L3.26553 3.26553L3.97263 3.97264ZM6.47862 25.6602L7.1858 24.9532L7.18572 24.9531L6.47862 25.6602ZM6.47862 25.6768L7.18565 26.384L7.1858 26.3838L6.47862 25.6768ZM6.47862 25.6934L7.18572 24.9863L7.18561 24.9862L6.47862 25.6934ZM23.0129 42.2277L22.3058 42.9348L23.0129 42.2277ZM23.1144 42.3255H24.1144V41.8894L23.7948 41.5926L23.1144 42.3255ZM23.1144 73.8994V74.8994H24.1144V73.8994H23.1144ZM23.1144 78.8994H24.1144V77.8994H23.1144V78.8994ZM23.1144 83.2236V84.2236H24.1144V83.2236H23.1144ZM23.1144 88.2236H24.1144V87.2236H23.1144V88.2236ZM28.1144 76.4082L27.1144 76.4065V76.4082H28.1144ZM28.1144 76.3994L29.1144 76.4011L29.1144 76.3977L28.1144 76.3994ZM28.1144 76.3906H27.1144L27.1144 76.3923L28.1144 76.3906ZM28.1144 42.3933L27.4539 41.6425L27.1144 41.9411V42.3933H28.1144ZM28.2909 42.2277L27.5838 41.5206L27.5838 41.5206L28.2909 42.2277ZM47.3085 23.2101L46.6014 22.503L47.3085 23.2101ZM47.3085 4.02848L46.6014 4.73559V4.73559L47.3085 4.02848ZM28.1269 4.02848L28.834 4.73559L28.834 4.73559L28.1269 4.02848ZM23.2101 4.02848L23.9172 3.32137L23.9172 3.32137L23.2101 4.02848ZM23.1542 3.97263L22.4471 4.67974L22.4471 4.67974L23.1542 3.97263ZM10.9164 22.5327L10.2093 23.2398L10.9164 22.5327ZM10.9164 9.73461L10.2093 9.02751L10.9164 9.73461ZM12.5884 24.2047L11.8813 24.9118V24.9118L12.5884 24.2047ZM12.5884 24.2158L11.8813 23.5087L11.8812 23.5088L12.5884 24.2158ZM12.5884 24.2268L11.8812 24.9338L11.8813 24.934L12.5884 24.2268ZM23.6202 35.2586L24.3273 34.5515L23.6202 35.2586ZM27.1417 35.2586L26.4346 34.5515L27.1417 35.2586ZM39.8304 22.5699L39.1233 21.8628L39.8304 22.5699ZM39.8304 9.77188L39.1233 10.479L39.8304 9.77188ZM27.0323 9.77187L27.7394 10.479L27.7394 10.479L27.0323 9.77187ZM23.7517 9.77187L24.4588 9.06477L23.7517 9.77187ZM23.7145 9.73461L23.0073 10.4417L23.7145 9.73461ZM4.67974 22.4471C-0.22658 17.5408 -0.22658 9.58606 4.67974 4.67974L3.26553 3.26553C-2.42184 8.9529 -2.42184 18.1739 3.26553 23.8613L4.67974 22.4471ZM7.18572 24.9531L4.67974 22.4471L3.26553 23.8613L5.77151 26.3673L7.18572 24.9531ZM7.1858 26.3838C7.58081 25.9887 7.58081 25.3483 7.1858 24.9532L5.77144 26.3672C5.38559 25.9813 5.38559 25.3557 5.77144 24.9698L7.1858 26.3838ZM7.18561 24.9862C7.57175 25.3722 7.57164 25.9981 7.18565 26.384L5.77158 24.9696C5.37642 25.3647 5.37632 26.0054 5.77162 26.4006L7.18561 24.9862ZM23.72 41.5206L7.18572 24.9863L5.77151 26.4005L22.3058 42.9348L23.72 41.5206ZM23.7948 41.5926C23.7696 41.5692 23.7446 41.5452 23.72 41.5206L22.3058 42.9348C22.3479 42.9769 22.3906 43.0181 22.434 43.0583L23.7948 41.5926ZM24.1144 73.8994V42.3255H22.1144V73.8994H24.1144ZM14.4258 74.8994H23.1144V72.8994H14.4258V74.8994ZM12.9258 76.3994C12.9258 75.571 13.5974 74.8994 14.4258 74.8994V72.8994C12.4928 72.8994 10.9258 74.4664 10.9258 76.3994H12.9258ZM14.4258 77.8994C13.5974 77.8994 12.9258 77.2278 12.9258 76.3994H10.9258C10.9258 78.3324 12.4928 79.8994 14.4258 79.8994V77.8994ZM23.1144 77.8994H14.4258V79.8994H23.1144V77.8994ZM24.1144 83.2236V78.8994H22.1144V83.2236H24.1144ZM8.83142 84.2236H23.1144V82.2236H8.83142V84.2236ZM7.33142 85.7236C7.33142 84.8952 8.00299 84.2236 8.83142 84.2236V82.2236C6.89842 82.2236 5.33142 83.7906 5.33142 85.7236H7.33142ZM8.83142 87.2236C8.00299 87.2236 7.33142 86.5521 7.33142 85.7236H5.33142C5.33142 87.6566 6.89842 89.2236 8.83142 89.2236V87.2236ZM23.1144 87.2236H8.83142V89.2236H23.1144V87.2236ZM24.1144 93.183V88.2236H22.1144V93.183H24.1144ZM25.6144 94.683C24.786 94.683 24.1144 94.0115 24.1144 93.183H22.1144C22.1144 95.116 23.6814 96.683 25.6144 96.683V94.683ZM27.1144 93.183C27.1144 94.0115 26.4428 94.683 25.6144 94.683V96.683C27.5474 96.683 29.1144 95.116 29.1144 93.183H27.1144ZM27.1144 76.4082V93.183H29.1144V76.4082H27.1144ZM27.1144 76.3977L27.1144 76.4065L29.1144 76.41L29.1144 76.4011L27.1144 76.3977ZM27.1144 76.3923L27.1144 76.4011L29.1144 76.3977L29.1144 76.3889L27.1144 76.3923ZM27.1144 42.3933V76.3906H29.1144V42.3933H27.1144ZM27.5838 41.5206C27.5414 41.563 27.498 41.6036 27.4539 41.6425L28.7749 43.1441C28.851 43.0771 28.9254 43.0073 28.998 42.9348L27.5838 41.5206ZM46.6014 22.503L27.5838 41.5206L28.998 42.9348L48.0156 23.9172L46.6014 22.503ZM46.6014 4.73559C51.5077 9.64191 51.5077 17.5966 46.6014 22.503L48.0156 23.9172C53.703 18.2298 53.703 9.00875 48.0156 3.32138L46.6014 4.73559ZM28.834 4.73559C33.7404 -0.170732 41.6951 -0.170728 46.6014 4.73559L48.0156 3.32138C42.3283 -2.36599 33.1072 -2.366 27.4198 3.32137L28.834 4.73559ZM22.5029 4.73559C24.2512 6.48387 27.0858 6.48387 28.834 4.73559L27.4198 3.32137C26.4526 4.28861 24.8844 4.28861 23.9172 3.32137L22.5029 4.73559ZM22.4471 4.67974L22.503 4.73559L23.9172 3.32137L23.8613 3.26552L22.4471 4.67974ZM4.67974 4.67974C9.58606 -0.226578 17.5408 -0.226582 22.4471 4.67974L23.8613 3.26552C18.1739 -2.42184 8.95289 -2.42184 3.26553 3.26553L4.67974 4.67974ZM11.6235 21.8256C8.47992 18.682 8.47992 13.5853 11.6235 10.4417L10.2093 9.02751C6.28466 12.9521 6.28466 19.3152 10.2093 23.2398L11.6235 21.8256ZM13.2955 23.4976L11.6235 21.8256L10.2093 23.2398L11.8813 24.9118L13.2955 23.4976ZM13.2955 24.9229C13.6891 24.5293 13.6891 23.8912 13.2955 23.4976L11.8813 24.9118C11.4938 24.5243 11.4938 23.8961 11.8813 23.5087L13.2955 24.9229ZM13.2956 23.5199C13.6829 23.9073 13.6829 24.5353 13.2956 24.9228L11.8812 23.5088C11.4877 23.9023 11.4877 24.5403 11.8812 24.9338L13.2956 23.5199ZM24.3273 34.5515L13.2955 23.5197L11.8813 24.934L22.9131 35.9657L24.3273 34.5515ZM26.4346 34.5515C25.8527 35.1334 24.9092 35.1334 24.3273 34.5515L22.9131 35.9657C24.276 37.3287 26.4858 37.3287 27.8488 35.9657L26.4346 34.5515ZM39.1233 21.8628L26.4346 34.5515L27.8488 35.9657L40.5375 23.2771L39.1233 21.8628ZM39.1233 10.479C42.2668 13.6225 42.2668 18.7193 39.1233 21.8628L40.5375 23.2771C44.4621 19.3524 44.4621 12.9894 40.5375 9.06477L39.1233 10.479ZM27.7394 10.479C30.883 7.33541 35.9797 7.33542 39.1233 10.479L40.5375 9.06477C36.6129 5.14016 30.2498 5.14015 26.3252 9.06477L27.7394 10.479ZM23.0446 10.479C24.341 11.7754 26.443 11.7754 27.7394 10.479L26.3252 9.06476C25.8098 9.58015 24.9742 9.58015 24.4588 9.06477L23.0446 10.479ZM23.0073 10.4417L23.0446 10.479L24.4588 9.06477L24.4216 9.0275L23.0073 10.4417ZM11.6235 10.4417C14.767 7.29815 19.8638 7.29815 23.0073 10.4417L24.4216 9.0275C20.4969 5.10289 14.1339 5.10289 10.2093 9.02751L11.6235 10.4417Z" fill="#FFA0C2" mask="url(#path-1-inside-1_83_686)"/>
<defs>
<filter id="filter0_i_83_686" x="0" y="0" width="51.2811" height="100.683" filterUnits="userSpaceOnUse" color-interpolation-filters="sRGB">
<feFlood flood-opacity="0" result="BackgroundImageFix"/>
<feBlend mode="normal" in="SourceGraphic" in2="BackgroundImageFix" result="shape"/>
<feColorMatrix in="SourceAlpha" type="matrix" values="0 0 0 0 0 0 0 0 0 0 0 0 0 0 0 0 0 0 127 0" result="hardAlpha"/>
<feOffset dy="5"/>
<feGaussianBlur stdDeviation="2.5"/>
<feComposite in2="hardAlpha" operator="arithmetic" k2="-1" k3="1"/>
<feColorMatrix type="matrix" values="0 0 0 0 1 0 0 0 0 1 0 0 0 0 1 0 0 0 0.35 0"/>
<feBlend mode="normal" in2="shape" result="effect1_innerShadow_83_686"/>
</filter>
</defs>
</svg>
