<svg width="193" height="33" viewBox="0 0 193 33" fill="none" xmlns="http://www.w3.org/2000/svg">
<g filter="url(#filter0_dd_83_766)">
<path d="M190.845 27.9846H186.362C186.259 27.9846 186.207 27.9331 186.207 27.83V23.3463C186.207 23.2432 186.259 23.1917 186.362 23.1917H190.845C190.948 23.1917 191 23.2432 191 23.3463V27.83C191 27.9331 190.948 27.9846 190.845 27.9846Z" fill="#FFB2F6"/>
<path d="M165.402 28.3704C163.998 28.3704 162.703 28.0096 161.518 27.2881C160.345 26.5666 159.405 25.6067 158.696 24.4085C158 23.1973 157.653 21.8703 157.653 20.4272V18.6105C157.653 18.4688 157.717 18.3979 157.846 18.3979H162.291C162.394 18.3979 162.446 18.4688 162.446 18.6105V20.4272C162.446 21.2905 162.735 22.0377 163.315 22.6691C163.895 23.2875 164.591 23.5967 165.402 23.5967C166.227 23.5967 166.929 23.2811 167.509 22.6498C168.089 22.0055 168.379 21.2647 168.379 20.4272C168.379 19.4609 167.747 18.617 166.485 17.8955C166.279 17.7666 166.008 17.612 165.673 17.4316C165.351 17.2384 164.964 17.0193 164.513 16.7745C164.063 16.5297 163.624 16.2914 163.199 16.0594C162.774 15.8146 162.362 15.5827 161.962 15.3637C160.519 14.5133 159.444 13.4504 158.735 12.1748C158.039 10.8864 157.691 9.44337 157.691 7.84572C157.691 6.37691 158.052 5.04983 158.774 3.86447C159.495 2.692 160.436 1.76434 161.595 1.08147C162.768 0.385717 164.037 0.0378418 165.402 0.0378418C166.807 0.0378418 168.095 0.385717 169.268 1.08147C170.44 1.7901 171.374 2.73066 172.07 3.90313C172.779 5.0756 173.133 6.38979 173.133 7.84572V11.0926C173.133 11.1956 173.082 11.2472 172.978 11.2472H168.533C168.43 11.2472 168.379 11.1956 168.379 11.0926L168.34 7.84572C168.34 6.91805 168.05 6.16432 167.47 5.58452C166.891 5.00473 166.201 4.71484 165.402 4.71484C164.591 4.71484 163.895 5.02406 163.315 5.6425C162.735 6.26095 162.446 6.99535 162.446 7.84572C162.446 8.70896 162.626 9.43048 162.987 10.0103C163.36 10.5901 164.037 11.1441 165.016 11.6723C165.119 11.7239 165.357 11.8527 165.731 12.0589C166.105 12.265 166.517 12.4969 166.968 12.7546C167.432 12.9994 167.85 13.2249 168.224 13.4311C168.598 13.6243 168.823 13.7403 168.901 13.7789C170.215 14.5133 171.252 15.4152 172.012 16.4846C172.785 17.554 173.172 18.8682 173.172 20.4272C173.172 21.9347 172.824 23.2875 172.128 24.4858C171.419 25.684 170.479 26.631 169.306 27.3267C168.134 28.0225 166.833 28.3704 165.402 28.3704Z" fill="#FFB2F6"/>
<path d="M144.753 27.9847H140.269C140.14 27.9847 140.076 27.9203 140.076 27.7915L140.114 0.599191C140.114 0.496117 140.166 0.44458 140.269 0.44458H144.714C144.817 0.44458 144.869 0.496117 144.869 0.599191L144.907 27.7915C144.907 27.9203 144.856 27.9847 144.753 27.9847Z" fill="#FFB2F6"/>
<path d="M115.329 27.9847H110.845C110.742 27.9847 110.69 27.9203 110.69 27.7915L110.768 0.599191C110.768 0.496117 110.819 0.44458 110.922 0.44458H118.923C120.354 0.44458 121.668 0.792456 122.866 1.48821C124.064 2.18396 125.018 3.11807 125.726 4.29054C126.448 5.46301 126.809 6.79009 126.809 8.27178C126.809 9.2381 126.66 10.1142 126.364 10.9002C126.068 11.6861 125.72 12.3497 125.32 12.8908C124.934 13.4319 124.58 13.8313 124.257 14.089C125.688 15.6738 126.403 17.5356 126.403 19.6744L126.441 27.7915C126.441 27.9203 126.377 27.9847 126.248 27.9847H121.764C121.661 27.9847 121.61 27.9461 121.61 27.8688V19.6744C121.61 18.7209 121.275 17.8963 120.605 17.2006C119.935 16.5048 119.11 16.157 118.131 16.157H115.522L115.483 27.7915C115.483 27.9203 115.432 27.9847 115.329 27.9847ZM118.923 5.17955H115.522V11.4027H118.923C119.735 11.4027 120.457 11.0999 121.088 10.4943C121.732 9.88876 122.054 9.14791 122.054 8.27178C122.054 7.4343 121.745 6.71278 121.127 6.10722C120.508 5.48878 119.774 5.17955 118.923 5.17955Z" fill="#FFB2F6"/>
<path d="M89.6345 28.3712C88.2301 28.3712 86.9352 28.0104 85.7499 27.2889C84.5774 26.5674 83.6304 25.6075 82.9089 24.4093C82.2003 23.1981 81.8459 21.8711 81.8459 20.428L81.8846 7.88518C81.8846 6.41637 82.2389 5.09573 82.9476 3.92326C83.6433 2.73791 84.5839 1.79092 85.7692 1.08228C86.9546 0.36076 88.243 0 89.6345 0C91.0775 0 92.3724 0.354318 93.5191 1.06295C94.6787 1.77159 95.6064 2.72503 96.3021 3.92326C97.0107 5.10862 97.3651 6.42926 97.3651 7.88518L97.4037 20.428C97.4037 21.8711 97.0558 23.1917 96.3601 24.3899C95.6515 25.6011 94.7109 26.5674 93.5384 27.2889C92.366 28.0104 91.0647 28.3712 89.6345 28.3712ZM89.6345 23.5976C90.4333 23.5976 91.1291 23.2755 91.7217 22.6312C92.3144 21.9741 92.6108 21.2397 92.6108 20.428L92.5721 7.88518C92.5721 7.00905 92.2951 6.2682 91.7411 5.66264C91.1871 5.05708 90.4849 4.7543 89.6345 4.7543C88.8228 4.7543 88.127 5.05064 87.5472 5.64332C86.9674 6.23599 86.6776 6.98328 86.6776 7.88518V20.428C86.6776 21.2913 86.9674 22.0386 87.5472 22.6699C88.127 23.2883 88.8228 23.5976 89.6345 23.5976Z" fill="#FFB2F6"/>
<path d="M61.4473 28.3712C60.0171 28.3712 58.7287 28.0169 57.582 27.3082C56.4224 26.5996 55.4883 25.6462 54.7796 24.4479C54.0839 23.2497 53.736 21.9097 53.736 20.428V7.88518C53.736 6.44214 54.0903 5.12794 54.799 3.94259C55.4947 2.74435 56.4288 1.79092 57.6013 1.08228C58.7738 0.36076 60.0558 0 61.4473 0C62.9032 0 64.2174 0.347876 65.3899 1.04363C66.5623 1.75226 67.49 2.69926 68.1729 3.88461C68.8686 5.06996 69.2165 6.40349 69.2165 7.88518V9.70186C69.2165 9.80494 69.1521 9.85648 69.0232 9.85648H64.5781C64.4751 9.85648 64.4235 9.80494 64.4235 9.70186V8.1944C64.4235 7.18943 64.1401 6.35839 63.5732 5.70129C63.0063 5.0442 62.2976 4.71565 61.4473 4.71565C60.6871 4.71565 60.0107 5.03131 59.418 5.66264C58.8253 6.29397 58.529 7.03482 58.529 7.88518V20.428C58.529 21.2913 58.8189 22.0386 59.3987 22.6699C59.9785 23.2883 60.6613 23.5976 61.4473 23.5976C62.2976 23.5976 63.0063 23.2948 63.5732 22.6892C64.1401 22.0708 64.4235 21.317 64.4235 20.428V18.4761H61.6599C61.5181 18.4761 61.4473 18.4116 61.4473 18.2828V13.857C61.4473 13.7282 61.5181 13.6638 61.6599 13.6638H69.0619C69.1649 13.6638 69.2165 13.7282 69.2165 13.857V20.428C69.2165 21.9097 68.8686 23.2497 68.1729 24.4479C67.4642 25.6462 66.5301 26.5996 65.3705 27.3082C64.2109 28.0169 62.9032 28.3712 61.4473 28.3712Z" fill="#FFB2F6"/>
<path d="M36.275 27.9847H31.7333C31.6431 27.9847 31.598 27.9332 31.598 27.8301L31.6367 16.5821L26.3412 0.599191C26.3155 0.496117 26.3541 0.44458 26.4572 0.44458H30.8636C30.9925 0.44458 31.0698 0.496117 31.0955 0.599191L34.0138 11.248L36.9901 0.599191C37.0159 0.496117 37.0803 0.44458 37.1833 0.44458H41.6284C41.7315 0.44458 41.7702 0.496117 41.7444 0.599191L36.391 16.4275L36.4296 27.8301C36.4296 27.9332 36.3781 27.9847 36.275 27.9847Z" fill="#FFB2F6"/>
<path d="M14.9487 27.9847H2.15461C2.05154 27.9847 2 27.9203 2 27.7915L2.03865 0.637844C2.03865 0.509001 2.10307 0.44458 2.23192 0.44458H6.63834C6.76718 0.44458 6.8316 0.509001 6.8316 0.637844L6.79295 23.1145H14.9487C15.0775 23.1145 15.142 23.1789 15.142 23.3077V27.7915C15.142 27.9203 15.0775 27.9847 14.9487 27.9847Z" fill="#FFB2F6"/>
</g>
<defs>
<filter id="filter0_dd_83_766" x="0" y="0" width="193" height="32.3711" filterUnits="userSpaceOnUse" color-interpolation-filters="sRGB">
<feFlood flood-opacity="0" result="BackgroundImageFix"/>
<feColorMatrix in="SourceAlpha" type="matrix" values="0 0 0 0 0 0 0 0 0 0 0 0 0 0 0 0 0 0 127 0" result="hardAlpha"/>
<feOffset dy="2"/>
<feGaussianBlur stdDeviation="1"/>
<feComposite in2="hardAlpha" operator="out"/>
<feColorMatrix type="matrix" values="0 0 0 0 0 0 0 0 0 0 0 0 0 0 0 0 0 0 0.25 0"/>
<feBlend mode="normal" in2="BackgroundImageFix" result="effect1_dropShadow_83_766"/>
<feColorMatrix in="SourceAlpha" type="matrix" values="0 0 0 0 0 0 0 0 0 0 0 0 0 0 0 0 0 0 127 0" result="hardAlpha"/>
<feOffset dy="2"/>
<feGaussianBlur stdDeviation="1"/>
<feComposite in2="hardAlpha" operator="out"/>
<feColorMatrix type="matrix" values="0 0 0 0 1 0 0 0 0 1 0 0 0 0 1 0 0 0 0.15 0"/>
<feBlend mode="normal" in2="effect1_dropShadow_83_766" result="effect2_dropShadow_83_766"/>
<feBlend mode="normal" in="SourceGraphic" in2="effect2_dropShadow_83_766" result="shape"/>
</filter>
</defs>
</svg>
