<svg width="46" height="83" viewBox="0 0 46 83" fill="none" xmlns="http://www.w3.org/2000/svg">
<g filter="url(#filter0_di_83_61)">
<path d="M14.1321 79H2.97927C2.39896 79 2.10881 78.7413 2.10881 78.2239L2 0.887018C2 0.295672 2.29016 0 2.87047 0H12.9352L31.7591 44.7389L31.215 0.887018C31.215 0.295672 31.5415 0 32.1943 0H43.2383C43.6736 0 43.8912 0.295672 43.8912 0.887018L44 78.3347C44 78.7782 43.8187 79 43.456 79H33.6632L14.3497 37.1993L15.1658 78.113C15.1658 78.7043 14.8212 79 14.1321 79Z" fill="#FF8E90"/>
</g>
<defs>
<filter id="filter0_di_83_61" x="0" y="0" width="46" height="84" filterUnits="userSpaceOnUse" color-interpolation-filters="sRGB">
<feFlood flood-opacity="0" result="BackgroundImageFix"/>
<feColorMatrix in="SourceAlpha" type="matrix" values="0 0 0 0 0 0 0 0 0 0 0 0 0 0 0 0 0 0 127 0" result="hardAlpha"/>
<feOffset dy="2"/>
<feGaussianBlur stdDeviation="1"/>
<feComposite in2="hardAlpha" operator="out"/>
<feColorMatrix type="matrix" values="0 0 0 0 0 0 0 0 0 0 0 0 0 0 0 0 0 0 0.25 0"/>
<feBlend mode="normal" in2="BackgroundImageFix" result="effect1_dropShadow_83_61"/>
<feBlend mode="normal" in="SourceGraphic" in2="effect1_dropShadow_83_61" result="shape"/>
<feColorMatrix in="SourceAlpha" type="matrix" values="0 0 0 0 0 0 0 0 0 0 0 0 0 0 0 0 0 0 127 0" result="hardAlpha"/>
<feOffset dy="5"/>
<feGaussianBlur stdDeviation="2.5"/>
<feComposite in2="hardAlpha" operator="arithmetic" k2="-1" k3="1"/>
<feColorMatrix type="matrix" values="0 0 0 0 1 0 0 0 0 1 0 0 0 0 1 0 0 0 0.35 0"/>
<feBlend mode="normal" in2="shape" result="effect2_innerShadow_83_61"/>
</filter>
</defs>
</svg>
