<svg width="47" height="83" viewBox="0 0 47 83" fill="none" xmlns="http://www.w3.org/2000/svg">
<g filter="url(#filter0_di_83_291)">
<path d="M23.5267 79C19.6451 79 16.0663 77.9955 12.7901 75.9864C9.54948 73.9773 6.93209 71.3045 4.93789 67.968C2.9793 64.5956 2 60.9003 2 56.8822L2.10683 21.9564C2.10683 17.8665 3.08613 14.1891 5.04472 10.9244C6.9677 7.62375 9.56729 4.98683 12.8435 3.01362C16.1197 1.00454 19.6807 0 23.5267 0C27.5151 0 31.094 0.986603 34.2634 2.95981C37.4683 4.93302 40.0323 7.58787 41.9553 10.9244C43.9139 14.225 44.8932 17.9024 44.8932 21.9564L45 56.8822C45 60.9003 44.0385 64.5777 42.1155 67.9142C40.1569 71.2866 37.5573 73.9773 34.3168 75.9864C31.0762 77.9955 27.4795 79 23.5267 79ZM23.5267 65.7078C25.7346 65.7078 27.6576 64.8109 29.2957 63.017C30.9337 61.1873 31.7528 59.1424 31.7528 56.8822L31.646 21.9564C31.646 19.5168 30.8803 17.4539 29.3491 15.7677C27.8178 14.0815 25.877 13.2384 23.5267 13.2384C21.2832 13.2384 19.3602 14.0636 17.7578 15.7139C16.1553 17.3642 15.354 19.445 15.354 21.9564V56.8822C15.354 59.2859 16.1553 61.3667 17.7578 63.1247C19.3602 64.8467 21.2832 65.7078 23.5267 65.7078Z" fill="#FFE05E"/>
</g>
<defs>
<filter id="filter0_di_83_291" x="0" y="0" width="47" height="84" filterUnits="userSpaceOnUse" color-interpolation-filters="sRGB">
<feFlood flood-opacity="0" result="BackgroundImageFix"/>
<feColorMatrix in="SourceAlpha" type="matrix" values="0 0 0 0 0 0 0 0 0 0 0 0 0 0 0 0 0 0 127 0" result="hardAlpha"/>
<feOffset dy="2"/>
<feGaussianBlur stdDeviation="1"/>
<feComposite in2="hardAlpha" operator="out"/>
<feColorMatrix type="matrix" values="0 0 0 0 0 0 0 0 0 0 0 0 0 0 0 0 0 0 0.25 0"/>
<feBlend mode="normal" in2="BackgroundImageFix" result="effect1_dropShadow_83_291"/>
<feBlend mode="normal" in="SourceGraphic" in2="effect1_dropShadow_83_291" result="shape"/>
<feColorMatrix in="SourceAlpha" type="matrix" values="0 0 0 0 0 0 0 0 0 0 0 0 0 0 0 0 0 0 127 0" result="hardAlpha"/>
<feOffset dy="5"/>
<feGaussianBlur stdDeviation="2.5"/>
<feComposite in2="hardAlpha" operator="arithmetic" k2="-1" k3="1"/>
<feColorMatrix type="matrix" values="0 0 0 0 1 0 0 0 0 1 0 0 0 0 1 0 0 0 0.35 0"/>
<feBlend mode="normal" in2="shape" result="effect2_innerShadow_83_291"/>
</filter>
</defs>
</svg>
