<svg width="49" height="83" viewBox="0 0 49 83" fill="none" xmlns="http://www.w3.org/2000/svg">
<g filter="url(#filter0_di_83_298)">
<path d="M15.2841 79H2.55351C2.1845 79 2 78.8152 2 78.4456L2.2214 0.443509C2.2214 0.147836 2.369 0 2.66421 0H24.4723C31.4096 0 36.8893 2.12515 40.9114 6.37544C44.9705 10.5888 47 16.3359 47 23.6168C47 28.9389 45.9483 33.5773 43.845 37.5319C41.7048 41.4496 38.9373 44.4802 35.5424 46.6239C32.1476 48.7675 28.4576 49.8393 24.4723 49.8393H15.8376V78.4456C15.8376 78.8152 15.6531 79 15.2841 79ZM24.4723 13.4716L15.8376 13.5825V36.0905H24.4723C26.8708 36.0905 28.9557 34.9448 30.7269 32.6533C32.4982 30.3249 33.3838 27.3127 33.3838 23.6168C33.3838 20.6601 32.5904 18.2393 31.0037 16.3544C29.417 14.4325 27.2399 13.4716 24.4723 13.4716Z" fill="#FF8E90"/>
</g>
<defs>
<filter id="filter0_di_83_298" x="0" y="0" width="49" height="84" filterUnits="userSpaceOnUse" color-interpolation-filters="sRGB">
<feFlood flood-opacity="0" result="BackgroundImageFix"/>
<feColorMatrix in="SourceAlpha" type="matrix" values="0 0 0 0 0 0 0 0 0 0 0 0 0 0 0 0 0 0 127 0" result="hardAlpha"/>
<feOffset dy="2"/>
<feGaussianBlur stdDeviation="1"/>
<feComposite in2="hardAlpha" operator="out"/>
<feColorMatrix type="matrix" values="0 0 0 0 0 0 0 0 0 0 0 0 0 0 0 0 0 0 0.25 0"/>
<feBlend mode="normal" in2="BackgroundImageFix" result="effect1_dropShadow_83_298"/>
<feBlend mode="normal" in="SourceGraphic" in2="effect1_dropShadow_83_298" result="shape"/>
<feColorMatrix in="SourceAlpha" type="matrix" values="0 0 0 0 0 0 0 0 0 0 0 0 0 0 0 0 0 0 127 0" result="hardAlpha"/>
<feOffset dy="5"/>
<feGaussianBlur stdDeviation="2.5"/>
<feComposite in2="hardAlpha" operator="arithmetic" k2="-1" k3="1"/>
<feColorMatrix type="matrix" values="0 0 0 0 1 0 0 0 0 1 0 0 0 0 1 0 0 0 0.35 0"/>
<feBlend mode="normal" in2="shape" result="effect2_innerShadow_83_298"/>
</filter>
</defs>
</svg>
