<svg width="50" height="83" viewBox="0 0 50 83" fill="none" xmlns="http://www.w3.org/2000/svg">
<g filter="url(#filter0_di_83_292)">
<path d="M15.2374 79H2.44125C2.14708 79 2 78.8152 2 78.4456L2.22062 0.443509C2.22062 0.147836 2.36771 0 2.66187 0H25.4964C29.5779 0 33.3285 0.997895 36.7482 2.99368C40.1679 4.98947 42.8889 7.66901 44.9113 11.0323C46.9704 14.3956 48 18.2023 48 22.4526C48 25.2246 47.5771 27.7378 46.7314 29.9923C45.8857 32.2468 44.8929 34.1502 43.753 35.7025C42.6499 37.2547 41.6387 38.4005 40.7194 39.1396C44.801 43.6856 46.8417 49.0262 46.8417 55.1614L46.952 78.4456C46.952 78.8152 46.7682 79 46.4005 79H33.6043C33.3102 79 33.1631 78.8891 33.1631 78.6674V55.1614C33.1631 52.4264 32.207 50.0611 30.295 48.0653C28.3829 46.0695 26.0296 45.0716 23.235 45.0716H15.789L15.6787 78.4456C15.6787 78.8152 15.5316 79 15.2374 79ZM25.4964 13.5825H15.789V31.4337H25.4964C27.813 31.4337 29.8721 30.5651 31.6739 28.8281C33.5124 27.091 34.4317 24.9658 34.4317 22.4526C34.4317 20.0503 33.5492 17.9806 31.7842 16.2435C30.0192 14.4695 27.9233 13.5825 25.4964 13.5825Z" fill="#FFE05E"/>
</g>
<defs>
<filter id="filter0_di_83_292" x="0" y="0" width="50" height="84" filterUnits="userSpaceOnUse" color-interpolation-filters="sRGB">
<feFlood flood-opacity="0" result="BackgroundImageFix"/>
<feColorMatrix in="SourceAlpha" type="matrix" values="0 0 0 0 0 0 0 0 0 0 0 0 0 0 0 0 0 0 127 0" result="hardAlpha"/>
<feOffset dy="2"/>
<feGaussianBlur stdDeviation="1"/>
<feComposite in2="hardAlpha" operator="out"/>
<feColorMatrix type="matrix" values="0 0 0 0 0 0 0 0 0 0 0 0 0 0 0 0 0 0 0.25 0"/>
<feBlend mode="normal" in2="BackgroundImageFix" result="effect1_dropShadow_83_292"/>
<feBlend mode="normal" in="SourceGraphic" in2="effect1_dropShadow_83_292" result="shape"/>
<feColorMatrix in="SourceAlpha" type="matrix" values="0 0 0 0 0 0 0 0 0 0 0 0 0 0 0 0 0 0 127 0" result="hardAlpha"/>
<feOffset dy="5"/>
<feGaussianBlur stdDeviation="2.5"/>
<feComposite in2="hardAlpha" operator="arithmetic" k2="-1" k3="1"/>
<feColorMatrix type="matrix" values="0 0 0 0 1 0 0 0 0 1 0 0 0 0 1 0 0 0 0.35 0"/>
<feBlend mode="normal" in2="shape" result="effect2_innerShadow_83_292"/>
</filter>
</defs>
</svg>
