<svg width="47" height="83" viewBox="0 0 47 83" fill="none" xmlns="http://www.w3.org/2000/svg">
<g filter="url(#filter0_di_83_55)">
<path d="M23.4732 79C19.582 79 15.9942 77.9941 12.7098 75.9823C9.46119 73.9704 6.85513 71.294 4.89166 67.9529C2.96389 64.5759 2 60.8756 2 56.852V51.7865C2 51.3913 2.1785 51.1937 2.53549 51.1937H14.8518C15.1374 51.1937 15.2802 51.3913 15.2802 51.7865V56.852C15.2802 59.259 16.0834 61.3427 17.6899 63.103C19.2964 64.8274 21.2242 65.6896 23.4732 65.6896C25.758 65.6896 27.7036 64.8095 29.3101 63.0491C30.9166 61.2528 31.7198 59.1871 31.7198 56.852C31.7198 54.1576 29.9705 51.8045 26.472 49.7926C25.9008 49.4334 25.1511 49.0023 24.2229 48.4993C23.3304 47.9604 22.2594 47.3497 21.01 46.6671C19.7605 45.9845 18.5467 45.3199 17.3686 44.6733C16.1905 43.9907 15.0482 43.344 13.9415 42.7333C9.94313 40.3622 6.96222 37.3984 4.99875 33.8417C3.07098 30.2492 2.1071 26.2256 2.1071 21.7708C2.1071 17.6753 3.10668 13.975 5.10585 10.6698C7.10502 7.40064 9.71108 4.81401 12.924 2.90996C16.1727 0.969986 19.6891 0 23.4732 0C27.3645 0 30.9344 0.969986 34.1831 2.90996C37.4317 4.88586 40.0199 7.50841 41.9477 10.7776C43.9112 14.0468 44.8929 17.7112 44.8929 21.7708V30.824C44.8929 31.1114 44.7501 31.2551 44.4645 31.2551H32.1482C31.8626 31.2551 31.7198 31.1114 31.7198 30.824L31.6127 21.7708C31.6127 19.1842 30.8095 17.0825 29.203 15.4659C27.5965 13.8492 25.6866 13.0409 23.4732 13.0409C21.2242 13.0409 19.2964 13.9031 17.6899 15.6276C16.0834 17.352 15.2802 19.3997 15.2802 21.7708C15.2802 24.1778 15.78 26.1896 16.7796 27.8063C17.8149 29.4229 19.6891 30.9677 22.4022 32.4407C22.6878 32.5844 23.3483 32.9436 24.3836 33.5184C25.4188 34.0932 26.5612 34.7399 27.8107 35.4584C29.0959 36.141 30.2561 36.7697 31.2914 37.3445C32.3267 37.8834 32.9514 38.2067 33.1656 38.3145C36.807 40.3622 39.6808 42.877 41.787 45.8588C43.929 48.8406 45 52.505 45 56.852C45 61.0553 44.0361 64.8274 42.1083 68.1685C40.1449 71.5095 37.5388 74.1501 34.2902 76.09C31.0415 78.03 27.4359 79 23.4732 79Z" fill="#FF8E90"/>
</g>
<defs>
<filter id="filter0_di_83_55" x="0" y="0" width="47" height="84" filterUnits="userSpaceOnUse" color-interpolation-filters="sRGB">
<feFlood flood-opacity="0" result="BackgroundImageFix"/>
<feColorMatrix in="SourceAlpha" type="matrix" values="0 0 0 0 0 0 0 0 0 0 0 0 0 0 0 0 0 0 127 0" result="hardAlpha"/>
<feOffset dy="2"/>
<feGaussianBlur stdDeviation="1"/>
<feComposite in2="hardAlpha" operator="out"/>
<feColorMatrix type="matrix" values="0 0 0 0 0 0 0 0 0 0 0 0 0 0 0 0 0 0 0.25 0"/>
<feBlend mode="normal" in2="BackgroundImageFix" result="effect1_dropShadow_83_55"/>
<feBlend mode="normal" in="SourceGraphic" in2="effect1_dropShadow_83_55" result="shape"/>
<feColorMatrix in="SourceAlpha" type="matrix" values="0 0 0 0 0 0 0 0 0 0 0 0 0 0 0 0 0 0 127 0" result="hardAlpha"/>
<feOffset dy="5"/>
<feGaussianBlur stdDeviation="2.5"/>
<feComposite in2="hardAlpha" operator="arithmetic" k2="-1" k3="1"/>
<feColorMatrix type="matrix" values="0 0 0 0 1 0 0 0 0 1 0 0 0 0 1 0 0 0 0.35 0"/>
<feBlend mode="normal" in2="shape" result="effect2_innerShadow_83_55"/>
</filter>
</defs>
</svg>
