<svg width="48" height="83" viewBox="0 0 48 83" fill="none" xmlns="http://www.w3.org/2000/svg">
<g filter="url(#filter0_di_83_294)">
<path d="M23.6091 79C19.6933 79 16.0828 77.9941 12.7776 75.9823C9.50841 73.9704 6.88586 71.294 4.90996 67.9529C2.96999 64.5759 2 60.8756 2 56.852V51.7865C2 51.3913 2.17963 51.1937 2.53888 51.1937H14.9332C15.2206 51.1937 15.3643 51.3913 15.3643 51.7865V56.852C15.3643 59.259 16.1726 61.3427 17.7892 63.103C19.4059 64.8274 21.3458 65.6896 23.6091 65.6896C25.9084 65.6896 27.8663 64.8095 29.4829 63.0491C31.0996 61.2528 31.9079 59.1871 31.9079 56.852C31.9079 54.1576 30.1476 51.8045 26.6269 49.7926C26.0521 49.4334 25.2976 49.0023 24.3636 48.4993C23.4654 47.9604 22.3877 47.3497 21.1303 46.6671C19.8729 45.9845 18.6514 45.3199 17.4659 44.6733C16.2804 43.9907 15.1307 43.344 14.0171 42.7333C9.99341 40.3622 6.99363 37.3984 5.01774 33.8417C3.07776 30.2492 2.10778 26.2256 2.10778 21.7708C2.10778 17.6753 3.11369 13.975 5.12551 10.6698C7.13734 7.40064 9.75989 4.81401 12.9932 2.90996C16.2624 0.969986 19.801 0 23.6091 0C27.525 0 31.1176 0.969986 34.3868 2.90996C37.656 4.88586 40.2606 7.50841 42.2005 10.7776C44.1764 14.0468 45.1644 17.7112 45.1644 21.7708V30.824C45.1644 31.1114 45.0207 31.2551 44.7333 31.2551H32.339C32.0516 31.2551 31.9079 31.1114 31.9079 30.824L31.8001 21.7708C31.8001 19.1842 30.9918 17.0825 29.3752 15.4659C27.7585 13.8492 25.8365 13.0409 23.6091 13.0409C21.3458 13.0409 19.4059 13.9031 17.7892 15.6276C16.1726 17.352 15.3643 19.3997 15.3643 21.7708C15.3643 24.1778 15.8672 26.1896 16.8731 27.8063C17.915 29.4229 19.801 30.9677 22.5314 32.4407C22.8188 32.5844 23.4834 32.9436 24.5252 33.5184C25.5671 34.0932 26.7167 34.7399 27.9741 35.4584C29.2674 36.141 30.435 36.7697 31.4768 37.3445C32.5186 37.8834 33.1473 38.2067 33.3629 38.3145C37.0273 40.3622 39.9193 42.877 42.0389 45.8588C44.1944 48.8406 45.2722 52.505 45.2722 56.852C45.2722 61.0553 44.3022 64.8274 42.3622 68.1685C40.3863 71.5095 37.7638 74.1501 34.4945 76.09C31.2253 78.03 27.5969 79 23.6091 79Z" fill="#FFE05E"/>
</g>
<defs>
<filter id="filter0_di_83_294" x="0" y="0" width="47.2722" height="84" filterUnits="userSpaceOnUse" color-interpolation-filters="sRGB">
<feFlood flood-opacity="0" result="BackgroundImageFix"/>
<feColorMatrix in="SourceAlpha" type="matrix" values="0 0 0 0 0 0 0 0 0 0 0 0 0 0 0 0 0 0 127 0" result="hardAlpha"/>
<feOffset dy="2"/>
<feGaussianBlur stdDeviation="1"/>
<feComposite in2="hardAlpha" operator="out"/>
<feColorMatrix type="matrix" values="0 0 0 0 0 0 0 0 0 0 0 0 0 0 0 0 0 0 0.25 0"/>
<feBlend mode="normal" in2="BackgroundImageFix" result="effect1_dropShadow_83_294"/>
<feBlend mode="normal" in="SourceGraphic" in2="effect1_dropShadow_83_294" result="shape"/>
<feColorMatrix in="SourceAlpha" type="matrix" values="0 0 0 0 0 0 0 0 0 0 0 0 0 0 0 0 0 0 127 0" result="hardAlpha"/>
<feOffset dy="5"/>
<feGaussianBlur stdDeviation="2.5"/>
<feComposite in2="hardAlpha" operator="arithmetic" k2="-1" k3="1"/>
<feColorMatrix type="matrix" values="0 0 0 0 1 0 0 0 0 1 0 0 0 0 1 0 0 0 0.35 0"/>
<feBlend mode="normal" in2="shape" result="effect2_innerShadow_83_294"/>
</filter>
</defs>
</svg>
