<svg width="97" height="97" viewBox="0 0 97 97" fill="none" xmlns="http://www.w3.org/2000/svg">
<g filter="url(#filter0_di_83_228)">
<path fill-rule="evenodd" clip-rule="evenodd" d="M68 19.5C68 23.4454 66.8283 27.117 64.8139 30.1861C67.8829 28.1717 71.5546 27 75.5 27C86.2696 27 95 35.7304 95 46.5C95 57.2696 86.2696 66 75.5 66C71.5546 66 67.8829 64.8283 64.8139 62.8139C66.8283 65.8829 68 69.5546 68 73.5C68 84.2696 59.2696 93 48.5 93C37.7304 93 29 84.2696 29 73.5C29 69.5546 30.1717 65.8829 32.1861 62.8139C29.117 64.8283 25.4454 66 21.5 66C10.7304 66 2 57.2696 2 46.5C2 35.7304 10.7304 27 21.5 27C25.4454 27 29.117 28.1717 32.1861 30.1861C30.1717 27.117 29 23.4454 29 19.5C29 8.73045 37.7304 0 48.5 0C59.2696 0 68 8.73045 68 19.5Z" fill="#FF89A5"/>
</g>
<defs>
<filter id="filter0_di_83_228" x="0" y="0" width="97" height="98" filterUnits="userSpaceOnUse" color-interpolation-filters="sRGB">
<feFlood flood-opacity="0" result="BackgroundImageFix"/>
<feColorMatrix in="SourceAlpha" type="matrix" values="0 0 0 0 0 0 0 0 0 0 0 0 0 0 0 0 0 0 127 0" result="hardAlpha"/>
<feOffset dy="2"/>
<feGaussianBlur stdDeviation="1"/>
<feComposite in2="hardAlpha" operator="out"/>
<feColorMatrix type="matrix" values="0 0 0 0 0 0 0 0 0 0 0 0 0 0 0 0 0 0 0.25 0"/>
<feBlend mode="normal" in2="BackgroundImageFix" result="effect1_dropShadow_83_228"/>
<feBlend mode="normal" in="SourceGraphic" in2="effect1_dropShadow_83_228" result="shape"/>
<feColorMatrix in="SourceAlpha" type="matrix" values="0 0 0 0 0 0 0 0 0 0 0 0 0 0 0 0 0 0 127 0" result="hardAlpha"/>
<feOffset dy="5"/>
<feGaussianBlur stdDeviation="2.5"/>
<feComposite in2="hardAlpha" operator="arithmetic" k2="-1" k3="1"/>
<feColorMatrix type="matrix" values="0 0 0 0 1 0 0 0 0 1 0 0 0 0 1 0 0 0 0.35 0"/>
<feBlend mode="normal" in2="shape" result="effect2_innerShadow_83_228"/>
</filter>
</defs>
</svg>
