<svg width="96" height="97" viewBox="0 0 96 97" fill="none" xmlns="http://www.w3.org/2000/svg">
<g filter="url(#filter0_di_83_132)">
<path fill-rule="evenodd" clip-rule="evenodd" d="M67.765 4.2419C62.1092 4.32609 57.5924 8.97932 57.6766 14.6352L57.7165 17.311C57.7165 17.3159 57.7126 17.32 57.7077 17.32C57.7028 17.3201 57.6989 17.3241 57.699 17.329L57.9618 34.984C57.985 36.5403 59.2653 37.7831 60.8216 37.7599L81.1282 37.4577C86.7841 37.3735 91.3008 32.7202 91.2167 27.0644C91.1325 21.4085 86.4792 16.8918 80.8234 16.9759C79.3736 16.9975 78.1808 15.8397 78.1592 14.3899L78.1583 14.3303C78.0741 8.67445 73.4209 4.15771 67.765 4.2419Z" fill="#FF0206"/>
</g>
<g filter="url(#filter1_di_83_132)">
<path fill-rule="evenodd" clip-rule="evenodd" d="M39 93C59.4345 93 76 76.4345 76 56C76 35.5655 59.4345 19 39 19C18.5655 19 2 35.5655 2 56C2 76.4345 18.5655 93 39 93ZM39.4302 80.9535C53.4493 80.9535 64.814 69.5888 64.814 55.5698C64.814 41.5507 53.4493 30.186 39.4302 30.186C25.4112 30.186 14.0465 41.5507 14.0465 55.5698C14.0465 69.5888 25.4112 80.9535 39.4302 80.9535Z" fill="#FFB2F6"/>
</g>
<defs>
<filter id="filter0_di_83_132" x="55.6754" y="4.24072" width="37.5424" height="38.5195" filterUnits="userSpaceOnUse" color-interpolation-filters="sRGB">
<feFlood flood-opacity="0" result="BackgroundImageFix"/>
<feColorMatrix in="SourceAlpha" type="matrix" values="0 0 0 0 0 0 0 0 0 0 0 0 0 0 0 0 0 0 127 0" result="hardAlpha"/>
<feOffset dy="2"/>
<feGaussianBlur stdDeviation="1"/>
<feComposite in2="hardAlpha" operator="out"/>
<feColorMatrix type="matrix" values="0 0 0 0 0 0 0 0 0 0 0 0 0 0 0 0 0 0 0.25 0"/>
<feBlend mode="normal" in2="BackgroundImageFix" result="effect1_dropShadow_83_132"/>
<feBlend mode="normal" in="SourceGraphic" in2="effect1_dropShadow_83_132" result="shape"/>
<feColorMatrix in="SourceAlpha" type="matrix" values="0 0 0 0 0 0 0 0 0 0 0 0 0 0 0 0 0 0 127 0" result="hardAlpha"/>
<feOffset dy="5"/>
<feGaussianBlur stdDeviation="2.5"/>
<feComposite in2="hardAlpha" operator="arithmetic" k2="-1" k3="1"/>
<feColorMatrix type="matrix" values="0 0 0 0 1 0 0 0 0 1 0 0 0 0 1 0 0 0 0.35 0"/>
<feBlend mode="normal" in2="shape" result="effect2_innerShadow_83_132"/>
</filter>
<filter id="filter1_di_83_132" x="0" y="19" width="78" height="78" filterUnits="userSpaceOnUse" color-interpolation-filters="sRGB">
<feFlood flood-opacity="0" result="BackgroundImageFix"/>
<feColorMatrix in="SourceAlpha" type="matrix" values="0 0 0 0 0 0 0 0 0 0 0 0 0 0 0 0 0 0 127 0" result="hardAlpha"/>
<feOffset dy="2"/>
<feGaussianBlur stdDeviation="1"/>
<feComposite in2="hardAlpha" operator="out"/>
<feColorMatrix type="matrix" values="0 0 0 0 0 0 0 0 0 0 0 0 0 0 0 0 0 0 0.25 0"/>
<feBlend mode="normal" in2="BackgroundImageFix" result="effect1_dropShadow_83_132"/>
<feBlend mode="normal" in="SourceGraphic" in2="effect1_dropShadow_83_132" result="shape"/>
<feColorMatrix in="SourceAlpha" type="matrix" values="0 0 0 0 0 0 0 0 0 0 0 0 0 0 0 0 0 0 127 0" result="hardAlpha"/>
<feOffset dy="2"/>
<feGaussianBlur stdDeviation="1"/>
<feComposite in2="hardAlpha" operator="arithmetic" k2="-1" k3="1"/>
<feColorMatrix type="matrix" values="0 0 0 0 1 0 0 0 0 1 0 0 0 0 1 0 0 0 0.15 0"/>
<feBlend mode="normal" in2="shape" result="effect2_innerShadow_83_132"/>
</filter>
</defs>
</svg>
