<svg width="100" height="98" viewBox="0 0 100 98" fill="none" xmlns="http://www.w3.org/2000/svg">
<g filter="url(#filter0_di_83_451)">
<path fill-rule="evenodd" clip-rule="evenodd" d="M59.9058 18.8247C61.1342 16.9194 61.8469 14.6505 61.847 12.215C61.847 5.46885 56.3779 0 49.6315 0C42.885 0 37.416 5.46884 37.416 12.215C37.416 14.6501 38.1286 16.9188 39.3566 18.8239L39.3242 18.8872C41.2854 22.3193 42.4894 27.4124 43.2251 32.1151C40.4275 28.813 37.6343 24.8351 36.4612 21.0557C36.1562 18.549 35.0741 16.1146 33.2044 14.1405C28.5652 9.24246 20.8336 9.03263 15.9355 13.6719C11.0374 18.3111 10.8275 26.0427 15.4667 30.9407C17.1269 32.6936 19.1831 33.846 21.3637 34.3907C25.4691 35.6492 30.9172 38.3199 35.5802 40.8226C30.5807 40.4104 24.9091 39.4886 21.1185 37.4854C19.1546 36.1377 16.777 35.3491 14.2152 35.3491C7.46892 35.3491 2 40.818 2 47.5642C2 54.3105 7.46892 59.7794 14.2152 59.7794C16.7804 59.7794 19.161 58.9886 21.1265 57.6376C24.7556 55.6952 30.2669 54.3074 35.2926 53.3629C31.7133 55.8109 27.467 58.4285 23.6818 59.9979C20.7506 60.2121 17.8872 61.4785 15.7069 63.7805C11.0677 68.6786 11.2776 76.4101 16.1757 81.0494C21.0738 85.6886 28.8054 85.4788 33.4446 80.5807C35.3285 78.5917 36.4128 76.1354 36.7082 73.6087C38.1541 69.0933 41.3895 63.4912 44.2634 59.0181C43.5221 63.6856 42.3361 69.3722 40.5414 73.6442C38.6086 75.8049 37.4335 78.6576 37.4335 81.7846C37.4335 88.5308 42.9026 93.9996 49.649 93.9996C56.3954 93.9996 61.8645 88.5308 61.8645 81.7846C61.8645 78.7136 60.7311 75.9072 58.8597 73.761C57.1199 69.5133 56.1444 63.8278 55.6022 59.1408C58.2305 63.4786 61.1191 68.7487 62.5715 73.0653C62.7105 75.876 63.8162 78.6528 65.9031 80.8562C70.5423 85.7543 78.2739 85.9641 83.172 81.3249C88.0701 76.6857 88.28 68.9541 83.6408 64.056C81.779 62.0904 79.4193 60.8798 76.9444 60.4346C72.7973 59.0005 67.4849 56.3084 62.9658 53.8248C68.0152 54.4073 73.8204 55.473 77.7527 57.4205C79.7944 58.9545 82.3325 59.8635 85.0829 59.8635C91.8291 59.8635 97.2981 54.3945 97.2981 47.6481C97.2981 40.9016 91.8291 35.4326 85.0829 35.4326C82.7146 35.4326 80.5037 36.1066 78.6316 37.2732L78.5944 37.2542C74.6112 39.5304 68.1527 40.7299 62.6623 41.3608C66.9791 38.9967 72.1554 36.3734 76.3485 34.8735C79.12 34.5672 81.8018 33.3155 83.8695 31.1325C88.5087 26.2344 88.2988 18.5029 83.4007 13.8636C78.5025 9.2244 70.771 9.43423 66.1318 14.3323C64.5388 16.0142 63.5175 18.0301 63.0615 20.1403L62.9912 20.1651C61.9612 24.3906 58.834 28.8518 55.8141 32.3891C56.6412 27.6112 57.9384 22.386 59.9378 18.8872L59.9058 18.8247Z" fill="#FFA1C2"/>
</g>
<defs>
<filter id="filter0_di_83_451" x="0" y="0" width="99.2981" height="97.9998" filterUnits="userSpaceOnUse" color-interpolation-filters="sRGB">
<feFlood flood-opacity="0" result="BackgroundImageFix"/>
<feColorMatrix in="SourceAlpha" type="matrix" values="0 0 0 0 0 0 0 0 0 0 0 0 0 0 0 0 0 0 127 0" result="hardAlpha"/>
<feOffset dy="2"/>
<feGaussianBlur stdDeviation="1"/>
<feComposite in2="hardAlpha" operator="out"/>
<feColorMatrix type="matrix" values="0 0 0 0 0 0 0 0 0 0 0 0 0 0 0 0 0 0 0.25 0"/>
<feBlend mode="normal" in2="BackgroundImageFix" result="effect1_dropShadow_83_451"/>
<feBlend mode="normal" in="SourceGraphic" in2="effect1_dropShadow_83_451" result="shape"/>
<feColorMatrix in="SourceAlpha" type="matrix" values="0 0 0 0 0 0 0 0 0 0 0 0 0 0 0 0 0 0 127 0" result="hardAlpha"/>
<feOffset dy="2"/>
<feGaussianBlur stdDeviation="1"/>
<feComposite in2="hardAlpha" operator="arithmetic" k2="-1" k3="1"/>
<feColorMatrix type="matrix" values="0 0 0 0 1 0 0 0 0 1 0 0 0 0 1 0 0 0 0.15 0"/>
<feBlend mode="normal" in2="shape" result="effect2_innerShadow_83_451"/>
</filter>
</defs>
</svg>
