<svg width="109" height="109" viewBox="0 0 109 109" fill="none" xmlns="http://www.w3.org/2000/svg">
<g filter="url(#filter0_di_83_727)">
<line x1="54.75" x2="54.75" y2="105" stroke="#FFA0C2" stroke-width="4"/>
<line x1="2" y1="52.25" x2="107" y2="52.25" stroke="#FFA0C2" stroke-width="4"/>
<mask id="path-3-inside-1_83_727" fill="white">
<path fill-rule="evenodd" clip-rule="evenodd" d="M54.3366 53.1642C58.64 50.0018 41.3473 19.9702 38.1849 15.6669C35.0225 11.3635 28.9704 10.4386 24.667 13.601C20.3637 16.7633 19.4387 22.8155 22.6011 27.1189C25.7635 31.4222 50.0333 56.3265 54.3366 53.1642ZM51.5889 49.289C51.5889 49.289 40.2377 22.2598 37.6206 18.6984C35.0034 15.137 30.2779 14.1633 27.0659 16.5237C23.8539 18.8841 23.3717 23.6846 25.9889 27.2461C28.606 30.8075 51.5889 49.289 51.5889 49.289Z"/>
</mask>
<path fill-rule="evenodd" clip-rule="evenodd" d="M54.3366 53.1642C58.64 50.0018 41.3473 19.9702 38.1849 15.6669C35.0225 11.3635 28.9704 10.4386 24.667 13.601C20.3637 16.7633 19.4387 22.8155 22.6011 27.1189C25.7635 31.4222 50.0333 56.3265 54.3366 53.1642ZM51.5889 49.289C51.5889 49.289 40.2377 22.2598 37.6206 18.6984C35.0034 15.137 30.2779 14.1633 27.0659 16.5237C23.8539 18.8841 23.3717 23.6846 25.9889 27.2461C28.606 30.8075 51.5889 49.289 51.5889 49.289Z" fill="#FFA0C2"/>
<path d="M38.1849 15.6669L38.9907 15.0747L38.9907 15.0747L38.1849 15.6669ZM54.3366 53.1642L54.9288 53.97L54.9288 53.97L54.3366 53.1642ZM24.667 13.601L25.2592 14.4068L25.2592 14.4068L24.667 13.601ZM22.6011 27.1189L21.7953 27.711L21.7953 27.711L22.6011 27.1189ZM37.6206 18.6984L38.4264 18.1062L38.4264 18.1062L37.6206 18.6984ZM51.5889 49.289L50.9622 50.0683L52.5109 48.9018L51.5889 49.289ZM27.0659 16.5237L26.4738 15.7179L26.4738 15.7179L27.0659 16.5237ZM37.3791 16.2591C38.9094 18.3415 43.9931 26.865 48.1643 35.2872C50.2478 39.494 52.0783 43.6258 53.1207 46.8812C53.6442 48.5159 53.9497 49.8722 54.0096 50.8807C54.0742 51.97 53.8349 52.2918 53.7444 52.3583L54.9288 53.97C55.9141 53.2459 56.0758 51.9374 56.0061 50.7623C55.9316 49.5063 55.5675 47.964 55.0255 46.2713C53.937 42.8719 52.0536 38.6339 49.9565 34.3996C45.7666 25.9396 40.6228 17.2956 38.9907 15.0747L37.3791 16.2591ZM25.2592 14.4068C29.1175 11.5715 34.5438 12.4007 37.3791 16.2591L38.9907 15.0747C35.5013 10.3263 28.8232 9.30574 24.0748 12.7952L25.2592 14.4068ZM23.4069 26.5267C20.5716 22.6684 21.4009 17.2421 25.2592 14.4068L24.0748 12.7952C19.3265 16.2846 18.3059 22.9626 21.7953 27.711L23.4069 26.5267ZM53.7444 52.3583C53.6461 52.4306 53.2491 52.5616 52.2038 52.1879C51.2362 51.8419 50.0023 51.1641 48.5627 50.2024C45.695 48.2866 42.2024 45.375 38.7139 42.2015C31.7229 35.8415 24.9264 28.5944 23.4069 26.5267L21.7953 27.711C23.4381 29.9466 30.3578 37.3034 37.3681 43.6809C40.8802 46.876 44.4596 49.8665 47.4517 51.8654C48.9419 52.8609 50.3348 53.6436 51.5305 54.0711C52.6485 54.4708 53.9513 54.6883 54.9288 53.97L53.7444 52.3583ZM36.8147 19.2905C37.3987 20.0851 38.5547 22.3388 40.0029 25.4074C41.4294 28.4303 43.0895 32.1334 44.6706 35.7315C46.2512 39.3284 47.7504 42.8149 48.8546 45.4025C49.4066 46.6962 49.8598 47.765 50.175 48.5101C50.3325 48.8827 50.4556 49.1744 50.5392 49.3729C50.581 49.4721 50.613 49.548 50.6344 49.5991C50.6452 49.6246 50.6533 49.6439 50.6587 49.6569C50.6615 49.6633 50.6635 49.6682 50.6649 49.6714C50.6655 49.673 50.666 49.6742 50.6664 49.675C50.6665 49.6754 50.6667 49.6757 50.6668 49.6759C50.6668 49.6761 50.6669 49.6762 51.5889 49.289C52.5109 48.9018 52.5108 48.9017 52.5107 48.9015C52.5106 48.9013 52.5105 48.9009 52.5103 48.9005C52.51 48.8997 52.5094 48.8984 52.5087 48.8968C52.5073 48.8934 52.5053 48.8885 52.5025 48.8819C52.497 48.8689 52.4888 48.8494 52.478 48.8236C52.4564 48.7722 52.4243 48.6959 52.3823 48.5963C52.2984 48.3971 52.175 48.1046 52.017 47.7311C51.7012 46.9843 51.2471 45.9135 50.6941 44.6176C49.5882 42.0259 48.086 38.5325 46.5017 34.9269C44.9178 31.3226 43.2494 27.6006 41.8116 24.5538C40.3953 21.5528 39.151 19.0923 38.4264 18.1062L36.8147 19.2905ZM27.6581 17.3295C30.3488 15.3522 34.4656 16.0939 36.8147 19.2905L38.4264 18.1062C35.5412 14.18 30.2071 12.9744 26.4738 15.7179L27.6581 17.3295ZM26.7947 26.6539C24.4456 23.4572 24.9674 19.3068 27.6581 17.3295L26.4738 15.7179C22.7405 18.4613 22.2979 23.9121 25.1831 27.8382L26.7947 26.6539ZM51.5889 49.289C52.2155 48.5097 52.2155 48.5097 52.2153 48.5095C52.2151 48.5094 52.2149 48.5092 52.2145 48.5089C52.2139 48.5084 52.2128 48.5075 52.2115 48.5064C52.2087 48.5042 52.2046 48.5009 52.1991 48.4965C52.1881 48.4877 52.1717 48.4745 52.15 48.457C52.1066 48.422 52.0421 48.3701 51.9578 48.3021C51.7892 48.1661 51.5414 47.9662 51.225 47.7103C50.5922 47.1987 49.6852 46.4636 48.5884 45.5703C46.3948 43.7835 43.4433 41.3646 40.4109 38.8351C37.3772 36.3047 34.2677 33.6679 31.7559 31.444C30.4995 30.3317 29.3986 29.3279 28.5339 28.4953C27.6526 27.6469 27.0652 27.022 26.7947 26.6539L25.1831 27.8382C25.5669 28.3605 26.2702 29.0922 27.1467 29.9361C28.0398 30.796 29.1638 31.8203 30.4301 32.9415C32.9636 35.1845 36.0905 37.8359 39.1298 40.371C42.1701 42.9071 45.128 45.3312 47.3254 47.121C48.4242 48.016 49.3331 48.7526 49.9674 49.2655C50.2846 49.522 50.5331 49.7226 50.7025 49.8591C50.7871 49.9273 50.852 49.9796 50.8957 50.0148C50.9176 50.0324 50.9342 50.0457 50.9453 50.0547C50.9509 50.0592 50.9551 50.0626 50.9579 50.0648C50.9593 50.066 50.9604 50.0668 50.9611 50.0674C50.9615 50.0677 50.9617 50.0679 50.9619 50.0681C50.9621 50.0682 50.9622 50.0683 51.5889 49.289Z" fill="#FFA0C2" mask="url(#path-3-inside-1_83_727)"/>
<path d="M55.5957 51.2389L34.375 82.7389" stroke="#FFA0C2" stroke-width="3" stroke-linecap="round"/>
<path d="M53.4043 51.1875L74.625 82.6875" stroke="#FFA0C2" stroke-width="3" stroke-linecap="round"/>
<mask id="path-7-inside-2_83_727" fill="white">
<path fill-rule="evenodd" clip-rule="evenodd" d="M54.0299 53.1642C49.7266 50.0018 67.0193 19.9702 70.1816 15.6669C73.344 11.3635 79.3962 10.4386 83.6995 13.601C88.0029 16.7633 88.9278 22.8155 85.7654 27.1189C82.6031 31.4222 58.3333 56.3265 54.0299 53.1642ZM56.5269 49.289C56.5269 49.289 67.878 22.2598 70.4952 18.6984C73.1123 15.137 77.8378 14.1633 81.0498 16.5237C84.2618 18.8841 84.744 23.6846 82.1269 27.2461C79.5097 30.8075 56.5269 49.289 56.5269 49.289Z"/>
</mask>
<path fill-rule="evenodd" clip-rule="evenodd" d="M54.0299 53.1642C49.7266 50.0018 67.0193 19.9702 70.1816 15.6669C73.344 11.3635 79.3962 10.4386 83.6995 13.601C88.0029 16.7633 88.9278 22.8155 85.7654 27.1189C82.6031 31.4222 58.3333 56.3265 54.0299 53.1642ZM56.5269 49.289C56.5269 49.289 67.878 22.2598 70.4952 18.6984C73.1123 15.137 77.8378 14.1633 81.0498 16.5237C84.2618 18.8841 84.744 23.6846 82.1269 27.2461C79.5097 30.8075 56.5269 49.289 56.5269 49.289Z" fill="#FFA0C2"/>
<path d="M70.1816 15.6669L69.3758 15.0747L69.3758 15.0747L70.1816 15.6669ZM54.0299 53.1642L53.4378 53.97L53.4378 53.97L54.0299 53.1642ZM83.6995 13.601L84.2917 12.7952L84.2917 12.7952L83.6995 13.601ZM85.7654 27.1189L86.5713 27.711L86.5713 27.711L85.7654 27.1189ZM70.4952 18.6984L69.6894 18.1062L69.6894 18.1062L70.4952 18.6984ZM56.5269 49.289L55.6049 48.9018L57.1535 50.0683L56.5269 49.289ZM81.0498 16.5237L80.4576 17.3295L80.4576 17.3295L81.0498 16.5237ZM69.3758 15.0747C67.7438 17.2956 62.5999 25.9396 58.41 34.3996C56.3129 38.6339 54.4296 42.8719 53.3411 46.2713C52.7991 47.964 52.435 49.5063 52.3605 50.7623C52.2907 51.9374 52.4524 53.2459 53.4378 53.97L54.6221 52.3583C54.5316 52.2918 54.2923 51.97 54.3569 50.8807C54.4168 49.8722 54.7224 48.5159 55.2458 46.8812C56.2882 43.6258 58.1188 39.494 60.2023 35.2872C64.3734 26.865 69.4571 18.3415 70.9874 16.2591L69.3758 15.0747ZM84.2917 12.7952C79.5433 9.30574 72.8652 10.3263 69.3758 15.0747L70.9874 16.2591C73.8228 12.4007 79.249 11.5715 83.1074 14.4068L84.2917 12.7952ZM86.5713 27.711C90.0607 22.9626 89.0401 16.2846 84.2917 12.7952L83.1074 14.4068C86.9657 17.2421 87.795 22.6684 84.9596 26.5267L86.5713 27.711ZM53.4378 53.97C54.4152 54.6883 55.7181 54.4708 56.8361 54.0711C58.0317 53.6436 59.4247 52.8609 60.9149 51.8654C63.907 49.8665 67.4863 46.876 70.9985 43.6809C78.0088 37.3034 84.9284 29.9466 86.5713 27.711L84.9596 26.5267C83.4401 28.5944 76.6437 35.8415 69.6526 42.2015C66.1641 45.375 62.6715 48.2866 59.8039 50.2024C58.3642 51.1641 57.1303 51.8419 56.1627 52.1879C55.1174 52.5616 54.7204 52.4306 54.6221 52.3583L53.4378 53.97ZM69.6894 18.1062C68.9647 19.0923 67.7204 21.5528 66.3042 24.5538C64.8663 27.6006 63.1979 31.3226 61.6141 34.9269C60.0297 38.5325 58.5275 42.0259 57.4216 44.6176C56.8686 45.9135 56.4146 46.9843 56.0987 47.7311C55.9408 48.1046 55.8174 48.3971 55.7335 48.5963C55.6915 48.6959 55.6594 48.7722 55.6377 48.8236C55.6269 48.8494 55.6187 48.8689 55.6132 48.8819C55.6105 48.8885 55.6084 48.8934 55.607 48.8968C55.6063 48.8984 55.6058 48.8997 55.6054 48.9005C55.6052 48.9009 55.6051 48.9013 55.605 48.9015C55.6049 48.9017 55.6049 48.9018 56.5269 49.289C57.4489 49.6762 57.4489 49.6761 57.449 49.6759C57.4491 49.6757 57.4492 49.6754 57.4494 49.675C57.4497 49.6742 57.4502 49.673 57.4509 49.6714C57.4522 49.6682 57.4543 49.6633 57.457 49.6569C57.4624 49.6439 57.4706 49.6246 57.4813 49.5991C57.5028 49.548 57.5347 49.4721 57.5765 49.3729C57.6602 49.1744 57.7832 48.8827 57.9408 48.5101C58.2559 47.765 58.7091 46.6962 59.2611 45.4025C60.3653 42.8149 61.8645 39.3284 63.4451 35.7315C65.0262 32.1334 66.6863 28.4303 68.1129 25.4074C69.561 22.3388 70.7171 20.0851 71.301 19.2905L69.6894 18.1062ZM81.642 15.7179C77.9087 12.9744 72.5746 14.18 69.6894 18.1062L71.301 19.2905C73.6501 16.0939 77.7669 15.3522 80.4576 17.3295L81.642 15.7179ZM82.9327 27.8382C85.8179 23.9121 85.3753 18.4613 81.642 15.7179L80.4576 17.3295C83.1483 19.3068 83.6702 23.4572 81.321 26.6539L82.9327 27.8382ZM56.5269 49.289C57.1535 50.0683 57.1536 50.0682 57.1538 50.0681C57.154 50.0679 57.1543 50.0677 57.1546 50.0674C57.1554 50.0668 57.1564 50.066 57.1578 50.0648C57.1607 50.0626 57.1649 50.0592 57.1704 50.0547C57.1816 50.0457 57.1982 50.0324 57.22 50.0148C57.2638 49.9796 57.3286 49.9273 57.4133 49.8591C57.5826 49.7226 57.8311 49.522 58.1483 49.2655C58.7826 48.7526 59.6916 48.016 60.7904 47.121C62.9877 45.3312 65.9456 42.9071 68.986 40.371C72.0252 37.8359 75.1521 35.1845 77.6856 32.9415C78.9519 31.8203 80.0759 30.796 80.969 29.9361C81.8456 29.0922 82.5489 28.3605 82.9327 27.8382L81.321 26.6539C81.0505 27.022 80.4631 27.6469 79.5819 28.4953C78.7171 29.3279 77.6162 30.3317 76.3599 31.444C73.848 33.6679 70.7385 36.3047 67.7049 38.8351C64.6724 41.3646 61.721 43.7835 59.5273 45.5703C58.4306 46.4636 57.5235 47.1987 56.8907 47.7103C56.5744 47.9662 56.3266 48.1661 56.158 48.3021C56.0737 48.3701 56.0091 48.422 55.9657 48.457C55.944 48.4745 55.9276 48.4877 55.9166 48.4965C55.9112 48.5009 55.907 48.5042 55.9043 48.5064C55.9029 48.5075 55.9019 48.5084 55.9012 48.5089C55.9009 48.5092 55.9006 48.5094 55.9004 48.5095C55.9003 48.5097 55.9002 48.5097 56.5269 49.289Z" fill="#FFA0C2" mask="url(#path-7-inside-2_83_727)"/>
</g>
<defs>
<filter id="filter0_di_83_727" x="0" y="0" width="109" height="109" filterUnits="userSpaceOnUse" color-interpolation-filters="sRGB">
<feFlood flood-opacity="0" result="BackgroundImageFix"/>
<feColorMatrix in="SourceAlpha" type="matrix" values="0 0 0 0 0 0 0 0 0 0 0 0 0 0 0 0 0 0 127 0" result="hardAlpha"/>
<feOffset dy="2"/>
<feGaussianBlur stdDeviation="1"/>
<feComposite in2="hardAlpha" operator="out"/>
<feColorMatrix type="matrix" values="0 0 0 0 0 0 0 0 0 0 0 0 0 0 0 0 0 0 0.25 0"/>
<feBlend mode="normal" in2="BackgroundImageFix" result="effect1_dropShadow_83_727"/>
<feBlend mode="normal" in="SourceGraphic" in2="effect1_dropShadow_83_727" result="shape"/>
<feColorMatrix in="SourceAlpha" type="matrix" values="0 0 0 0 0 0 0 0 0 0 0 0 0 0 0 0 0 0 127 0" result="hardAlpha"/>
<feOffset dy="2"/>
<feGaussianBlur stdDeviation="1"/>
<feComposite in2="hardAlpha" operator="arithmetic" k2="-1" k3="1"/>
<feColorMatrix type="matrix" values="0 0 0 0 1 0 0 0 0 1 0 0 0 0 1 0 0 0 0.15 0"/>
<feBlend mode="normal" in2="shape" result="effect2_innerShadow_83_727"/>
</filter>
</defs>
</svg>
