<svg width="80" height="77" viewBox="0 0 80 77" fill="none" xmlns="http://www.w3.org/2000/svg">
<g filter="url(#filter0_di_83_752)">
<path fill-rule="evenodd" clip-rule="evenodd" d="M14 0C7.37258 0 2 5.37259 2 12V44.4091C2 51.0365 7.3726 56.4091 14 56.4091H65.4886C72.1161 56.4091 77.4886 51.0365 77.4886 44.4091V12C77.4886 5.37258 72.116 0 65.4886 0H14ZM62.5568 56.4092V72.9997L47.4269 56.4092H62.5568Z" fill="white"/>
</g>
<g filter="url(#filter1_di_83_752)">
<path fill-rule="evenodd" clip-rule="evenodd" d="M22.4409 16.2932C18.4136 20.3206 18.4136 26.8502 22.4409 30.8776L24.3463 32.7829C24.3499 32.7865 24.3499 32.7923 24.3463 32.7959V32.7959C24.3427 32.7994 24.3427 32.8052 24.3463 32.8088L36.8028 45.2654C37.9744 46.4369 39.8739 46.4369 41.0455 45.2654L55.3903 30.9205C59.4177 26.8931 59.4177 20.3635 55.3903 16.3362C51.363 12.3088 44.8334 12.3088 40.806 16.3362V16.3362C39.7738 17.3683 38.1004 17.3683 37.0682 16.3362L37.0253 16.2932C32.9979 12.2659 26.4683 12.2659 22.4409 16.2932Z" fill="#FF0206"/>
</g>
<defs>
<filter id="filter0_di_83_752" x="0" y="0" width="79.4886" height="76.9998" filterUnits="userSpaceOnUse" color-interpolation-filters="sRGB">
<feFlood flood-opacity="0" result="BackgroundImageFix"/>
<feColorMatrix in="SourceAlpha" type="matrix" values="0 0 0 0 0 0 0 0 0 0 0 0 0 0 0 0 0 0 127 0" result="hardAlpha"/>
<feOffset dy="2"/>
<feGaussianBlur stdDeviation="1"/>
<feComposite in2="hardAlpha" operator="out"/>
<feColorMatrix type="matrix" values="0 0 0 0 0 0 0 0 0 0 0 0 0 0 0 0 0 0 0.25 0"/>
<feBlend mode="normal" in2="BackgroundImageFix" result="effect1_dropShadow_83_752"/>
<feBlend mode="normal" in="SourceGraphic" in2="effect1_dropShadow_83_752" result="shape"/>
<feColorMatrix in="SourceAlpha" type="matrix" values="0 0 0 0 0 0 0 0 0 0 0 0 0 0 0 0 0 0 127 0" result="hardAlpha"/>
<feOffset dy="2"/>
<feGaussianBlur stdDeviation="1"/>
<feComposite in2="hardAlpha" operator="arithmetic" k2="-1" k3="1"/>
<feColorMatrix type="matrix" values="0 0 0 0 1 0 0 0 0 1 0 0 0 0 1 0 0 0 0.15 0"/>
<feBlend mode="normal" in2="shape" result="effect2_innerShadow_83_752"/>
</filter>
<filter id="filter1_di_83_752" x="17.4204" y="13.2727" width="42.9905" height="37.8713" filterUnits="userSpaceOnUse" color-interpolation-filters="sRGB">
<feFlood flood-opacity="0" result="BackgroundImageFix"/>
<feColorMatrix in="SourceAlpha" type="matrix" values="0 0 0 0 0 0 0 0 0 0 0 0 0 0 0 0 0 0 127 0" result="hardAlpha"/>
<feOffset dy="2"/>
<feGaussianBlur stdDeviation="1"/>
<feComposite in2="hardAlpha" operator="out"/>
<feColorMatrix type="matrix" values="0 0 0 0 0 0 0 0 0 0 0 0 0 0 0 0 0 0 0.25 0"/>
<feBlend mode="normal" in2="BackgroundImageFix" result="effect1_dropShadow_83_752"/>
<feBlend mode="normal" in="SourceGraphic" in2="effect1_dropShadow_83_752" result="shape"/>
<feColorMatrix in="SourceAlpha" type="matrix" values="0 0 0 0 0 0 0 0 0 0 0 0 0 0 0 0 0 0 127 0" result="hardAlpha"/>
<feOffset dy="5"/>
<feGaussianBlur stdDeviation="2.5"/>
<feComposite in2="hardAlpha" operator="arithmetic" k2="-1" k3="1"/>
<feColorMatrix type="matrix" values="0 0 0 0 1 0 0 0 0 1 0 0 0 0 1 0 0 0 0.35 0"/>
<feBlend mode="normal" in2="shape" result="effect2_innerShadow_83_752"/>
</filter>
</defs>
</svg>
