<svg width="100" height="97" viewBox="0 0 100 97" fill="none" xmlns="http://www.w3.org/2000/svg">
<g filter="url(#filter0_di_83_613)">
<path fill-rule="evenodd" clip-rule="evenodd" d="M82.4173 61.3021C82.0134 60.7462 81.5863 60.2173 81.1381 59.7157C81.8864 59.5646 82.6338 59.369 83.3773 59.1274C93.8627 55.7205 99.6009 44.4585 96.194 33.9732C92.7871 23.4878 81.5252 17.7496 71.0398 21.1565C70.5992 21.2996 70.167 21.4567 69.7434 21.6269C69.7887 21.0781 69.8118 20.523 69.8118 19.9625C69.8118 8.93751 60.8743 0 49.8493 0C38.8244 2.70901e-06 29.8868 8.93751 29.8868 19.9625C29.8868 20.6006 29.9168 21.2316 29.9753 21.8544C29.3802 21.5947 28.767 21.3615 28.1366 21.1566C17.6512 17.7497 6.38933 23.488 2.98242 33.9733C-0.424482 44.4587 5.31375 55.7206 15.7991 59.1275C16.1398 59.2382 16.4813 59.3393 16.8233 59.4308C16.2798 60.016 15.7654 60.6401 15.2841 61.3025C8.8038 70.2219 10.7811 82.7059 19.7005 89.1862C28.6199 95.6665 41.1038 93.6892 47.5841 84.7698C48.0498 84.1288 48.4719 83.4693 48.8508 82.795C49.2297 83.4692 49.6517 84.1285 50.1173 84.7694C56.5976 93.6888 69.0816 95.666 78.001 89.1857C86.9204 82.7054 88.8976 70.2215 82.4173 61.3021Z" fill="#C5004B"/>
</g>
<defs>
<filter id="filter0_di_83_613" x="0" y="0" width="99.1765" height="97" filterUnits="userSpaceOnUse" color-interpolation-filters="sRGB">
<feFlood flood-opacity="0" result="BackgroundImageFix"/>
<feColorMatrix in="SourceAlpha" type="matrix" values="0 0 0 0 0 0 0 0 0 0 0 0 0 0 0 0 0 0 127 0" result="hardAlpha"/>
<feOffset dy="2"/>
<feGaussianBlur stdDeviation="1"/>
<feComposite in2="hardAlpha" operator="out"/>
<feColorMatrix type="matrix" values="0 0 0 0 0 0 0 0 0 0 0 0 0 0 0 0 0 0 0.25 0"/>
<feBlend mode="normal" in2="BackgroundImageFix" result="effect1_dropShadow_83_613"/>
<feBlend mode="normal" in="SourceGraphic" in2="effect1_dropShadow_83_613" result="shape"/>
<feColorMatrix in="SourceAlpha" type="matrix" values="0 0 0 0 0 0 0 0 0 0 0 0 0 0 0 0 0 0 127 0" result="hardAlpha"/>
<feOffset dy="3"/>
<feGaussianBlur stdDeviation="1.5"/>
<feComposite in2="hardAlpha" operator="arithmetic" k2="-1" k3="1"/>
<feColorMatrix type="matrix" values="0 0 0 0 1 0 0 0 0 1 0 0 0 0 1 0 0 0 0.2 0"/>
<feBlend mode="normal" in2="shape" result="effect2_innerShadow_83_613"/>
</filter>
</defs>
</svg>
