<svg width="97" height="93" viewBox="0 0 97 93" fill="none" xmlns="http://www.w3.org/2000/svg">
<g filter="url(#filter0_di_83_280)">
<path d="M45.6999 1.6902C46.7936 -0.563399 50.0042 -0.5634 51.0978 1.6902L62.9742 26.1625C63.4114 27.0635 64.2695 27.6869 65.2615 27.8243L92.206 31.5571C94.6873 31.9008 95.6794 34.9543 93.8741 36.6908L74.2695 55.5482C73.5478 56.2425 73.22 57.2512 73.3959 58.2371L78.1722 85.0164C78.612 87.4824 76.0146 89.3696 73.8051 88.1892L49.8125 75.3714C48.9292 74.8995 47.8686 74.8995 46.9852 75.3714L22.9926 88.1892C20.7832 89.3696 18.1857 87.4824 18.6256 85.0164L23.4019 58.2371C23.5777 57.2512 23.25 56.2425 22.5282 55.5482L2.92365 36.6908C1.11831 34.9543 2.11044 31.9008 4.5917 31.5571L31.5362 27.8243C32.5283 27.6869 33.3863 27.0635 33.8235 26.1625L45.6999 1.6902Z" fill="#FFA0C2"/>
</g>
<defs>
<filter id="filter0_di_83_280" x="0" y="0" width="96.7977" height="93.5503" filterUnits="userSpaceOnUse" color-interpolation-filters="sRGB">
<feFlood flood-opacity="0" result="BackgroundImageFix"/>
<feColorMatrix in="SourceAlpha" type="matrix" values="0 0 0 0 0 0 0 0 0 0 0 0 0 0 0 0 0 0 127 0" result="hardAlpha"/>
<feOffset dy="2"/>
<feGaussianBlur stdDeviation="1"/>
<feComposite in2="hardAlpha" operator="out"/>
<feColorMatrix type="matrix" values="0 0 0 0 0 0 0 0 0 0 0 0 0 0 0 0 0 0 0.25 0"/>
<feBlend mode="normal" in2="BackgroundImageFix" result="effect1_dropShadow_83_280"/>
<feBlend mode="normal" in="SourceGraphic" in2="effect1_dropShadow_83_280" result="shape"/>
<feColorMatrix in="SourceAlpha" type="matrix" values="0 0 0 0 0 0 0 0 0 0 0 0 0 0 0 0 0 0 127 0" result="hardAlpha"/>
<feOffset dy="5"/>
<feGaussianBlur stdDeviation="2.5"/>
<feComposite in2="hardAlpha" operator="arithmetic" k2="-1" k3="1"/>
<feColorMatrix type="matrix" values="0 0 0 0 1 0 0 0 0 1 0 0 0 0 1 0 0 0 0.35 0"/>
<feBlend mode="normal" in2="shape" result="effect2_innerShadow_83_280"/>
</filter>
</defs>
</svg>
