<svg width="343" height="81" viewBox="0 0 343 81" fill="none" xmlns="http://www.w3.org/2000/svg">
<g filter="url(#filter0_dd_83_809)">
<path d="M334.826 76.1406H332.561C332.508 76.1406 332.482 76.1081 332.482 76.043L332.521 62.3027C332.521 62.2507 332.548 62.2246 332.6 62.2246H336.643C337.365 62.2246 338.029 62.4004 338.635 62.752C339.24 63.1035 339.722 63.5755 340.08 64.168C340.445 64.7604 340.627 65.431 340.627 66.1797C340.627 66.668 340.552 67.1107 340.402 67.5078C340.253 67.9049 340.077 68.2402 339.875 68.5137C339.68 68.7871 339.501 68.9889 339.338 69.1191C340.061 69.9199 340.422 70.8607 340.422 71.9414L340.441 76.043C340.441 76.1081 340.409 76.1406 340.344 76.1406H338.078C338.026 76.1406 338 76.1211 338 76.082V71.9414C338 71.4596 337.831 71.043 337.492 70.6914C337.154 70.3398 336.737 70.1641 336.242 70.1641H334.924L334.904 76.043C334.904 76.1081 334.878 76.1406 334.826 76.1406ZM336.643 64.6172H334.924V67.7617H336.643C337.053 67.7617 337.417 67.6087 337.736 67.3027C338.062 66.9967 338.225 66.6224 338.225 66.1797C338.225 65.7565 338.068 65.3919 337.756 65.0859C337.443 64.7734 337.072 64.6172 336.643 64.6172Z" fill="#FFA1C2"/>
<path d="M325.427 76.1406H318.962C318.91 76.1406 318.884 76.1081 318.884 76.043L318.904 62.3027C318.904 62.2507 318.93 62.2246 318.982 62.2246H325.407C325.46 62.2246 325.486 62.2572 325.486 62.3223V64.5586C325.486 64.6107 325.46 64.6367 325.407 64.6367H321.306V67.7617H325.407C325.46 67.7617 325.486 67.7878 325.486 67.8398L325.505 70.1055C325.505 70.1576 325.479 70.1836 325.427 70.1836H321.306V73.6797H325.427C325.479 73.6797 325.505 73.7122 325.505 73.7773V76.0625C325.505 76.1146 325.479 76.1406 325.427 76.1406Z" fill="#FFA1C2"/>
<path d="M309.7 76.1406H307.278C307.219 76.1406 307.187 76.1081 307.18 76.043L304.416 62.3027C304.403 62.2507 304.429 62.2246 304.495 62.2246H306.76C306.812 62.2246 306.845 62.2507 306.858 62.3027L308.498 71.4629L310.1 62.3027C310.113 62.2507 310.146 62.2246 310.198 62.2246H312.434C312.506 62.2246 312.532 62.2507 312.512 62.3027L309.797 76.043C309.791 76.1081 309.758 76.1406 309.7 76.1406Z" fill="#FFA1C2"/>
<path d="M297.976 76.1406H291.511C291.459 76.1406 291.433 76.1081 291.433 76.043L291.453 62.3027C291.453 62.2507 291.479 62.2246 291.531 62.2246H297.957C298.009 62.2246 298.035 62.2572 298.035 62.3223V64.5586C298.035 64.6107 298.009 64.6367 297.957 64.6367H293.855V67.7617H297.957C298.009 67.7617 298.035 67.7878 298.035 67.8398L298.054 70.1055C298.054 70.1576 298.028 70.1836 297.976 70.1836H293.855V73.6797H297.976C298.028 73.6797 298.054 73.7122 298.054 73.7773V76.0625C298.054 76.1146 298.028 76.1406 297.976 76.1406Z" fill="#FFA1C2"/>
<path d="M278.928 76.1406H276.663C276.611 76.1406 276.585 76.1081 276.585 76.043L276.624 62.3027C276.624 62.2507 276.65 62.2246 276.702 62.2246H280.745C281.468 62.2246 282.132 62.4004 282.737 62.752C283.343 63.1035 283.824 63.5755 284.182 64.168C284.547 64.7604 284.729 65.431 284.729 66.1797C284.729 66.668 284.654 67.1107 284.505 67.5078C284.355 67.9049 284.179 68.2402 283.977 68.5137C283.782 68.7871 283.603 68.9889 283.44 69.1191C284.163 69.9199 284.524 70.8607 284.524 71.9414L284.544 76.043C284.544 76.1081 284.511 76.1406 284.446 76.1406H282.18C282.128 76.1406 282.102 76.1211 282.102 76.082V71.9414C282.102 71.4596 281.933 71.043 281.594 70.6914C281.256 70.3398 280.839 70.1641 280.344 70.1641H279.026L279.007 76.043C279.007 76.1081 278.981 76.1406 278.928 76.1406ZM280.745 64.6172H279.026V67.7617H280.745C281.155 67.7617 281.52 67.6087 281.839 67.3027C282.164 66.9967 282.327 66.6224 282.327 66.1797C282.327 65.7565 282.171 65.3919 281.858 65.0859C281.546 64.7734 281.175 64.6172 280.745 64.6172Z" fill="#FFA1C2"/>
<path d="M265.945 76.3359C265.236 76.3359 264.581 76.1536 263.982 75.7891C263.39 75.4245 262.911 74.9395 262.547 74.334C262.189 73.722 262.01 73.0514 262.01 72.3223L262.029 65.9844C262.029 65.2422 262.208 64.5749 262.566 63.9824C262.918 63.3835 263.393 62.9049 263.992 62.5469C264.591 62.1823 265.242 62 265.945 62C266.674 62 267.329 62.179 267.908 62.5371C268.494 62.8952 268.963 63.377 269.314 63.9824C269.673 64.5814 269.852 65.2487 269.852 65.9844L269.871 72.3223C269.871 73.0514 269.695 73.7188 269.344 74.3242C268.986 74.9362 268.51 75.4245 267.918 75.7891C267.326 76.1536 266.668 76.3359 265.945 76.3359ZM265.945 73.9238C266.349 73.9238 266.701 73.7611 267 73.4355C267.299 73.1035 267.449 72.7324 267.449 72.3223L267.43 65.9844C267.43 65.5417 267.29 65.1673 267.01 64.8613C266.73 64.5553 266.375 64.4023 265.945 64.4023C265.535 64.4023 265.184 64.5521 264.891 64.8516C264.598 65.151 264.451 65.5286 264.451 65.9844V72.3223C264.451 72.7585 264.598 73.1361 264.891 73.4551C265.184 73.7676 265.535 73.9238 265.945 73.9238Z" fill="#FFA1C2"/>
<path d="M250.97 76.1406H248.724C248.659 76.1406 248.626 76.1081 248.626 76.043L248.665 62.3027C248.665 62.2507 248.691 62.2246 248.743 62.2246H255.15C255.215 62.2246 255.247 62.2507 255.247 62.3027V64.5586C255.247 64.6107 255.221 64.6367 255.169 64.6367H251.068V67.7422H255.169C255.221 67.7422 255.247 67.7747 255.247 67.8398L255.267 70.1055C255.267 70.1576 255.234 70.1836 255.169 70.1836H251.068V76.043C251.068 76.1081 251.035 76.1406 250.97 76.1406Z" fill="#FFA1C2"/>
<path d="M227.513 76.3359C226.81 76.3359 226.159 76.1536 225.56 75.7891C224.961 75.4245 224.483 74.9362 224.125 74.3242C223.773 73.7057 223.597 73.0319 223.597 72.3027L223.636 62.3027C223.636 62.2507 223.662 62.2246 223.714 62.2246H225.961C226.013 62.2246 226.039 62.2507 226.039 62.3027V72.3027C226.039 72.752 226.182 73.1361 226.468 73.4551C226.755 73.7676 227.103 73.9238 227.513 73.9238C227.943 73.9238 228.301 73.7676 228.588 73.4551C228.874 73.1361 229.017 72.752 229.017 72.3027V62.3027C229.017 62.2507 229.043 62.2246 229.095 62.2246H231.341C231.394 62.2246 231.42 62.2507 231.42 62.3027L231.459 72.3027C231.459 73.0384 231.283 73.7155 230.931 74.334C230.573 74.946 230.098 75.4342 229.505 75.7988C228.913 76.1569 228.249 76.3359 227.513 76.3359Z" fill="#FFA1C2"/>
<path d="M213.192 76.3359C212.483 76.3359 211.828 76.1536 211.229 75.7891C210.637 75.4245 210.158 74.9395 209.794 74.334C209.436 73.722 209.257 73.0514 209.257 72.3223L209.276 65.9844C209.276 65.2422 209.455 64.5749 209.813 63.9824C210.165 63.3835 210.64 62.9049 211.239 62.5469C211.838 62.1823 212.489 62 213.192 62C213.921 62 214.576 62.179 215.155 62.5371C215.741 62.8952 216.21 63.377 216.561 63.9824C216.919 64.5814 217.098 65.2487 217.098 65.9844L217.118 72.3223C217.118 73.0514 216.942 73.7188 216.591 74.3242C216.233 74.9362 215.757 75.4245 215.165 75.7891C214.572 76.1536 213.915 76.3359 213.192 76.3359ZM213.192 73.9238C213.596 73.9238 213.947 73.7611 214.247 73.4355C214.546 73.1035 214.696 72.7324 214.696 72.3223L214.677 65.9844C214.677 65.5417 214.537 65.1673 214.257 64.8613C213.977 64.5553 213.622 64.4023 213.192 64.4023C212.782 64.4023 212.43 64.5521 212.137 64.8516C211.844 65.151 211.698 65.5286 211.698 65.9844V72.3223C211.698 72.7585 211.844 73.1361 212.137 73.4551C212.43 73.7676 212.782 73.9238 213.192 73.9238Z" fill="#FFA1C2"/>
<path d="M200.434 76.1406H198.139C198.093 76.1406 198.07 76.1146 198.07 76.0625L198.09 70.3789L195.414 62.3027C195.401 62.2507 195.421 62.2246 195.473 62.2246H197.699C197.764 62.2246 197.803 62.2507 197.816 62.3027L199.291 67.6836L200.795 62.3027C200.808 62.2507 200.84 62.2246 200.893 62.2246H203.139C203.191 62.2246 203.21 62.2507 203.197 62.3027L200.492 70.3008L200.512 76.0625C200.512 76.1146 200.486 76.1406 200.434 76.1406Z" fill="#FFA1C2"/>
<path d="M173.52 76.1406H171.254C171.202 76.1406 171.176 76.1081 171.176 76.043L171.196 62.3027C171.196 62.2507 171.228 62.2246 171.293 62.2246H173.52C173.585 62.2246 173.618 62.2507 173.618 62.3027L173.598 67.7422H176.596V62.3027C176.596 62.2507 176.622 62.2246 176.674 62.2246H178.901C178.966 62.2246 178.998 62.2507 178.998 62.3027L179.037 76.043C179.037 76.1081 179.005 76.1406 178.94 76.1406H176.694C176.629 76.1406 176.596 76.1081 176.596 76.043V70.1641H173.598V76.043C173.598 76.1081 173.572 76.1406 173.52 76.1406Z" fill="#FFA1C2"/>
<path d="M162.236 76.1406H159.98C159.922 76.1406 159.892 76.1081 159.892 76.043V64.6367H157.295C157.229 64.6367 157.197 64.6042 157.197 64.5391L157.216 62.3027C157.216 62.2507 157.242 62.2246 157.295 62.2246H164.892C164.964 62.2246 165 62.2507 165 62.3027V64.5391C165 64.6042 164.974 64.6367 164.922 64.6367H162.295L162.314 76.043C162.314 76.1081 162.288 76.1406 162.236 76.1406Z" fill="#FFA1C2"/>
<path d="M150.932 76.1406H148.667C148.602 76.1406 148.569 76.1081 148.569 76.043L148.589 62.3027C148.589 62.2507 148.615 62.2246 148.667 62.2246H150.913C150.965 62.2246 150.991 62.2507 150.991 62.3027L151.01 76.043C151.01 76.1081 150.984 76.1406 150.932 76.1406Z" fill="#FFA1C2"/>
<path d="M135.059 76.1406H132.637C132.578 76.1406 132.546 76.1081 132.539 76.043L130.176 62.3027C130.163 62.2507 130.182 62.2246 130.234 62.2246H132.48C132.533 62.2246 132.565 62.2507 132.578 62.3027L133.857 71.3359L135.176 62.3027C135.189 62.2507 135.228 62.2246 135.293 62.2246H137.1C137.152 62.2246 137.184 62.2507 137.197 62.3027L138.496 71.3359L139.795 62.3027C139.808 62.2507 139.84 62.2246 139.893 62.2246H142.119C142.184 62.2246 142.21 62.2507 142.197 62.3027L139.814 76.043C139.808 76.069 139.788 76.0918 139.756 76.1113L139.717 76.1406H137.295C137.256 76.1406 137.223 76.1081 137.197 76.043L136.172 68.8652L135.156 76.043C135.15 76.1081 135.117 76.1406 135.059 76.1406Z" fill="#FFA1C2"/>
<path d="M111.338 76.1406H109.043C108.998 76.1406 108.975 76.1146 108.975 76.0625L108.995 70.3789L106.319 62.3027C106.306 62.2507 106.325 62.2246 106.377 62.2246H108.604C108.669 62.2246 108.708 62.2507 108.721 62.3027L110.196 67.6836L111.7 62.3027C111.713 62.2507 111.745 62.2246 111.797 62.2246H114.043C114.095 62.2246 114.115 62.2507 114.102 62.3027L111.397 70.3008L111.416 76.0625C111.416 76.1146 111.39 76.1406 111.338 76.1406Z" fill="#FFA1C2"/>
<path d="M93.1696 76.043L95.65 62.3027C95.663 62.2507 95.6956 62.2246 95.7477 62.2246H98.6481C98.7002 62.2246 98.7327 62.2507 98.7457 62.3027L101.129 76.043C101.135 76.1081 101.109 76.1406 101.05 76.1406H98.8336C98.7685 76.1406 98.7327 76.1081 98.7262 76.043L98.5114 74.5781H95.7867L95.5719 76.043C95.5654 76.1081 95.5328 76.1406 95.4742 76.1406H93.2477C93.1956 76.1406 93.1696 76.1081 93.1696 76.043ZM97.2906 66.8242L97.1735 66.082L97.0856 66.8242L96.1871 72.4395H98.111L97.2906 66.8242Z" fill="#FFA1C2"/>
<path d="M84.9031 76.1406H82.6472C82.5886 76.1406 82.5593 76.1081 82.5593 76.043V64.6367H79.9617C79.8966 64.6367 79.864 64.6042 79.864 64.5391L79.8835 62.3027C79.8835 62.2507 79.9096 62.2246 79.9617 62.2246H87.5593C87.6309 62.2246 87.6667 62.2507 87.6667 62.3027V64.5391C87.6667 64.6042 87.6407 64.6367 87.5886 64.6367H84.9617L84.9812 76.043C84.9812 76.1081 84.9552 76.1406 84.9031 76.1406Z" fill="#FFA1C2"/>
<path d="M70.123 76.3359C69.4134 76.3359 68.7591 76.1536 68.1602 75.7891C67.5677 75.4245 67.0924 74.9395 66.7344 74.334C66.3828 73.722 66.207 73.0514 66.207 72.3223V71.4043C66.207 71.3327 66.2396 71.2969 66.3047 71.2969H68.5508C68.6029 71.2969 68.6289 71.3327 68.6289 71.4043V72.3223C68.6289 72.7585 68.7754 73.1361 69.0684 73.4551C69.3613 73.7676 69.7129 73.9238 70.123 73.9238C70.5397 73.9238 70.8945 73.7643 71.1875 73.4453C71.4805 73.1198 71.627 72.7454 71.627 72.3223C71.627 71.834 71.3079 71.4076 70.6699 71.043C70.5658 70.9779 70.429 70.8997 70.2598 70.8086C70.097 70.7109 69.9017 70.6003 69.6738 70.4766C69.446 70.3529 69.2246 70.2324 69.0098 70.1152C68.7949 69.9915 68.5866 69.8743 68.3848 69.7637C67.6556 69.334 67.112 68.7969 66.7539 68.1523C66.4023 67.5013 66.2266 66.7721 66.2266 65.9648C66.2266 65.2227 66.4089 64.5521 66.7734 63.9531C67.138 63.3607 67.6133 62.8919 68.1992 62.5469C68.7917 62.1953 69.4329 62.0195 70.123 62.0195C70.8327 62.0195 71.4837 62.1953 72.0762 62.5469C72.6686 62.9049 73.1406 63.3802 73.4922 63.9727C73.8503 64.5651 74.0293 65.2292 74.0293 65.9648V67.6055C74.0293 67.6576 74.0033 67.6836 73.9512 67.6836H71.7051C71.653 67.6836 71.627 67.6576 71.627 67.6055L71.6074 65.9648C71.6074 65.4961 71.4609 65.1152 71.168 64.8223C70.875 64.5293 70.5267 64.3828 70.123 64.3828C69.7129 64.3828 69.3613 64.5391 69.0684 64.8516C68.7754 65.1641 68.6289 65.5352 68.6289 65.9648C68.6289 66.401 68.7201 66.7656 68.9023 67.0586C69.0911 67.3516 69.4329 67.6315 69.9277 67.8984C69.9798 67.9245 70.1003 67.9896 70.2891 68.0938C70.4779 68.1979 70.6862 68.3151 70.9141 68.4453C71.1484 68.569 71.36 68.6829 71.5488 68.7871C71.7376 68.8848 71.8516 68.9434 71.8906 68.9629C72.5547 69.334 73.0788 69.7897 73.4629 70.3301C73.8535 70.8704 74.0488 71.5345 74.0488 72.3223C74.0488 73.084 73.873 73.7676 73.5215 74.373C73.1634 74.9785 72.6882 75.457 72.0957 75.8086C71.5033 76.1602 70.8457 76.3359 70.123 76.3359Z" fill="#FFA1C2"/>
<path d="M49.723 76.1406H43.2582C43.2061 76.1406 43.1801 76.1081 43.1801 76.043L43.1996 62.3223C43.1996 62.2572 43.2321 62.2246 43.2972 62.2246H45.5238C45.5889 62.2246 45.6215 62.2572 45.6215 62.3223L45.6019 73.6797H49.723C49.7881 73.6797 49.8207 73.7122 49.8207 73.7773V76.043C49.8207 76.1081 49.7881 76.1406 49.723 76.1406Z" fill="#FFA1C2"/>
<path d="M36.5739 76.1406H30.109C30.0569 76.1406 30.0309 76.1081 30.0309 76.043L30.0504 62.3223C30.0504 62.2572 30.083 62.2246 30.1481 62.2246H32.3746C32.4397 62.2246 32.4723 62.2572 32.4723 62.3223L32.4528 73.6797H36.5739C36.639 73.6797 36.6715 73.7122 36.6715 73.7773V76.043C36.6715 76.1081 36.639 76.1406 36.5739 76.1406Z" fill="#FFA1C2"/>
<path d="M22.9949 76.1406H20.7292C20.6641 76.1406 20.6316 76.1081 20.6316 76.043L20.6511 62.3027C20.6511 62.2507 20.6772 62.2246 20.7292 62.2246H22.9753C23.0274 62.2246 23.0535 62.2507 23.0535 62.3027L23.073 76.043C23.073 76.1081 23.047 76.1406 22.9949 76.1406Z" fill="#FFA1C2"/>
<path d="M7.12109 76.1406H4.69922C4.64062 76.1406 4.60807 76.1081 4.60156 76.043L2.23828 62.3027C2.22526 62.2507 2.24479 62.2246 2.29688 62.2246H4.54297C4.59505 62.2246 4.6276 62.2507 4.64062 62.3027L5.91992 71.3359L7.23828 62.3027C7.2513 62.2507 7.29036 62.2246 7.35547 62.2246H9.16211C9.21419 62.2246 9.24674 62.2507 9.25977 62.3027L10.5586 71.3359L11.8574 62.3027C11.8704 62.2507 11.903 62.2246 11.9551 62.2246H14.1816C14.2467 62.2246 14.2728 62.2507 14.2598 62.3027L11.877 76.043C11.8704 76.069 11.8509 76.0918 11.8184 76.1113L11.7793 76.1406H9.35742C9.31836 76.1406 9.28581 76.1081 9.25977 76.043L8.23438 68.8652L7.21875 76.043C7.21224 76.1081 7.17969 76.1406 7.12109 76.1406Z" fill="#FFA1C2"/>
<path d="M273.348 45.1406H271.092C271.033 45.1406 271.004 45.1081 271.004 45.043V33.6367H268.406C268.341 33.6367 268.309 33.6042 268.309 33.5391L268.328 31.3027C268.328 31.2507 268.354 31.2246 268.406 31.2246H276.004C276.076 31.2246 276.111 31.2507 276.111 31.3027V33.5391C276.111 33.6042 276.085 33.6367 276.033 33.6367H273.406L273.426 45.043C273.426 45.1081 273.4 45.1406 273.348 45.1406Z" fill="#FFA1C2"/>
<path d="M254.671 45.043L257.152 31.3027C257.165 31.2507 257.197 31.2246 257.249 31.2246H260.15C260.202 31.2246 260.234 31.2507 260.247 31.3027L262.63 45.043C262.637 45.1081 262.611 45.1406 262.552 45.1406H260.335C260.27 45.1406 260.234 45.1081 260.228 45.043L260.013 43.5781H257.288L257.073 45.043C257.067 45.1081 257.034 45.1406 256.976 45.1406H254.749C254.697 45.1406 254.671 45.1081 254.671 45.043ZM258.792 35.8242L258.675 35.082L258.587 35.8242L257.689 41.4395H259.613L258.792 35.8242Z" fill="#FFA1C2"/>
<path d="M242.996 45.1406H240.731C240.679 45.1406 240.653 45.1081 240.653 45.043L240.672 31.3027C240.672 31.2507 240.705 31.2246 240.77 31.2246H242.996C243.062 31.2246 243.094 31.2507 243.094 31.3027L243.075 36.7422H246.073V31.3027C246.073 31.2507 246.099 31.2246 246.151 31.2246H248.377C248.442 31.2246 248.475 31.2507 248.475 31.3027L248.514 45.043C248.514 45.1081 248.481 45.1406 248.416 45.1406H246.17C246.105 45.1406 246.073 45.1081 246.073 45.043V39.1641H243.075V45.043C243.075 45.1081 243.049 45.1406 242.996 45.1406Z" fill="#FFA1C2"/>
<path d="M231.713 45.1406H229.457C229.398 45.1406 229.369 45.1081 229.369 45.043V33.6367H226.771C226.706 33.6367 226.673 33.6042 226.673 33.5391L226.693 31.3027C226.693 31.2507 226.719 31.2246 226.771 31.2246H234.369C234.44 31.2246 234.476 31.2507 234.476 31.3027V33.5391C234.476 33.6042 234.45 33.6367 234.398 33.6367H231.771L231.791 45.043C231.791 45.1081 231.765 45.1406 231.713 45.1406Z" fill="#FFA1C2"/>
<path d="M208.109 45.1406H205.854C205.795 45.1406 205.766 45.1081 205.766 45.043V33.6367H203.168C203.103 33.6367 203.07 33.6042 203.07 33.5391L203.09 31.3027C203.09 31.2507 203.116 31.2246 203.168 31.2246H210.766C210.837 31.2246 210.873 31.2507 210.873 31.3027V33.5391C210.873 33.6042 210.847 33.6367 210.795 33.6367H208.168L208.188 45.043C208.188 45.1081 208.161 45.1406 208.109 45.1406Z" fill="#FFA1C2"/>
<path d="M192.568 45.1406H190.322C190.256 45.1406 190.224 45.1081 190.224 45.043L190.263 31.3027C190.263 31.2507 190.289 31.2246 190.341 31.2246H196.747C196.812 31.2246 196.845 31.2507 196.845 31.3027V33.5586C196.845 33.6107 196.819 33.6367 196.767 33.6367H192.665V36.7422H196.767C196.819 36.7422 196.845 36.7747 196.845 36.8398L196.865 39.1055C196.865 39.1576 196.832 39.1836 196.767 39.1836H192.665V45.043C192.665 45.1081 192.633 45.1406 192.568 45.1406Z" fill="#FFA1C2"/>
<path d="M183.188 45.1406H180.922C180.857 45.1406 180.825 45.1081 180.825 45.043L180.844 31.3027C180.844 31.2507 180.87 31.2246 180.922 31.2246H183.168C183.22 31.2246 183.246 31.2507 183.246 31.3027L183.266 45.043C183.266 45.1081 183.24 45.1406 183.188 45.1406Z" fill="#FFA1C2"/>
<path d="M170.283 45.3359C169.56 45.3359 168.909 45.1569 168.33 44.7988C167.744 44.4408 167.272 43.959 166.914 43.3535C166.562 42.748 166.386 42.071 166.386 41.3223V34.9844C166.386 34.2552 166.565 33.5911 166.923 32.9922C167.275 32.3867 167.747 31.9049 168.339 31.5469C168.932 31.1823 169.58 31 170.283 31C171.019 31 171.683 31.1758 172.275 31.5273C172.867 31.8854 173.336 32.3639 173.681 32.9629C174.033 33.5618 174.209 34.2357 174.209 34.9844V35.9023C174.209 35.9544 174.176 35.9805 174.111 35.9805H171.865C171.813 35.9805 171.787 35.9544 171.787 35.9023V35.1406C171.787 34.6328 171.644 34.2129 171.357 33.8809C171.071 33.5488 170.713 33.3828 170.283 33.3828C169.899 33.3828 169.557 33.5423 169.257 33.8613C168.958 34.1803 168.808 34.5547 168.808 34.9844V41.3223C168.808 41.7585 168.955 42.1361 169.248 42.4551C169.541 42.7676 169.886 42.9238 170.283 42.9238C170.713 42.9238 171.071 42.7708 171.357 42.4648C171.644 42.1523 171.787 41.7715 171.787 41.3223V40.3359H170.39C170.319 40.3359 170.283 40.3034 170.283 40.2383V38.002C170.283 37.9368 170.319 37.9043 170.39 37.9043H174.13C174.183 37.9043 174.209 37.9368 174.209 38.002V41.3223C174.209 42.071 174.033 42.748 173.681 43.3535C173.323 43.959 172.851 44.4408 172.265 44.7988C171.679 45.1569 171.019 45.3359 170.283 45.3359Z" fill="#FFA1C2"/>
<path d="M141.816 45.043L144.297 31.3027C144.31 31.2507 144.342 31.2246 144.395 31.2246H147.295C147.347 31.2246 147.38 31.2507 147.393 31.3027L149.775 45.043C149.782 45.1081 149.756 45.1406 149.697 45.1406H147.48C147.415 45.1406 147.38 45.1081 147.373 45.043L147.158 43.5781H144.434L144.219 45.043C144.212 45.1081 144.18 45.1406 144.121 45.1406H141.895C141.842 45.1406 141.816 45.1081 141.816 45.043ZM145.938 35.8242L145.82 35.082L145.732 35.8242L144.834 41.4395H146.758L145.938 35.8242Z" fill="#FFA1C2"/>
<path d="M106.904 40.5607V39.0007H125.304V40.5607H106.904Z" fill="#FFA1C2"/>
<path d="M85.8601 45.3359C85.1505 45.3359 84.4962 45.1536 83.8972 44.7891C83.3048 44.4245 82.8263 43.9395 82.4617 43.334C82.1036 42.722 81.9246 42.0514 81.9246 41.3223L81.9441 34.9844C81.9441 34.2422 82.1231 33.5749 82.4812 32.9824C82.8328 32.3835 83.308 31.9049 83.907 31.5469C84.5059 31.1823 85.157 31 85.8601 31C86.5893 31 87.2436 31.179 87.823 31.5371C88.4089 31.8952 88.8777 32.377 89.2292 32.9824C89.5873 33.5814 89.7664 34.2487 89.7664 34.9844L89.7859 41.3223C89.7859 42.0514 89.6101 42.7188 89.2585 43.3242C88.9005 43.9362 88.4252 44.4245 87.8328 44.7891C87.2403 45.1536 86.5828 45.3359 85.8601 45.3359ZM85.8601 42.9238C86.2638 42.9238 86.6153 42.7611 86.9148 42.4355C87.2143 42.1035 87.364 41.7324 87.364 41.3223L87.3445 34.9844C87.3445 34.5417 87.2045 34.1673 86.9246 33.8613C86.6446 33.5553 86.2898 33.4023 85.8601 33.4023C85.45 33.4023 85.0984 33.5521 84.8054 33.8516C84.5125 34.151 84.366 34.5286 84.366 34.9844V41.3223C84.366 41.7585 84.5125 42.1361 84.8054 42.4551C85.0984 42.7676 85.45 42.9238 85.8601 42.9238Z" fill="#FFA1C2"/>
<path d="M71.6172 45.3359C70.8945 45.3359 70.2435 45.1569 69.6641 44.7988C69.0781 44.4408 68.6061 43.959 68.248 43.3535C67.8965 42.748 67.7207 42.071 67.7207 41.3223V34.9844C67.7207 34.2552 67.8997 33.5911 68.2578 32.9922C68.6094 32.3867 69.0814 31.9049 69.6738 31.5469C70.2663 31.1823 70.9141 31 71.6172 31C72.3529 31 73.0169 31.1758 73.6094 31.5273C74.2018 31.8854 74.6706 32.3639 75.0156 32.9629C75.3672 33.5618 75.543 34.2357 75.543 34.9844V35.9023C75.543 35.9544 75.5104 35.9805 75.4453 35.9805H73.1992C73.1471 35.9805 73.1211 35.9544 73.1211 35.9023V35.1406C73.1211 34.6328 72.9779 34.2129 72.6914 33.8809C72.4049 33.5488 72.0469 33.3828 71.6172 33.3828C71.2331 33.3828 70.8913 33.5423 70.5918 33.8613C70.2923 34.1803 70.1426 34.5547 70.1426 34.9844V41.3223C70.1426 41.7585 70.2891 42.1361 70.582 42.4551C70.875 42.7676 71.2201 42.9238 71.6172 42.9238C72.0469 42.9238 72.4049 42.7708 72.6914 42.4648C72.9779 42.1523 73.1211 41.7715 73.1211 41.3223V40.3359H71.7246C71.653 40.3359 71.6172 40.3034 71.6172 40.2383V38.002C71.6172 37.9368 71.653 37.9043 71.7246 37.9043H75.4648C75.5169 37.9043 75.543 37.9368 75.543 38.002V41.3223C75.543 42.071 75.3672 42.748 75.0156 43.3535C74.6576 43.959 74.1855 44.4408 73.5996 44.7988C73.0137 45.1569 72.3529 45.3359 71.6172 45.3359Z" fill="#FFA1C2"/>
<path d="M60.8997 45.1406H54.4348C54.3827 45.1406 54.3567 45.1081 54.3567 45.043L54.3762 31.3027C54.3762 31.2507 54.4023 31.2246 54.4543 31.2246H60.8801C60.9322 31.2246 60.9583 31.2572 60.9583 31.3223V33.5586C60.9583 33.6107 60.9322 33.6367 60.8801 33.6367H56.7786V36.7617H60.8801C60.9322 36.7617 60.9583 36.7878 60.9583 36.8398L60.9778 39.1055C60.9778 39.1576 60.9517 39.1836 60.8997 39.1836H56.7786V42.6797H60.8997C60.9517 42.6797 60.9778 42.7122 60.9778 42.7773V45.0625C60.9778 45.1146 60.9517 45.1406 60.8997 45.1406Z" fill="#FFA1C2"/>
<path d="M47.7504 45.1406H41.2855C41.2334 45.1406 41.2074 45.1081 41.2074 45.043L41.2269 31.3223C41.2269 31.2572 41.2595 31.2246 41.3246 31.2246H43.5511C43.6163 31.2246 43.6488 31.2572 43.6488 31.3223L43.6293 42.6797H47.7504C47.8155 42.6797 47.848 42.7122 47.848 42.7773V45.043C47.848 45.1081 47.8155 45.1406 47.7504 45.1406Z" fill="#FFA1C2"/>
<path d="M19.5378 45.1406H17.2917C17.2266 45.1406 17.1941 45.1081 17.1941 45.043L17.2332 31.3027C17.2332 31.2507 17.2592 31.2246 17.3113 31.2246H23.7175C23.7826 31.2246 23.8152 31.2507 23.8152 31.3027V33.5586C23.8152 33.6107 23.7891 33.6367 23.7371 33.6367H19.6355V36.7422H23.7371C23.7891 36.7422 23.8152 36.7747 23.8152 36.8398L23.8347 39.1055C23.8347 39.1576 23.8022 39.1836 23.7371 39.1836H19.6355V45.043C19.6355 45.1081 19.6029 45.1406 19.5378 45.1406Z" fill="#FFA1C2"/>
<path d="M6.55469 45.3359C5.84505 45.3359 5.19076 45.1536 4.5918 44.7891C3.99935 44.4245 3.52083 43.9395 3.15625 43.334C2.79818 42.722 2.61914 42.0514 2.61914 41.3223L2.63867 34.9844C2.63867 34.2422 2.81771 33.5749 3.17578 32.9824C3.52734 32.3835 4.0026 31.9049 4.60156 31.5469C5.20052 31.1823 5.85156 31 6.55469 31C7.28385 31 7.93815 31.179 8.51758 31.5371C9.10352 31.8952 9.57227 32.377 9.92383 32.9824C10.2819 33.5814 10.4609 34.2487 10.4609 34.9844L10.4805 41.3223C10.4805 42.0514 10.3047 42.7188 9.95312 43.3242C9.59505 43.9362 9.11979 44.4245 8.52734 44.7891C7.9349 45.1536 7.27734 45.3359 6.55469 45.3359ZM6.55469 42.9238C6.95833 42.9238 7.3099 42.7611 7.60938 42.4355C7.90885 42.1035 8.05859 41.7324 8.05859 41.3223L8.03906 34.9844C8.03906 34.5417 7.89909 34.1673 7.61914 33.8613C7.33919 33.5553 6.98438 33.4023 6.55469 33.4023C6.14453 33.4023 5.79297 33.5521 5.5 33.8516C5.20703 34.151 5.06055 34.5286 5.06055 34.9844V41.3223C5.06055 41.7585 5.20703 42.1361 5.5 42.4551C5.79297 42.7676 6.14453 42.9238 6.55469 42.9238Z" fill="#FFA1C2"/>
<path d="M325.456 14.1406H323.2C323.142 14.1406 323.113 14.1081 323.113 14.043V2.63672H320.515C320.45 2.63672 320.417 2.60417 320.417 2.53906L320.437 0.302734C320.437 0.250651 320.463 0.224609 320.515 0.224609H328.113C328.184 0.224609 328.22 0.250651 328.22 0.302734V2.53906C328.22 2.60417 328.194 2.63672 328.142 2.63672H325.515L325.534 14.043C325.534 14.1081 325.508 14.1406 325.456 14.1406Z" fill="#FFA1C2"/>
<path d="M314.133 14.1406H307.668C307.616 14.1406 307.59 14.1081 307.59 14.043L307.61 0.302734C307.61 0.250651 307.636 0.224609 307.688 0.224609H314.114C314.166 0.224609 314.192 0.257161 314.192 0.322266V2.55859C314.192 2.61068 314.166 2.63672 314.114 2.63672H310.012V5.76172H314.114C314.166 5.76172 314.192 5.78776 314.192 5.83984L314.211 8.10547C314.211 8.15755 314.185 8.18359 314.133 8.18359H310.012V11.6797H314.133C314.185 11.6797 314.211 11.7122 314.211 11.7773V14.0625C314.211 14.1146 314.185 14.1406 314.133 14.1406Z" fill="#FFA1C2"/>
<path d="M296.873 14.3359C296.17 14.3359 295.519 14.1536 294.92 13.7891C294.321 13.4245 293.842 12.9362 293.484 12.3242C293.132 11.7057 292.957 11.0319 292.957 10.3027L292.996 0.302734C292.996 0.250651 293.022 0.224609 293.074 0.224609H295.32C295.372 0.224609 295.398 0.250651 295.398 0.302734V10.3027C295.398 10.752 295.541 11.1361 295.828 11.4551C296.114 11.7676 296.463 11.9238 296.873 11.9238C297.302 11.9238 297.66 11.7676 297.947 11.4551C298.233 11.1361 298.377 10.752 298.377 10.3027V0.302734C298.377 0.250651 298.403 0.224609 298.455 0.224609H300.701C300.753 0.224609 300.779 0.250651 300.779 0.302734L300.818 10.3027C300.818 11.0384 300.642 11.7155 300.291 12.334C299.933 12.946 299.457 13.4342 298.865 13.7988C298.272 14.1569 297.608 14.3359 296.873 14.3359Z" fill="#FFA1C2"/>
<path d="M285.257 15.4199L283.88 14.0234C283.391 14.2318 282.89 14.3359 282.376 14.3359C281.666 14.3359 281.015 14.1569 280.423 13.7988C279.824 13.4408 279.342 12.9557 278.977 12.3438C278.619 11.7253 278.44 11.0514 278.44 10.3223L278.46 3.98438C278.46 3.27474 278.635 2.61719 278.987 2.01172C279.332 1.40625 279.801 0.921224 280.393 0.556641C280.986 0.185547 281.647 0 282.376 0C283.085 0 283.736 0.175781 284.329 0.527344C284.921 0.885417 285.393 1.36393 285.745 1.96289C286.103 2.56185 286.282 3.23568 286.282 3.98438L286.302 10.3223C286.302 10.7064 286.246 11.0807 286.135 11.4453C286.031 11.8034 285.891 12.1354 285.716 12.4414L286.956 13.7012C287.021 13.7533 287.027 13.7988 286.975 13.8379L285.403 15.4199C285.358 15.459 285.309 15.459 285.257 15.4199ZM282.376 11.9238C282.831 11.9238 283.196 11.7546 283.469 11.416C283.743 11.071 283.88 10.7064 283.88 10.3223L283.86 3.98438C283.86 3.55469 283.72 3.18359 283.44 2.87109C283.16 2.55859 282.805 2.40234 282.376 2.40234C281.927 2.40234 281.565 2.56185 281.292 2.88086C281.018 3.19987 280.882 3.56771 280.882 3.98438V10.3223C280.882 10.804 281.038 11.1914 281.35 11.4844C281.663 11.7773 282.005 11.9238 282.376 11.9238Z" fill="#FFA1C2"/>
<path d="M267.957 14.3359C267.254 14.3359 266.603 14.1536 266.004 13.7891C265.405 13.4245 264.926 12.9362 264.568 12.3242C264.217 11.7057 264.041 11.0319 264.041 10.3027L264.08 0.302734C264.08 0.250651 264.106 0.224609 264.158 0.224609H266.404C266.456 0.224609 266.482 0.250651 266.482 0.302734V10.3027C266.482 10.752 266.626 11.1361 266.912 11.4551C267.199 11.7676 267.547 11.9238 267.957 11.9238C268.387 11.9238 268.745 11.7676 269.031 11.4551C269.318 11.1361 269.461 10.752 269.461 10.3027V0.302734C269.461 0.250651 269.487 0.224609 269.539 0.224609H271.785C271.837 0.224609 271.863 0.250651 271.863 0.302734L271.902 10.3027C271.902 11.0384 271.727 11.7155 271.375 12.334C271.017 12.946 270.542 13.4342 269.949 13.7988C269.357 14.1569 268.693 14.3359 267.957 14.3359Z" fill="#FFA1C2"/>
<path d="M253.636 14.3359C252.926 14.3359 252.272 14.1536 251.673 13.7891C251.081 13.4245 250.602 12.9395 250.238 12.334C249.879 11.722 249.7 11.0514 249.7 10.3223L249.72 3.98438C249.72 3.24219 249.899 2.57487 250.257 1.98242C250.609 1.38346 251.084 0.904948 251.683 0.546875C252.282 0.182292 252.933 0 253.636 0C254.365 0 255.019 0.179036 255.599 0.537109C256.185 0.895182 256.654 1.37695 257.005 1.98242C257.363 2.58138 257.542 3.2487 257.542 3.98438L257.562 10.3223C257.562 11.0514 257.386 11.7188 257.034 12.3242C256.676 12.9362 256.201 13.4245 255.609 13.7891C255.016 14.1536 254.359 14.3359 253.636 14.3359ZM253.636 11.9238C254.04 11.9238 254.391 11.7611 254.691 11.4355C254.99 11.1035 255.14 10.7324 255.14 10.3223L255.12 3.98438C255.12 3.54167 254.98 3.16732 254.7 2.86133C254.42 2.55534 254.066 2.40234 253.636 2.40234C253.226 2.40234 252.874 2.55208 252.581 2.85156C252.288 3.15104 252.142 3.52865 252.142 3.98438V10.3223C252.142 10.7585 252.288 11.1361 252.581 11.4551C252.874 11.7676 253.226 11.9238 253.636 11.9238Z" fill="#FFA1C2"/>
<path d="M239.12 14.1406H235.536C235.483 14.1406 235.457 14.1081 235.457 14.043L235.496 0.302734C235.496 0.250651 235.523 0.224609 235.575 0.224609H239.422C240.171 0.224609 240.851 0.406901 241.463 0.771484C242.062 1.13607 242.534 1.62109 242.879 2.22656C243.224 2.82552 243.397 3.47656 243.397 4.17969C243.397 4.7526 243.267 5.28646 243.006 5.78125C242.746 6.27604 242.437 6.67643 242.078 6.98242C242.463 7.36654 242.762 7.8125 242.977 8.32031C243.192 8.82812 243.299 9.36198 243.299 9.92188C243.299 10.6966 243.114 11.403 242.743 12.041C242.365 12.679 241.86 13.1901 241.229 13.5742C240.597 13.9518 239.894 14.1406 239.12 14.1406ZM239.422 2.59766H237.899V5.74219H239.422C239.884 5.74219 240.259 5.57943 240.545 5.25391C240.832 4.92188 240.975 4.5638 240.975 4.17969C240.975 3.75651 240.822 3.38867 240.516 3.07617C240.21 2.75716 239.845 2.59766 239.422 2.59766ZM239.12 8.16406H237.899L237.879 11.6992H239.12C239.601 11.6992 240.015 11.5234 240.36 11.1719C240.705 10.8203 240.877 10.4036 240.877 9.92188C240.877 9.4401 240.705 9.02669 240.36 8.68164C240.015 8.33659 239.601 8.16406 239.12 8.16406Z" fill="#FFA1C2"/>
<path d="M210.653 14.043L213.134 0.302734C213.147 0.250651 213.179 0.224609 213.231 0.224609H216.132C216.184 0.224609 216.216 0.250651 216.229 0.302734L218.612 14.043C218.619 14.1081 218.593 14.1406 218.534 14.1406H216.317C216.252 14.1406 216.216 14.1081 216.21 14.043L215.995 12.5781H213.27L213.055 14.043C213.049 14.1081 213.016 14.1406 212.958 14.1406H210.731C210.679 14.1406 210.653 14.1081 210.653 14.043ZM214.774 4.82422L214.657 4.08203L214.569 4.82422L213.671 10.4395H215.594L214.774 4.82422Z" fill="#FFA1C2"/>
<path d="M193.876 14.1406H187.411C187.359 14.1406 187.333 14.1081 187.333 14.043L187.353 0.302734C187.353 0.250651 187.379 0.224609 187.431 0.224609H193.857C193.909 0.224609 193.935 0.257161 193.935 0.322266V2.55859C193.935 2.61068 193.909 2.63672 193.857 2.63672H189.755V5.76172H193.857C193.909 5.76172 193.935 5.78776 193.935 5.83984L193.954 8.10547C193.954 8.15755 193.928 8.18359 193.876 8.18359H189.755V11.6797H193.876C193.928 11.6797 193.954 11.7122 193.954 11.7773V14.0625C193.954 14.1146 193.928 14.1406 193.876 14.1406Z" fill="#FFA1C2"/>
<path d="M178.393 14.1406H176.137C176.078 14.1406 176.049 14.1081 176.049 14.043V2.63672H173.452C173.386 2.63672 173.354 2.60417 173.354 2.53906L173.373 0.302734C173.373 0.250651 173.399 0.224609 173.452 0.224609H181.049C181.121 0.224609 181.157 0.250651 181.157 0.302734V2.53906C181.157 2.60417 181.131 2.63672 181.078 2.63672H178.452L178.471 14.043C178.471 14.1081 178.445 14.1406 178.393 14.1406Z" fill="#FFA1C2"/>
<path d="M159.716 14.043L162.197 0.302734C162.21 0.250651 162.242 0.224609 162.295 0.224609H165.195C165.247 0.224609 165.28 0.250651 165.293 0.302734L167.675 14.043C167.682 14.1081 167.656 14.1406 167.597 14.1406H165.38C165.315 14.1406 165.28 14.1081 165.273 14.043L165.058 12.5781H162.334L162.119 14.043C162.112 14.1081 162.08 14.1406 162.021 14.1406H159.795C159.742 14.1406 159.716 14.1081 159.716 14.043ZM163.838 4.82422L163.72 4.08203L163.632 4.82422L162.734 10.4395H164.658L163.838 4.82422Z" fill="#FFA1C2"/>
<path d="M153.335 14.1406H146.87C146.818 14.1406 146.792 14.1081 146.792 14.043L146.811 0.302734C146.811 0.250651 146.837 0.224609 146.889 0.224609H153.315C153.367 0.224609 153.393 0.257161 153.393 0.322266V2.55859C153.393 2.61068 153.367 2.63672 153.315 2.63672H149.214V5.76172H153.315C153.367 5.76172 153.393 5.78776 153.393 5.83984L153.413 8.10547C153.413 8.15755 153.387 8.18359 153.335 8.18359H149.214V11.6797H153.335C153.387 11.6797 153.413 11.7122 153.413 11.7773V14.0625C153.413 14.1146 153.387 14.1406 153.335 14.1406Z" fill="#FFA1C2"/>
<path d="M134.287 14.1406H132.021C131.969 14.1406 131.943 14.1081 131.943 14.043L131.982 0.302734C131.982 0.250651 132.008 0.224609 132.061 0.224609H136.104C136.826 0.224609 137.49 0.400391 138.096 0.751953C138.701 1.10352 139.183 1.57552 139.541 2.16797C139.906 2.76042 140.088 3.43099 140.088 4.17969C140.088 4.66797 140.013 5.11068 139.863 5.50781C139.714 5.90495 139.538 6.24023 139.336 6.51367C139.141 6.78711 138.962 6.98893 138.799 7.11914C139.521 7.91992 139.883 8.86068 139.883 9.94141L139.902 14.043C139.902 14.1081 139.87 14.1406 139.805 14.1406H137.539C137.487 14.1406 137.461 14.1211 137.461 14.082V9.94141C137.461 9.45964 137.292 9.04297 136.953 8.69141C136.615 8.33984 136.198 8.16406 135.703 8.16406H134.385L134.365 14.043C134.365 14.1081 134.339 14.1406 134.287 14.1406ZM136.104 2.61719H134.385V5.76172H136.104C136.514 5.76172 136.878 5.60872 137.197 5.30273C137.523 4.99674 137.686 4.6224 137.686 4.17969C137.686 3.75651 137.529 3.39193 137.217 3.08594C136.904 2.77344 136.533 2.61719 136.104 2.61719Z" fill="#FFA1C2"/>
<path d="M121.363 14.3359C120.64 14.3359 119.979 14.1536 119.38 13.7891C118.788 13.4245 118.316 12.9362 117.964 12.3242C117.619 11.7057 117.447 11.0189 117.447 10.2637L117.466 4.02344C117.466 3.28125 117.635 2.61068 117.974 2.01172C118.312 1.40625 118.778 0.921224 119.37 0.556641C119.969 0.185547 120.633 0 121.363 0C122.105 0 122.766 0.179036 123.345 0.537109C123.931 0.895182 124.396 1.38021 124.741 1.99219C125.093 2.59766 125.269 3.27474 125.269 4.02344V4.94141C125.269 4.99349 125.243 5.01953 125.191 5.01953H122.945C122.892 5.01953 122.866 4.99349 122.866 4.94141V4.02344C122.866 3.58073 122.723 3.19987 122.437 2.88086C122.15 2.56185 121.792 2.40234 121.363 2.40234C120.887 2.40234 120.523 2.5651 120.269 2.89062C120.015 3.21615 119.888 3.59375 119.888 4.02344V10.2637C119.888 10.752 120.031 11.1523 120.318 11.4648C120.604 11.7708 120.952 11.9238 121.363 11.9238C121.792 11.9238 122.15 11.7546 122.437 11.416C122.723 11.071 122.866 10.6868 122.866 10.2637V9.33594C122.866 9.28385 122.892 9.25781 122.945 9.25781H125.21C125.262 9.25781 125.288 9.28385 125.288 9.33594V10.2637C125.288 11.0124 125.113 11.696 124.761 12.3145C124.403 12.9264 123.931 13.418 123.345 13.7891C122.759 14.1536 122.098 14.3359 121.363 14.3359Z" fill="#FFA1C2"/>
<path d="M100.679 14.1406H94.2145C94.1624 14.1406 94.1364 14.1081 94.1364 14.043L94.1559 0.322266C94.1559 0.257161 94.1884 0.224609 94.2535 0.224609H96.4801C96.5452 0.224609 96.5778 0.257161 96.5778 0.322266L96.5582 11.6797H100.679C100.744 11.6797 100.777 11.7122 100.777 11.7773V14.043C100.777 14.1081 100.744 14.1406 100.679 14.1406Z" fill="#FFA1C2"/>
<path d="M87.53 14.1406H81.0652C81.0131 14.1406 80.9871 14.1081 80.9871 14.043L81.0066 0.322266C81.0066 0.257161 81.0391 0.224609 81.1042 0.224609H83.3308C83.3959 0.224609 83.4285 0.257161 83.4285 0.322266L83.4089 11.6797H87.53C87.5951 11.6797 87.6277 11.7122 87.6277 11.7773V14.043C87.6277 14.1081 87.5951 14.1406 87.53 14.1406Z" fill="#FFA1C2"/>
<path d="M73.9512 14.1406H71.6855C71.6204 14.1406 71.5879 14.1081 71.5879 14.043L71.6074 0.302734C71.6074 0.250651 71.6335 0.224609 71.6855 0.224609H73.9316C73.9837 0.224609 74.0098 0.250651 74.0098 0.302734L74.0293 14.043C74.0293 14.1081 74.0033 14.1406 73.9512 14.1406Z" fill="#FFA1C2"/>
<path d="M58.0774 14.1406H55.6555C55.5969 14.1406 55.5644 14.1081 55.5579 14.043L53.1946 0.302734C53.1816 0.250651 53.2011 0.224609 53.2532 0.224609H55.4993C55.5514 0.224609 55.5839 0.250651 55.5969 0.302734L56.8762 9.33594L58.1946 0.302734C58.2076 0.250651 58.2467 0.224609 58.3118 0.224609H60.1184C60.1705 0.224609 60.203 0.250651 60.2161 0.302734L61.5149 9.33594L62.8137 0.302734C62.8267 0.250651 62.8593 0.224609 62.9114 0.224609H65.1379C65.203 0.224609 65.2291 0.250651 65.2161 0.302734L62.8333 14.043C62.8267 14.069 62.8072 14.0918 62.7747 14.1113L62.7356 14.1406H60.3137C60.2747 14.1406 60.2421 14.1081 60.2161 14.043L59.1907 6.86523L58.175 14.043C58.1685 14.1081 58.136 14.1406 58.0774 14.1406Z" fill="#FFA1C2"/>
<path d="M32.6969 14.3359C31.9938 14.3359 31.3427 14.1536 30.7438 13.7891C30.1448 13.4245 29.6663 12.9362 29.3082 12.3242C28.9567 11.7057 28.7809 11.0319 28.7809 10.3027L28.8199 0.302734C28.8199 0.250651 28.846 0.224609 28.8981 0.224609H31.1442C31.1962 0.224609 31.2223 0.250651 31.2223 0.302734V10.3027C31.2223 10.752 31.3655 11.1361 31.652 11.4551C31.9384 11.7676 32.2867 11.9238 32.6969 11.9238C33.1266 11.9238 33.4847 11.7676 33.7711 11.4551C34.0576 11.1361 34.2008 10.752 34.2008 10.3027V0.302734C34.2008 0.250651 34.2268 0.224609 34.2789 0.224609H36.525C36.5771 0.224609 36.6032 0.250651 36.6032 0.302734L36.6422 10.3027C36.6422 11.0384 36.4664 11.7155 36.1149 12.334C35.7568 12.946 35.2815 13.4342 34.6891 13.7988C34.0966 14.1569 33.4326 14.3359 32.6969 14.3359Z" fill="#FFA1C2"/>
<path d="M18.3757 14.3359C17.6661 14.3359 17.0118 14.1536 16.4128 13.7891C15.8204 13.4245 15.3419 12.9395 14.9773 12.334C14.6192 11.722 14.4402 11.0514 14.4402 10.3223L14.4597 3.98438C14.4597 3.24219 14.6388 2.57487 14.9968 1.98242C15.3484 1.38346 15.8236 0.904948 16.4226 0.546875C17.0216 0.182292 17.6726 0 18.3757 0C19.1049 0 19.7592 0.179036 20.3386 0.537109C20.9246 0.895182 21.3933 1.37695 21.7449 1.98242C22.1029 2.58138 22.282 3.2487 22.282 3.98438L22.3015 10.3223C22.3015 11.0514 22.1257 11.7188 21.7742 12.3242C21.4161 12.9362 20.9408 13.4245 20.3484 13.7891C19.7559 14.1536 19.0984 14.3359 18.3757 14.3359ZM18.3757 11.9238C18.7794 11.9238 19.1309 11.7611 19.4304 11.4355C19.7299 11.1035 19.8796 10.7324 19.8796 10.3223L19.8601 3.98438C19.8601 3.54167 19.7201 3.16732 19.4402 2.86133C19.1602 2.55534 18.8054 2.40234 18.3757 2.40234C17.9656 2.40234 17.614 2.55208 17.321 2.85156C17.0281 3.15104 16.8816 3.52865 16.8816 3.98438V10.3223C16.8816 10.7585 17.0281 11.1361 17.321 11.4551C17.614 11.7676 17.9656 11.9238 18.3757 11.9238Z" fill="#FFA1C2"/>
<path d="M7.02344 14.1406H4.72852C4.68294 14.1406 4.66016 14.1146 4.66016 14.0625L4.67969 8.37891L2.00391 0.302734C1.99089 0.250651 2.01042 0.224609 2.0625 0.224609H4.28906C4.35417 0.224609 4.39323 0.250651 4.40625 0.302734L5.88086 5.68359L7.38477 0.302734C7.39779 0.250651 7.43034 0.224609 7.48242 0.224609H9.72852C9.7806 0.224609 9.80013 0.250651 9.78711 0.302734L7.08203 8.30078L7.10156 14.0625C7.10156 14.1146 7.07552 14.1406 7.02344 14.1406Z" fill="#FFA1C2"/>
</g>
<defs>
<filter id="filter0_dd_83_809" x="0" y="0" width="342.627" height="80.3359" filterUnits="userSpaceOnUse" color-interpolation-filters="sRGB">
<feFlood flood-opacity="0" result="BackgroundImageFix"/>
<feColorMatrix in="SourceAlpha" type="matrix" values="0 0 0 0 0 0 0 0 0 0 0 0 0 0 0 0 0 0 127 0" result="hardAlpha"/>
<feOffset dy="2"/>
<feGaussianBlur stdDeviation="1"/>
<feComposite in2="hardAlpha" operator="out"/>
<feColorMatrix type="matrix" values="0 0 0 0 0 0 0 0 0 0 0 0 0 0 0 0 0 0 0.25 0"/>
<feBlend mode="normal" in2="BackgroundImageFix" result="effect1_dropShadow_83_809"/>
<feColorMatrix in="SourceAlpha" type="matrix" values="0 0 0 0 0 0 0 0 0 0 0 0 0 0 0 0 0 0 127 0" result="hardAlpha"/>
<feOffset dy="2"/>
<feGaussianBlur stdDeviation="1"/>
<feComposite in2="hardAlpha" operator="out"/>
<feColorMatrix type="matrix" values="0 0 0 0 1 0 0 0 0 1 0 0 0 0 1 0 0 0 0.15 0"/>
<feBlend mode="normal" in2="effect1_dropShadow_83_809" result="effect2_dropShadow_83_809"/>
<feBlend mode="normal" in="SourceGraphic" in2="effect2_dropShadow_83_809" result="shape"/>
</filter>
</defs>
</svg>
