<svg width="1097" height="84" viewBox="0 0 1097 84" fill="none" xmlns="http://www.w3.org/2000/svg">
<g filter="url(#filter0_di_91_925)">
<path d="M1073.47 79C1069.58 79 1065.99 77.9941 1062.71 75.9823C1059.46 73.9704 1056.86 71.294 1054.89 67.9529C1052.96 64.5759 1052 60.8756 1052 56.852V51.7865C1052 51.3913 1052.18 51.1937 1052.54 51.1937H1064.85C1065.14 51.1937 1065.28 51.3913 1065.28 51.7865V56.852C1065.28 59.259 1066.08 61.3427 1067.69 63.103C1069.3 64.8274 1071.22 65.6896 1073.47 65.6896C1075.76 65.6896 1077.7 64.8095 1079.31 63.0491C1080.92 61.2528 1081.72 59.1871 1081.72 56.852C1081.72 54.1576 1079.97 51.8045 1076.47 49.7926C1075.9 49.4334 1075.15 49.0023 1074.22 48.4993C1073.33 47.9604 1072.26 47.3497 1071.01 46.6671C1069.76 45.9845 1068.55 45.3199 1067.37 44.6733C1066.19 43.9907 1065.05 43.344 1063.94 42.7333C1059.94 40.3622 1056.96 37.3984 1055 33.8417C1053.07 30.2492 1052.11 26.2256 1052.11 21.7708C1052.11 17.6753 1053.11 13.975 1055.11 10.6698C1057.11 7.40064 1059.71 4.81401 1062.92 2.90996C1066.17 0.969986 1069.69 0 1073.47 0C1077.36 0 1080.93 0.969986 1084.18 2.90996C1087.43 4.88586 1090.02 7.50841 1091.95 10.7776C1093.91 14.0468 1094.89 17.7112 1094.89 21.7708V30.824C1094.89 31.1114 1094.75 31.2551 1094.46 31.2551H1082.15C1081.86 31.2551 1081.72 31.1114 1081.72 30.824L1081.61 21.7708C1081.61 19.1842 1080.81 17.0825 1079.2 15.4659C1077.6 13.8492 1075.69 13.0409 1073.47 13.0409C1071.22 13.0409 1069.3 13.9031 1067.69 15.6276C1066.08 17.352 1065.28 19.3997 1065.28 21.7708C1065.28 24.1778 1065.78 26.1896 1066.78 27.8063C1067.81 29.4229 1069.69 30.9677 1072.4 32.4407C1072.69 32.5844 1073.35 32.9436 1074.38 33.5184C1075.42 34.0932 1076.56 34.7399 1077.81 35.4584C1079.1 36.141 1080.26 36.7697 1081.29 37.3445C1082.33 37.8834 1082.95 38.2067 1083.17 38.3145C1086.81 40.3622 1089.68 42.877 1091.79 45.8588C1093.93 48.8406 1095 52.505 1095 56.852C1095 61.0553 1094.04 64.8274 1092.11 68.1685C1090.14 71.5095 1087.54 74.1501 1084.29 76.09C1081.04 78.03 1077.44 79 1073.47 79Z" fill="#FF8E90"/>
</g>
<g filter="url(#filter1_di_91_925)">
<path d="M978 1.39184C977.245 4.34422 976.28 7.54966 975.106 11.0082C973.932 14.4667 972.631 17.9252 971.205 21.3837C969.863 24.7578 968.521 27.9633 967.179 31H959C959.587 28.6381 960.174 26.1075 960.762 23.4082C961.433 20.7088 962.02 18.0095 962.523 15.3102C963.11 12.5265 963.614 9.82721 964.033 7.21225C964.536 4.59728 964.956 2.1932 965.291 0H977.119L978 1.39184Z" fill="#FF8E90"/>
</g>
<g filter="url(#filter2_di_91_925)">
<path d="M881.552 80H844.448C844.149 80 844 79.8152 844 79.4456L844.112 1.44351C844.112 1.14784 844.262 1 844.56 1H881.44C881.738 1 881.888 1.1848 881.888 1.55439V14.2498C881.888 14.5455 881.738 14.6933 881.44 14.6933H857.9V32.4337H881.44C881.738 32.4337 881.888 32.5815 881.888 32.8772L882 45.7389C882 46.0346 881.851 46.1825 881.552 46.1825H857.9V66.0295H881.552C881.851 66.0295 882 66.2143 882 66.5839V79.5565C882 79.8522 881.851 80 881.552 80Z" fill="#FF8E90"/>
</g>
<g filter="url(#filter3_di_91_925)">
<path d="M749.421 80H738.003C737.408 80 737.111 79.7413 737.111 79.2239L737 1.88702C737 1.29567 737.297 1 737.891 1H748.196L767.468 45.7389L766.911 1.88702C766.911 1.29567 767.245 1 767.913 1H779.22C779.666 1 779.889 1.29567 779.889 1.88702L780 79.3347C780 79.7782 779.814 80 779.443 80H769.417L749.644 38.1993L750.479 79.113C750.479 79.7043 750.127 80 749.421 80Z" fill="#FF8E90"/>
</g>
<g filter="url(#filter4_di_91_925)">
<path d="M659.552 80H646.56C646.187 80 646 79.8152 646 79.4456L646.112 1.44351C646.112 1.14784 646.261 1 646.56 1H659.44C659.739 1 659.888 1.14784 659.888 1.44351L660 79.4456C660 79.8152 659.851 80 659.552 80Z" fill="#FF8E90"/>
</g>
<g filter="url(#filter5_di_91_925)">
<path d="M554.416 80H541.695C541.364 80 541.199 79.8152 541.199 79.4456V14.6933H526.551C526.184 14.6933 526 14.5085 526 14.1389L526.11 1.44351C526.11 1.14784 526.257 1 526.551 1H569.394C569.798 1 570 1.14784 570 1.44351V14.1389C570 14.5085 569.853 14.6933 569.559 14.6933H554.746L554.856 79.4456C554.856 79.8152 554.709 80 554.416 80Z" fill="#FF8E90"/>
</g>
<g filter="url(#filter6_di_91_925)">
<path d="M434.132 80H422.979C422.399 80 422.109 79.7413 422.109 79.2239L422 1.88702C422 1.29567 422.29 1 422.87 1H432.935L451.759 45.7389L451.215 1.88702C451.215 1.29567 451.541 1 452.194 1H463.238C463.674 1 463.891 1.29567 463.891 1.88702L464 79.3347C464 79.7782 463.819 80 463.456 80H453.663L434.35 38.1993L435.166 79.113C435.166 79.7043 434.821 80 434.132 80Z" fill="#FF8E90"/>
</g>
<g filter="url(#filter7_di_91_925)">
<path d="M356.552 80H319.448C319.149 80 319 79.8152 319 79.4456L319.112 1.44351C319.112 1.14784 319.262 1 319.56 1H356.44C356.738 1 356.888 1.1848 356.888 1.55439V14.2498C356.888 14.5455 356.738 14.6933 356.44 14.6933H332.9V32.4337H356.44C356.738 32.4337 356.888 32.5815 356.888 32.8772L357 45.7389C357 46.0346 356.851 46.1825 356.552 46.1825H332.9V66.0295H356.552C356.851 66.0295 357 66.2143 357 66.5839V79.5565C357 79.8522 356.851 80 356.552 80Z" fill="#FF8E90"/>
</g>
<g filter="url(#filter8_di_91_925)">
<path d="M250.471 80H215.424C215.141 80 215 79.8152 215 79.4456L215.106 1.55439C215.106 1.1848 215.282 1 215.635 1H227.706C228.059 1 228.235 1.1848 228.235 1.55439L228.129 66.0295H250.471C250.824 66.0295 251 66.2143 251 66.5839V79.4456C251 79.8152 250.824 80 250.471 80Z" fill="#FF8E90"/>
</g>
<g filter="url(#filter9_di_91_925)">
<path d="M105 79.4456L119.334 1.44351C119.41 1.14784 119.598 1 119.899 1H136.66C136.961 1 137.149 1.14784 137.224 1.44351L150.994 79.4456C151.032 79.8152 150.881 80 150.543 80H137.732C137.356 80 137.149 79.8152 137.111 79.4456L135.87 71.1298H120.125L118.883 79.4456C118.845 79.8152 118.657 80 118.319 80H105.451C105.15 80 105 79.8152 105 79.4456ZM128.815 27.1116L128.138 22.8982L127.63 27.1116L122.438 58.9888H133.556L128.815 27.1116Z" fill="#FF8E90"/>
</g>
<g filter="url(#filter10_di_91_925)">
<path d="M32.6547 80H18.6109C18.2711 80 18.0824 79.8152 18.0446 79.4456L2.01888 1.44351C1.94337 1.14784 2.09438 1 2.4719 1H15.6096C15.9116 1 16.1004 1.14784 16.1759 1.44351L25.6894 53.4449L34.9764 1.44351C35.052 1.14784 35.2407 1 35.5427 1H48.5106C48.9258 1 49.0768 1.14784 48.9636 1.44351L33.221 79.4456C33.1832 79.8152 32.9945 80 32.6547 80Z" fill="#FF8E90"/>
</g>
<defs>
<filter id="filter0_di_91_925" x="1050" y="0" width="47" height="84" filterUnits="userSpaceOnUse" color-interpolation-filters="sRGB">
<feFlood flood-opacity="0" result="BackgroundImageFix"/>
<feColorMatrix in="SourceAlpha" type="matrix" values="0 0 0 0 0 0 0 0 0 0 0 0 0 0 0 0 0 0 127 0" result="hardAlpha"/>
<feOffset dy="2"/>
<feGaussianBlur stdDeviation="1"/>
<feComposite in2="hardAlpha" operator="out"/>
<feColorMatrix type="matrix" values="0 0 0 0 0 0 0 0 0 0 0 0 0 0 0 0 0 0 0.25 0"/>
<feBlend mode="normal" in2="BackgroundImageFix" result="effect1_dropShadow_91_925"/>
<feBlend mode="normal" in="SourceGraphic" in2="effect1_dropShadow_91_925" result="shape"/>
<feColorMatrix in="SourceAlpha" type="matrix" values="0 0 0 0 0 0 0 0 0 0 0 0 0 0 0 0 0 0 127 0" result="hardAlpha"/>
<feOffset dy="5"/>
<feGaussianBlur stdDeviation="2.5"/>
<feComposite in2="hardAlpha" operator="arithmetic" k2="-1" k3="1"/>
<feColorMatrix type="matrix" values="0 0 0 0 1 0 0 0 0 1 0 0 0 0 1 0 0 0 0.35 0"/>
<feBlend mode="normal" in2="shape" result="effect2_innerShadow_91_925"/>
</filter>
<filter id="filter1_di_91_925" x="957" y="0" width="23" height="36" filterUnits="userSpaceOnUse" color-interpolation-filters="sRGB">
<feFlood flood-opacity="0" result="BackgroundImageFix"/>
<feColorMatrix in="SourceAlpha" type="matrix" values="0 0 0 0 0 0 0 0 0 0 0 0 0 0 0 0 0 0 127 0" result="hardAlpha"/>
<feOffset dy="2"/>
<feGaussianBlur stdDeviation="1"/>
<feComposite in2="hardAlpha" operator="out"/>
<feColorMatrix type="matrix" values="0 0 0 0 0 0 0 0 0 0 0 0 0 0 0 0 0 0 0.25 0"/>
<feBlend mode="normal" in2="BackgroundImageFix" result="effect1_dropShadow_91_925"/>
<feBlend mode="normal" in="SourceGraphic" in2="effect1_dropShadow_91_925" result="shape"/>
<feColorMatrix in="SourceAlpha" type="matrix" values="0 0 0 0 0 0 0 0 0 0 0 0 0 0 0 0 0 0 127 0" result="hardAlpha"/>
<feOffset dy="5"/>
<feGaussianBlur stdDeviation="2.5"/>
<feComposite in2="hardAlpha" operator="arithmetic" k2="-1" k3="1"/>
<feColorMatrix type="matrix" values="0 0 0 0 1 0 0 0 0 1 0 0 0 0 1 0 0 0 0.35 0"/>
<feBlend mode="normal" in2="shape" result="effect2_innerShadow_91_925"/>
</filter>
<filter id="filter2_di_91_925" x="842" y="1" width="42" height="84" filterUnits="userSpaceOnUse" color-interpolation-filters="sRGB">
<feFlood flood-opacity="0" result="BackgroundImageFix"/>
<feColorMatrix in="SourceAlpha" type="matrix" values="0 0 0 0 0 0 0 0 0 0 0 0 0 0 0 0 0 0 127 0" result="hardAlpha"/>
<feOffset dy="2"/>
<feGaussianBlur stdDeviation="1"/>
<feComposite in2="hardAlpha" operator="out"/>
<feColorMatrix type="matrix" values="0 0 0 0 0 0 0 0 0 0 0 0 0 0 0 0 0 0 0.25 0"/>
<feBlend mode="normal" in2="BackgroundImageFix" result="effect1_dropShadow_91_925"/>
<feBlend mode="normal" in="SourceGraphic" in2="effect1_dropShadow_91_925" result="shape"/>
<feColorMatrix in="SourceAlpha" type="matrix" values="0 0 0 0 0 0 0 0 0 0 0 0 0 0 0 0 0 0 127 0" result="hardAlpha"/>
<feOffset dy="5"/>
<feGaussianBlur stdDeviation="2.5"/>
<feComposite in2="hardAlpha" operator="arithmetic" k2="-1" k3="1"/>
<feColorMatrix type="matrix" values="0 0 0 0 1 0 0 0 0 1 0 0 0 0 1 0 0 0 0.35 0"/>
<feBlend mode="normal" in2="shape" result="effect2_innerShadow_91_925"/>
</filter>
<filter id="filter3_di_91_925" x="735" y="1" width="47" height="84" filterUnits="userSpaceOnUse" color-interpolation-filters="sRGB">
<feFlood flood-opacity="0" result="BackgroundImageFix"/>
<feColorMatrix in="SourceAlpha" type="matrix" values="0 0 0 0 0 0 0 0 0 0 0 0 0 0 0 0 0 0 127 0" result="hardAlpha"/>
<feOffset dy="2"/>
<feGaussianBlur stdDeviation="1"/>
<feComposite in2="hardAlpha" operator="out"/>
<feColorMatrix type="matrix" values="0 0 0 0 0 0 0 0 0 0 0 0 0 0 0 0 0 0 0.25 0"/>
<feBlend mode="normal" in2="BackgroundImageFix" result="effect1_dropShadow_91_925"/>
<feBlend mode="normal" in="SourceGraphic" in2="effect1_dropShadow_91_925" result="shape"/>
<feColorMatrix in="SourceAlpha" type="matrix" values="0 0 0 0 0 0 0 0 0 0 0 0 0 0 0 0 0 0 127 0" result="hardAlpha"/>
<feOffset dy="5"/>
<feGaussianBlur stdDeviation="2.5"/>
<feComposite in2="hardAlpha" operator="arithmetic" k2="-1" k3="1"/>
<feColorMatrix type="matrix" values="0 0 0 0 1 0 0 0 0 1 0 0 0 0 1 0 0 0 0.35 0"/>
<feBlend mode="normal" in2="shape" result="effect2_innerShadow_91_925"/>
</filter>
<filter id="filter4_di_91_925" x="644" y="1" width="18" height="84" filterUnits="userSpaceOnUse" color-interpolation-filters="sRGB">
<feFlood flood-opacity="0" result="BackgroundImageFix"/>
<feColorMatrix in="SourceAlpha" type="matrix" values="0 0 0 0 0 0 0 0 0 0 0 0 0 0 0 0 0 0 127 0" result="hardAlpha"/>
<feOffset dy="2"/>
<feGaussianBlur stdDeviation="1"/>
<feComposite in2="hardAlpha" operator="out"/>
<feColorMatrix type="matrix" values="0 0 0 0 0 0 0 0 0 0 0 0 0 0 0 0 0 0 0.25 0"/>
<feBlend mode="normal" in2="BackgroundImageFix" result="effect1_dropShadow_91_925"/>
<feBlend mode="normal" in="SourceGraphic" in2="effect1_dropShadow_91_925" result="shape"/>
<feColorMatrix in="SourceAlpha" type="matrix" values="0 0 0 0 0 0 0 0 0 0 0 0 0 0 0 0 0 0 127 0" result="hardAlpha"/>
<feOffset dy="5"/>
<feGaussianBlur stdDeviation="2.5"/>
<feComposite in2="hardAlpha" operator="arithmetic" k2="-1" k3="1"/>
<feColorMatrix type="matrix" values="0 0 0 0 1 0 0 0 0 1 0 0 0 0 1 0 0 0 0.35 0"/>
<feBlend mode="normal" in2="shape" result="effect2_innerShadow_91_925"/>
</filter>
<filter id="filter5_di_91_925" x="524" y="1" width="48" height="84" filterUnits="userSpaceOnUse" color-interpolation-filters="sRGB">
<feFlood flood-opacity="0" result="BackgroundImageFix"/>
<feColorMatrix in="SourceAlpha" type="matrix" values="0 0 0 0 0 0 0 0 0 0 0 0 0 0 0 0 0 0 127 0" result="hardAlpha"/>
<feOffset dy="2"/>
<feGaussianBlur stdDeviation="1"/>
<feComposite in2="hardAlpha" operator="out"/>
<feColorMatrix type="matrix" values="0 0 0 0 0 0 0 0 0 0 0 0 0 0 0 0 0 0 0.25 0"/>
<feBlend mode="normal" in2="BackgroundImageFix" result="effect1_dropShadow_91_925"/>
<feBlend mode="normal" in="SourceGraphic" in2="effect1_dropShadow_91_925" result="shape"/>
<feColorMatrix in="SourceAlpha" type="matrix" values="0 0 0 0 0 0 0 0 0 0 0 0 0 0 0 0 0 0 127 0" result="hardAlpha"/>
<feOffset dy="5"/>
<feGaussianBlur stdDeviation="2.5"/>
<feComposite in2="hardAlpha" operator="arithmetic" k2="-1" k3="1"/>
<feColorMatrix type="matrix" values="0 0 0 0 1 0 0 0 0 1 0 0 0 0 1 0 0 0 0.35 0"/>
<feBlend mode="normal" in2="shape" result="effect2_innerShadow_91_925"/>
</filter>
<filter id="filter6_di_91_925" x="420" y="1" width="46" height="84" filterUnits="userSpaceOnUse" color-interpolation-filters="sRGB">
<feFlood flood-opacity="0" result="BackgroundImageFix"/>
<feColorMatrix in="SourceAlpha" type="matrix" values="0 0 0 0 0 0 0 0 0 0 0 0 0 0 0 0 0 0 127 0" result="hardAlpha"/>
<feOffset dy="2"/>
<feGaussianBlur stdDeviation="1"/>
<feComposite in2="hardAlpha" operator="out"/>
<feColorMatrix type="matrix" values="0 0 0 0 0 0 0 0 0 0 0 0 0 0 0 0 0 0 0.25 0"/>
<feBlend mode="normal" in2="BackgroundImageFix" result="effect1_dropShadow_91_925"/>
<feBlend mode="normal" in="SourceGraphic" in2="effect1_dropShadow_91_925" result="shape"/>
<feColorMatrix in="SourceAlpha" type="matrix" values="0 0 0 0 0 0 0 0 0 0 0 0 0 0 0 0 0 0 127 0" result="hardAlpha"/>
<feOffset dy="5"/>
<feGaussianBlur stdDeviation="2.5"/>
<feComposite in2="hardAlpha" operator="arithmetic" k2="-1" k3="1"/>
<feColorMatrix type="matrix" values="0 0 0 0 1 0 0 0 0 1 0 0 0 0 1 0 0 0 0.35 0"/>
<feBlend mode="normal" in2="shape" result="effect2_innerShadow_91_925"/>
</filter>
<filter id="filter7_di_91_925" x="317" y="1" width="42" height="84" filterUnits="userSpaceOnUse" color-interpolation-filters="sRGB">
<feFlood flood-opacity="0" result="BackgroundImageFix"/>
<feColorMatrix in="SourceAlpha" type="matrix" values="0 0 0 0 0 0 0 0 0 0 0 0 0 0 0 0 0 0 127 0" result="hardAlpha"/>
<feOffset dy="2"/>
<feGaussianBlur stdDeviation="1"/>
<feComposite in2="hardAlpha" operator="out"/>
<feColorMatrix type="matrix" values="0 0 0 0 0 0 0 0 0 0 0 0 0 0 0 0 0 0 0.25 0"/>
<feBlend mode="normal" in2="BackgroundImageFix" result="effect1_dropShadow_91_925"/>
<feBlend mode="normal" in="SourceGraphic" in2="effect1_dropShadow_91_925" result="shape"/>
<feColorMatrix in="SourceAlpha" type="matrix" values="0 0 0 0 0 0 0 0 0 0 0 0 0 0 0 0 0 0 127 0" result="hardAlpha"/>
<feOffset dy="5"/>
<feGaussianBlur stdDeviation="2.5"/>
<feComposite in2="hardAlpha" operator="arithmetic" k2="-1" k3="1"/>
<feColorMatrix type="matrix" values="0 0 0 0 1 0 0 0 0 1 0 0 0 0 1 0 0 0 0.35 0"/>
<feBlend mode="normal" in2="shape" result="effect2_innerShadow_91_925"/>
</filter>
<filter id="filter8_di_91_925" x="213" y="1" width="40" height="84" filterUnits="userSpaceOnUse" color-interpolation-filters="sRGB">
<feFlood flood-opacity="0" result="BackgroundImageFix"/>
<feColorMatrix in="SourceAlpha" type="matrix" values="0 0 0 0 0 0 0 0 0 0 0 0 0 0 0 0 0 0 127 0" result="hardAlpha"/>
<feOffset dy="2"/>
<feGaussianBlur stdDeviation="1"/>
<feComposite in2="hardAlpha" operator="out"/>
<feColorMatrix type="matrix" values="0 0 0 0 0 0 0 0 0 0 0 0 0 0 0 0 0 0 0.25 0"/>
<feBlend mode="normal" in2="BackgroundImageFix" result="effect1_dropShadow_91_925"/>
<feBlend mode="normal" in="SourceGraphic" in2="effect1_dropShadow_91_925" result="shape"/>
<feColorMatrix in="SourceAlpha" type="matrix" values="0 0 0 0 0 0 0 0 0 0 0 0 0 0 0 0 0 0 127 0" result="hardAlpha"/>
<feOffset dy="5"/>
<feGaussianBlur stdDeviation="2.5"/>
<feComposite in2="hardAlpha" operator="arithmetic" k2="-1" k3="1"/>
<feColorMatrix type="matrix" values="0 0 0 0 1 0 0 0 0 1 0 0 0 0 1 0 0 0 0.35 0"/>
<feBlend mode="normal" in2="shape" result="effect2_innerShadow_91_925"/>
</filter>
<filter id="filter9_di_91_925" x="103" y="1" width="50" height="84" filterUnits="userSpaceOnUse" color-interpolation-filters="sRGB">
<feFlood flood-opacity="0" result="BackgroundImageFix"/>
<feColorMatrix in="SourceAlpha" type="matrix" values="0 0 0 0 0 0 0 0 0 0 0 0 0 0 0 0 0 0 127 0" result="hardAlpha"/>
<feOffset dy="2"/>
<feGaussianBlur stdDeviation="1"/>
<feComposite in2="hardAlpha" operator="out"/>
<feColorMatrix type="matrix" values="0 0 0 0 0 0 0 0 0 0 0 0 0 0 0 0 0 0 0.25 0"/>
<feBlend mode="normal" in2="BackgroundImageFix" result="effect1_dropShadow_91_925"/>
<feBlend mode="normal" in="SourceGraphic" in2="effect1_dropShadow_91_925" result="shape"/>
<feColorMatrix in="SourceAlpha" type="matrix" values="0 0 0 0 0 0 0 0 0 0 0 0 0 0 0 0 0 0 127 0" result="hardAlpha"/>
<feOffset dy="5"/>
<feGaussianBlur stdDeviation="2.5"/>
<feComposite in2="hardAlpha" operator="arithmetic" k2="-1" k3="1"/>
<feColorMatrix type="matrix" values="0 0 0 0 1 0 0 0 0 1 0 0 0 0 1 0 0 0 0.35 0"/>
<feBlend mode="normal" in2="shape" result="effect2_innerShadow_91_925"/>
</filter>
<filter id="filter10_di_91_925" x="0" y="1" width="51" height="84" filterUnits="userSpaceOnUse" color-interpolation-filters="sRGB">
<feFlood flood-opacity="0" result="BackgroundImageFix"/>
<feColorMatrix in="SourceAlpha" type="matrix" values="0 0 0 0 0 0 0 0 0 0 0 0 0 0 0 0 0 0 127 0" result="hardAlpha"/>
<feOffset dy="2"/>
<feGaussianBlur stdDeviation="1"/>
<feComposite in2="hardAlpha" operator="out"/>
<feColorMatrix type="matrix" values="0 0 0 0 0 0 0 0 0 0 0 0 0 0 0 0 0 0 0.25 0"/>
<feBlend mode="normal" in2="BackgroundImageFix" result="effect1_dropShadow_91_925"/>
<feBlend mode="normal" in="SourceGraphic" in2="effect1_dropShadow_91_925" result="shape"/>
<feColorMatrix in="SourceAlpha" type="matrix" values="0 0 0 0 0 0 0 0 0 0 0 0 0 0 0 0 0 0 127 0" result="hardAlpha"/>
<feOffset dy="5"/>
<feGaussianBlur stdDeviation="2.5"/>
<feComposite in2="hardAlpha" operator="arithmetic" k2="-1" k3="1"/>
<feColorMatrix type="matrix" values="0 0 0 0 1 0 0 0 0 1 0 0 0 0 1 0 0 0 0.35 0"/>
<feBlend mode="normal" in2="shape" result="effect2_innerShadow_91_925"/>
</filter>
</defs>
</svg>
