<svg width="171" height="81" viewBox="0 0 171 81" fill="none" xmlns="http://www.w3.org/2000/svg">
<g filter="url(#filter0_dd_83_775)">
<path d="M146.471 76.3359C145.761 76.3359 145.107 76.1536 144.508 75.7891C143.915 75.4245 143.44 74.9395 143.082 74.334C142.73 73.722 142.555 73.0514 142.555 72.3223V71.4043C142.555 71.3327 142.587 71.2969 142.652 71.2969H144.898C144.951 71.2969 144.977 71.3327 144.977 71.4043V72.3223C144.977 72.7585 145.123 73.1361 145.416 73.4551C145.709 73.7676 146.061 73.9238 146.471 73.9238C146.887 73.9238 147.242 73.7643 147.535 73.4453C147.828 73.1198 147.975 72.7454 147.975 72.3223C147.975 71.834 147.656 71.4076 147.018 71.043C146.913 70.9779 146.777 70.8997 146.607 70.8086C146.445 70.7109 146.249 70.6003 146.021 70.4766C145.794 70.3529 145.572 70.2324 145.357 70.1152C145.143 69.9915 144.934 69.8743 144.732 69.7637C144.003 69.334 143.46 68.7969 143.102 68.1523C142.75 67.5013 142.574 66.7721 142.574 65.9648C142.574 65.2227 142.757 64.5521 143.121 63.9531C143.486 63.3607 143.961 62.8919 144.547 62.5469C145.139 62.1953 145.781 62.0195 146.471 62.0195C147.18 62.0195 147.831 62.1953 148.424 62.5469C149.016 62.9049 149.488 63.3802 149.84 63.9727C150.198 64.5651 150.377 65.2292 150.377 65.9648V67.6055C150.377 67.6576 150.351 67.6836 150.299 67.6836H148.053C148.001 67.6836 147.975 67.6576 147.975 67.6055L147.955 65.9648C147.955 65.4961 147.809 65.1152 147.516 64.8223C147.223 64.5293 146.874 64.3828 146.471 64.3828C146.061 64.3828 145.709 64.5391 145.416 64.8516C145.123 65.1641 144.977 65.5352 144.977 65.9648C144.977 66.401 145.068 66.7656 145.25 67.0586C145.439 67.3516 145.781 67.6315 146.275 67.8984C146.327 67.9245 146.448 67.9896 146.637 68.0938C146.826 68.1979 147.034 68.3151 147.262 68.4453C147.496 68.569 147.708 68.6829 147.896 68.7871C148.085 68.8848 148.199 68.9434 148.238 68.9629C148.902 69.334 149.426 69.7897 149.811 70.3301C150.201 70.8704 150.396 71.5345 150.396 72.3223C150.396 73.084 150.221 73.7676 149.869 74.373C149.511 74.9785 149.036 75.457 148.443 75.8086C147.851 76.1602 147.193 76.3359 146.471 76.3359Z" fill="#FFB2F6"/>
<path d="M132.56 76.3359C131.85 76.3359 131.196 76.1536 130.597 75.7891C130.004 75.4245 129.529 74.9395 129.171 74.334C128.82 73.722 128.644 73.0514 128.644 72.3223V71.4043C128.644 71.3327 128.676 71.2969 128.741 71.2969H130.988C131.04 71.2969 131.066 71.3327 131.066 71.4043V72.3223C131.066 72.7585 131.212 73.1361 131.505 73.4551C131.798 73.7676 132.15 73.9238 132.56 73.9238C132.976 73.9238 133.331 73.7643 133.624 73.4453C133.917 73.1198 134.064 72.7454 134.064 72.3223C134.064 71.834 133.745 71.4076 133.107 71.043C133.003 70.9779 132.866 70.8997 132.697 70.8086C132.534 70.7109 132.338 70.6003 132.111 70.4766C131.883 70.3529 131.661 70.2324 131.447 70.1152C131.232 69.9915 131.023 69.8743 130.822 69.7637C130.092 69.334 129.549 68.7969 129.191 68.1523C128.839 67.5013 128.663 66.7721 128.663 65.9648C128.663 65.2227 128.846 64.5521 129.21 63.9531C129.575 63.3607 130.05 62.8919 130.636 62.5469C131.228 62.1953 131.87 62.0195 132.56 62.0195C133.269 62.0195 133.92 62.1953 134.513 62.5469C135.105 62.9049 135.577 63.3802 135.929 63.9727C136.287 64.5651 136.466 65.2292 136.466 65.9648V67.6055C136.466 67.6576 136.44 67.6836 136.388 67.6836H134.142C134.09 67.6836 134.064 67.6576 134.064 67.6055L134.044 65.9648C134.044 65.4961 133.898 65.1152 133.605 64.8223C133.312 64.5293 132.963 64.3828 132.56 64.3828C132.15 64.3828 131.798 64.5391 131.505 64.8516C131.212 65.1641 131.066 65.5352 131.066 65.9648C131.066 66.401 131.157 66.7656 131.339 67.0586C131.528 67.3516 131.87 67.6315 132.364 67.8984C132.417 67.9245 132.537 67.9896 132.726 68.0938C132.915 68.1979 133.123 68.3151 133.351 68.4453C133.585 68.569 133.797 68.6829 133.986 68.7871C134.174 68.8848 134.288 68.9434 134.327 68.9629C134.991 69.334 135.516 69.7897 135.9 70.3301C136.29 70.8704 136.486 71.5345 136.486 72.3223C136.486 73.084 136.31 73.7676 135.958 74.373C135.6 74.9785 135.125 75.457 134.532 75.8086C133.94 76.1602 133.282 76.3359 132.56 76.3359Z" fill="#FFB2F6"/>
<path d="M114.752 76.043L117.233 62.3027C117.246 62.2507 117.278 62.2246 117.33 62.2246H120.231C120.283 62.2246 120.315 62.2507 120.328 62.3027L122.711 76.043C122.718 76.1081 122.692 76.1406 122.633 76.1406H120.416C120.351 76.1406 120.315 76.1081 120.309 76.043L120.094 74.5781H117.37L117.155 76.043C117.148 76.1081 117.116 76.1406 117.057 76.1406H114.83C114.778 76.1406 114.752 76.1081 114.752 76.043ZM118.873 66.8242L118.756 66.082L118.668 66.8242L117.77 72.4395H119.694L118.873 66.8242Z" fill="#FFB2F6"/>
<path d="M108.82 76.1406H102.355C102.303 76.1406 102.277 76.1081 102.277 76.043L102.297 62.3223C102.297 62.2572 102.329 62.2246 102.394 62.2246H104.621C104.686 62.2246 104.718 62.2572 104.718 62.3223L104.699 73.6797H108.82C108.885 73.6797 108.918 73.7122 108.918 73.7773V76.043C108.918 76.1081 108.885 76.1406 108.82 76.1406Z" fill="#FFB2F6"/>
<path d="M91.696 76.3359C90.9734 76.3359 90.3126 76.1536 89.7136 75.7891C89.1212 75.4245 88.6492 74.9362 88.2976 74.3242C87.9526 73.7057 87.78 73.0189 87.78 72.2637L87.7996 66.0234C87.7996 65.2812 87.9688 64.6107 88.3074 64.0117C88.6459 63.4062 89.1114 62.9212 89.7039 62.5566C90.3028 62.1855 90.9669 62 91.696 62C92.4382 62 93.099 62.179 93.6785 62.5371C94.2644 62.8952 94.7299 63.3802 95.075 63.9922C95.4265 64.5977 95.6023 65.2747 95.6023 66.0234V66.9414C95.6023 66.9935 95.5763 67.0195 95.5242 67.0195H93.2781C93.226 67.0195 93.2 66.9935 93.2 66.9414V66.0234C93.2 65.5807 93.0567 65.1999 92.7703 64.8809C92.4838 64.5618 92.1257 64.4023 91.696 64.4023C91.2208 64.4023 90.8562 64.5651 90.6023 64.8906C90.3484 65.2161 90.2214 65.5938 90.2214 66.0234V72.2637C90.2214 72.752 90.3647 73.1523 90.6511 73.4648C90.9376 73.7708 91.2859 73.9238 91.696 73.9238C92.1257 73.9238 92.4838 73.7546 92.7703 73.416C93.0567 73.071 93.2 72.6868 93.2 72.2637V71.3359C93.2 71.2839 93.226 71.2578 93.2781 71.2578H95.5437C95.5958 71.2578 95.6218 71.2839 95.6218 71.3359V72.2637C95.6218 73.0124 95.446 73.696 95.0945 74.3145C94.7364 74.9264 94.2644 75.418 93.6785 75.7891C93.0925 76.1536 92.4317 76.3359 91.696 76.3359Z" fill="#FFB2F6"/>
<path d="M75.5098 76.1406H73.2441C73.1921 76.1406 73.166 76.1081 73.166 76.043L73.2051 62.3027C73.2051 62.2507 73.2311 62.2246 73.2832 62.2246H77.3262C78.0488 62.2246 78.7129 62.4004 79.3184 62.752C79.9238 63.1035 80.4056 63.5755 80.7637 64.168C81.1283 64.7604 81.3105 65.431 81.3105 66.1797C81.3105 66.668 81.2357 67.1107 81.0859 67.5078C80.9362 67.9049 80.7604 68.2402 80.5586 68.5137C80.3633 68.7871 80.1842 68.9889 80.0215 69.1191C80.7441 69.9199 81.1055 70.8607 81.1055 71.9414L81.125 76.043C81.125 76.1081 81.0924 76.1406 81.0273 76.1406H78.7617C78.7096 76.1406 78.6836 76.1211 78.6836 76.082V71.9414C78.6836 71.4596 78.5143 71.043 78.1758 70.6914C77.8372 70.3398 77.4206 70.1641 76.9258 70.1641H75.6074L75.5879 76.043C75.5879 76.1081 75.5618 76.1406 75.5098 76.1406ZM77.3262 64.6172H75.6074V67.7617H77.3262C77.7363 67.7617 78.1009 67.6087 78.4199 67.3027C78.7454 66.9967 78.9082 66.6224 78.9082 66.1797C78.9082 65.7565 78.752 65.3919 78.4395 65.0859C78.127 64.7734 77.7559 64.6172 77.3262 64.6172Z" fill="#FFB2F6"/>
<path d="M66.1106 76.1406H59.6458C59.5937 76.1406 59.5676 76.1081 59.5676 76.043L59.5872 62.3027C59.5872 62.2507 59.6132 62.2246 59.6653 62.2246H66.0911C66.1432 62.2246 66.1692 62.2572 66.1692 62.3223V64.5586C66.1692 64.6107 66.1432 64.6367 66.0911 64.6367H61.9895V67.7617H66.0911C66.1432 67.7617 66.1692 67.7878 66.1692 67.8398L66.1887 70.1055C66.1887 70.1576 66.1627 70.1836 66.1106 70.1836H61.9895V73.6797H66.1106C66.1627 73.6797 66.1887 73.7122 66.1887 73.7773V76.0625C66.1887 76.1146 66.1627 76.1406 66.1106 76.1406Z" fill="#FFB2F6"/>
<path d="M50.6273 76.1406H48.3715C48.3129 76.1406 48.2836 76.1081 48.2836 76.043V64.6367H45.6859C45.6208 64.6367 45.5883 64.6042 45.5883 64.5391L45.6078 62.3027C45.6078 62.2507 45.6338 62.2246 45.6859 62.2246H53.2836C53.3552 62.2246 53.391 62.2507 53.391 62.3027V64.5391C53.391 64.6042 53.3649 64.6367 53.3129 64.6367H50.6859L50.7054 76.043C50.7054 76.1081 50.6794 76.1406 50.6273 76.1406Z" fill="#FFB2F6"/>
<path d="M35.8473 76.3359C35.1377 76.3359 34.4834 76.1536 33.8844 75.7891C33.292 75.4245 32.8167 74.9395 32.4586 74.334C32.1071 73.722 31.9313 73.0514 31.9313 72.3223V71.4043C31.9313 71.3327 31.9638 71.2969 32.0289 71.2969H34.275C34.3271 71.2969 34.3532 71.3327 34.3532 71.4043V72.3223C34.3532 72.7585 34.4996 73.1361 34.7926 73.4551C35.0856 73.7676 35.4371 73.9238 35.8473 73.9238C36.264 73.9238 36.6188 73.7643 36.9117 73.4453C37.2047 73.1198 37.3512 72.7454 37.3512 72.3223C37.3512 71.834 37.0322 71.4076 36.3942 71.043C36.29 70.9779 36.1533 70.8997 35.984 70.8086C35.8213 70.7109 35.6259 70.6003 35.3981 70.4766C35.1702 70.3529 34.9489 70.2324 34.734 70.1152C34.5192 69.9915 34.3108 69.8743 34.109 69.7637C33.3798 69.334 32.8362 68.7969 32.4781 68.1523C32.1266 67.5013 31.9508 66.7721 31.9508 65.9648C31.9508 65.2227 32.1331 64.5521 32.4977 63.9531C32.8623 63.3607 33.3375 62.8919 33.9235 62.5469C34.5159 62.1953 35.1572 62.0195 35.8473 62.0195C36.5569 62.0195 37.208 62.1953 37.8004 62.5469C38.3929 62.9049 38.8649 63.3802 39.2164 63.9727C39.5745 64.5651 39.7535 65.2292 39.7535 65.9648V67.6055C39.7535 67.6576 39.7275 67.6836 39.6754 67.6836H37.4293C37.3772 67.6836 37.3512 67.6576 37.3512 67.6055L37.3317 65.9648C37.3317 65.4961 37.1852 65.1152 36.8922 64.8223C36.5992 64.5293 36.2509 64.3828 35.8473 64.3828C35.4371 64.3828 35.0856 64.5391 34.7926 64.8516C34.4996 65.1641 34.3532 65.5352 34.3532 65.9648C34.3532 66.401 34.4443 66.7656 34.6266 67.0586C34.8154 67.3516 35.1572 67.6315 35.652 67.8984C35.7041 67.9245 35.8245 67.9896 36.0133 68.0938C36.2021 68.1979 36.4104 68.3151 36.6383 68.4453C36.8727 68.569 37.0843 68.6829 37.2731 68.7871C37.4619 68.8848 37.5758 68.9434 37.6149 68.9629C38.2789 69.334 38.803 69.7897 39.1871 70.3301C39.5778 70.8704 39.7731 71.5345 39.7731 72.3223C39.7731 73.084 39.5973 73.7676 39.2457 74.373C38.8877 74.9785 38.4124 75.457 37.8199 75.8086C37.2275 76.1602 36.5699 76.3359 35.8473 76.3359Z" fill="#FFB2F6"/>
<path d="M18.0398 76.043L20.5203 62.3027C20.5333 62.2507 20.5658 62.2246 20.6179 62.2246H23.5183C23.5704 62.2246 23.6029 62.2507 23.616 62.3027L25.9988 76.043C26.0053 76.1081 25.9792 76.1406 25.9207 76.1406H23.7039C23.6388 76.1406 23.6029 76.1081 23.5964 76.043L23.3816 74.5781H20.657L20.4421 76.043C20.4356 76.1081 20.4031 76.1406 20.3445 76.1406H18.1179C18.0658 76.1406 18.0398 76.1081 18.0398 76.043ZM22.1609 66.8242L22.0437 66.082L21.9558 66.8242L21.0574 72.4395H22.9812L22.1609 66.8242Z" fill="#FFB2F6"/>
<path d="M5.11523 76.1406H2.84961C2.79753 76.1406 2.77148 76.1081 2.77148 76.043L2.81055 62.3027C2.81055 62.2507 2.83659 62.2246 2.88867 62.2246H5.33008C5.38216 62.2246 5.42773 62.2507 5.4668 62.3027L7.29297 64.9395L9.10938 62.3027C9.14844 62.2507 9.19727 62.2246 9.25586 62.2246H11.707C11.7656 62.2246 11.7949 62.2507 11.7949 62.3027L11.834 76.043C11.834 76.1081 11.8079 76.1406 11.7559 76.1406H9.49023C9.43815 76.1406 9.41211 76.1081 9.41211 76.043L9.39258 65.8379L7.29297 68.8848L5.21289 65.8379L5.19336 76.043C5.19336 76.1081 5.16732 76.1406 5.11523 76.1406Z" fill="#FFB2F6"/>
<path d="M164.478 45.3359C163.755 45.3359 163.095 45.1536 162.496 44.7891C161.903 44.4245 161.431 43.9362 161.08 43.3242C160.735 42.7057 160.562 42.0189 160.562 41.2637L160.582 35.0234C160.582 34.2812 160.751 33.6107 161.089 33.0117C161.428 32.4062 161.894 31.9212 162.486 31.5566C163.085 31.1855 163.749 31 164.478 31C165.22 31 165.881 31.179 166.461 31.5371C167.047 31.8952 167.512 32.3802 167.857 32.9922C168.209 33.5977 168.384 34.2747 168.384 35.0234V35.9414C168.384 35.9935 168.358 36.0195 168.306 36.0195H166.06C166.008 36.0195 165.982 35.9935 165.982 35.9414V35.0234C165.982 34.5807 165.839 34.1999 165.552 33.8809C165.266 33.5618 164.908 33.4023 164.478 33.4023C164.003 33.4023 163.638 33.5651 163.384 33.8906C163.13 34.2161 163.004 34.5938 163.004 35.0234V41.2637C163.004 41.752 163.147 42.1523 163.433 42.4648C163.72 42.7708 164.068 42.9238 164.478 42.9238C164.908 42.9238 165.266 42.7546 165.552 42.416C165.839 42.071 165.982 41.6868 165.982 41.2637V40.3359C165.982 40.2839 166.008 40.2578 166.06 40.2578H168.326C168.378 40.2578 168.404 40.2839 168.404 40.3359V41.2637C168.404 42.0124 168.228 42.696 167.877 43.3145C167.519 43.9264 167.047 44.418 166.461 44.7891C165.875 45.1536 165.214 45.3359 164.478 45.3359Z" fill="#FFB2F6"/>
<path d="M153.76 45.1406H151.495C151.43 45.1406 151.397 45.1081 151.397 45.043L151.417 31.3027C151.417 31.2507 151.443 31.2246 151.495 31.2246H153.741C153.793 31.2246 153.819 31.2507 153.819 31.3027L153.839 45.043C153.839 45.1081 153.813 45.1406 153.76 45.1406Z" fill="#FFB2F6"/>
<path d="M142.457 45.1406H140.201C140.143 45.1406 140.113 45.1081 140.113 45.043V33.6367H137.516C137.451 33.6367 137.418 33.6042 137.418 33.5391L137.438 31.3027C137.438 31.2507 137.464 31.2246 137.516 31.2246H145.113C145.185 31.2246 145.221 31.2507 145.221 31.3027V33.5391C145.221 33.6042 145.195 33.6367 145.143 33.6367H142.516L142.535 45.043C142.535 45.1081 142.509 45.1406 142.457 45.1406Z" fill="#FFB2F6"/>
<path d="M125.89 45.1406H123.888C123.784 45.1406 123.732 45.0951 123.732 45.0039L123.712 31.3809C123.712 31.2767 123.764 31.2246 123.868 31.2246H125.675L129.054 39.1055L128.956 31.3809C128.956 31.2767 129.015 31.2246 129.132 31.2246H131.114C131.193 31.2246 131.232 31.2767 131.232 31.3809L131.251 45.0234C131.251 45.1016 131.219 45.1406 131.154 45.1406H129.396L125.929 37.7773L126.075 44.9844C126.075 45.0885 126.014 45.1406 125.89 45.1406Z" fill="#FFB2F6"/>
<path d="M109.303 45.043L111.784 31.3027C111.797 31.2507 111.829 31.2246 111.881 31.2246H114.782C114.834 31.2246 114.866 31.2507 114.879 31.3027L117.262 45.043C117.269 45.1081 117.243 45.1406 117.184 45.1406H114.967C114.902 45.1406 114.866 45.1081 114.86 45.043L114.645 43.5781H111.92L111.705 45.043C111.699 45.1081 111.666 45.1406 111.608 45.1406H109.381C109.329 45.1406 109.303 45.1081 109.303 45.043ZM113.424 35.8242L113.307 35.082L113.219 35.8242L112.321 41.4395H114.245L113.424 35.8242Z" fill="#FFB2F6"/>
<path d="M96.3785 45.1406H94.1129C94.0608 45.1406 94.0348 45.1081 94.0348 45.043L94.0739 31.3027C94.0739 31.2507 94.0999 31.2246 94.152 31.2246H96.5934C96.6455 31.2246 96.691 31.2507 96.7301 31.3027L98.5563 33.9395L100.373 31.3027C100.412 31.2507 100.461 31.2246 100.519 31.2246H102.97C103.029 31.2246 103.058 31.2507 103.058 31.3027L103.097 45.043C103.097 45.1081 103.071 45.1406 103.019 45.1406H100.754C100.701 45.1406 100.675 45.1081 100.675 45.043L100.656 34.8379L98.5563 37.8848L96.4762 34.8379L96.4567 45.043C96.4567 45.1081 96.4306 45.1406 96.3785 45.1406Z" fill="#FFB2F6"/>
<path d="M83.3953 45.3359C82.6856 45.3359 82.0313 45.1536 81.4324 44.7891C80.8399 44.4245 80.3614 43.9395 79.9968 43.334C79.6388 42.722 79.4597 42.0514 79.4597 41.3223L79.4792 34.9844C79.4792 34.2422 79.6583 33.5749 80.0164 32.9824C80.3679 32.3835 80.8432 31.9049 81.4421 31.5469C82.0411 31.1823 82.6921 31 83.3953 31C84.1244 31 84.7787 31.179 85.3582 31.5371C85.9441 31.8952 86.4128 32.377 86.7644 32.9824C87.1225 33.5814 87.3015 34.2487 87.3015 34.9844L87.321 41.3223C87.321 42.0514 87.1453 42.7188 86.7937 43.3242C86.4356 43.9362 85.9604 44.4245 85.3679 44.7891C84.7755 45.1536 84.1179 45.3359 83.3953 45.3359ZM83.3953 42.9238C83.7989 42.9238 84.1505 42.7611 84.45 42.4355C84.7494 42.1035 84.8992 41.7324 84.8992 41.3223L84.8796 34.9844C84.8796 34.5417 84.7397 34.1673 84.4597 33.8613C84.1798 33.5553 83.825 33.4023 83.3953 33.4023C82.9851 33.4023 82.6335 33.5521 82.3406 33.8516C82.0476 34.151 81.9011 34.5286 81.9011 34.9844V41.3223C81.9011 41.7585 82.0476 42.1361 82.3406 42.4551C82.6335 42.7676 82.9851 42.9238 83.3953 42.9238Z" fill="#FFB2F6"/>
<path d="M67.1895 45.1406H64.9238C64.8717 45.1406 64.8457 45.1081 64.8457 45.043L64.8848 31.3027C64.8848 31.2507 64.9108 31.2246 64.9629 31.2246H69.0059C69.7285 31.2246 70.3926 31.4004 70.998 31.752C71.6035 32.1035 72.0853 32.5755 72.4434 33.168C72.8079 33.7604 72.9902 34.431 72.9902 35.1797C72.9902 35.668 72.9154 36.1107 72.7656 36.5078C72.6159 36.9049 72.4401 37.2402 72.2383 37.5137C72.043 37.7871 71.8639 37.9889 71.7012 38.1191C72.4238 38.9199 72.7852 39.8607 72.7852 40.9414L72.8047 45.043C72.8047 45.1081 72.7721 45.1406 72.707 45.1406H70.4414C70.3893 45.1406 70.3633 45.1211 70.3633 45.082V40.9414C70.3633 40.4596 70.194 40.043 69.8555 39.6914C69.5169 39.3398 69.1003 39.1641 68.6055 39.1641H67.2871L67.2676 45.043C67.2676 45.1081 67.2415 45.1406 67.1895 45.1406ZM69.0059 33.6172H67.2871V36.7617H69.0059C69.416 36.7617 69.7806 36.6087 70.0996 36.3027C70.4251 35.9967 70.5879 35.6224 70.5879 35.1797C70.5879 34.7565 70.4316 34.3919 70.1191 34.0859C69.8066 33.7734 69.4355 33.6172 69.0059 33.6172Z" fill="#FFB2F6"/>
<path d="M40.0414 45.043L42.5219 31.3027C42.5349 31.2507 42.5674 31.2246 42.6195 31.2246H45.5199C45.572 31.2246 45.6045 31.2507 45.6176 31.3027L48.0004 45.043C48.0069 45.1081 47.9808 45.1406 47.9222 45.1406H45.7054C45.6403 45.1406 45.6045 45.1081 45.598 45.043L45.3832 43.5781H42.6586L42.4437 45.043C42.4372 45.1081 42.4047 45.1406 42.3461 45.1406H40.1195C40.0674 45.1406 40.0414 45.1081 40.0414 45.043ZM44.1625 35.8242L44.0453 35.082L43.9574 35.8242L43.059 41.4395H44.9828L44.1625 35.8242Z" fill="#FFB2F6"/>
<path d="M19.6804 45.3359C18.9708 45.3359 18.3165 45.1536 17.7175 44.7891C17.1251 44.4245 16.6466 43.9395 16.282 43.334C15.9239 42.722 15.7449 42.0514 15.7449 41.3223L15.7644 34.9844C15.7644 34.2422 15.9434 33.5749 16.3015 32.9824C16.6531 32.3835 17.1283 31.9049 17.7273 31.5469C18.3263 31.1823 18.9773 31 19.6804 31C20.4096 31 21.0639 31.179 21.6433 31.5371C22.2292 31.8952 22.698 32.377 23.0496 32.9824C23.4076 33.5814 23.5867 34.2487 23.5867 34.9844L23.6062 41.3223C23.6062 42.0514 23.4304 42.7188 23.0789 43.3242C22.7208 43.9362 22.2455 44.4245 21.6531 44.7891C21.0606 45.1536 20.4031 45.3359 19.6804 45.3359ZM19.6804 42.9238C20.0841 42.9238 20.4356 42.7611 20.7351 42.4355C21.0346 42.1035 21.1843 41.7324 21.1843 41.3223L21.1648 34.9844C21.1648 34.5417 21.0248 34.1673 20.7449 33.8613C20.4649 33.5553 20.1101 33.4023 19.6804 33.4023C19.2703 33.4023 18.9187 33.5521 18.6257 33.8516C18.3328 34.151 18.1863 34.5286 18.1863 34.9844V41.3223C18.1863 41.7585 18.3328 42.1361 18.6257 42.4551C18.9187 42.7676 19.2703 42.9238 19.6804 42.9238Z" fill="#FFB2F6"/>
<path d="M7.03906 45.1406H4.7832C4.72461 45.1406 4.69531 45.1081 4.69531 45.043V33.6367H2.09766C2.03255 33.6367 2 33.6042 2 33.5391L2.01953 31.3027C2.01953 31.2507 2.04557 31.2246 2.09766 31.2246H9.69531C9.76693 31.2246 9.80273 31.2507 9.80273 31.3027V33.5391C9.80273 33.6042 9.77669 33.6367 9.72461 33.6367H7.09766L7.11719 45.043C7.11719 45.1081 7.09115 45.1406 7.03906 45.1406Z" fill="#FFB2F6"/>
<path d="M160.123 14.3359C159.42 14.3359 158.769 14.1536 158.17 13.7891C157.571 13.4245 157.092 12.9362 156.734 12.3242C156.382 11.7057 156.207 11.0319 156.207 10.3027L156.246 0.302734C156.246 0.250651 156.272 0.224609 156.324 0.224609H158.57C158.622 0.224609 158.648 0.250651 158.648 0.302734V10.3027C158.648 10.752 158.791 11.1361 159.078 11.4551C159.364 11.7676 159.713 11.9238 160.123 11.9238C160.552 11.9238 160.91 11.7676 161.197 11.4551C161.483 11.1361 161.627 10.752 161.627 10.3027V0.302734C161.627 0.250651 161.653 0.224609 161.705 0.224609H163.951C164.003 0.224609 164.029 0.250651 164.029 0.302734L164.068 10.3027C164.068 11.0384 163.892 11.7155 163.541 12.334C163.183 12.946 162.707 13.4342 162.115 13.7988C161.522 14.1569 160.858 14.3359 160.123 14.3359Z" fill="#FFB2F6"/>
<path d="M145.802 14.3359C145.092 14.3359 144.438 14.1536 143.839 13.7891C143.246 13.4245 142.768 12.9395 142.403 12.334C142.045 11.722 141.866 11.0514 141.866 10.3223L141.885 3.98438C141.885 3.24219 142.065 2.57487 142.423 1.98242C142.774 1.38346 143.249 0.904948 143.848 0.546875C144.447 0.182292 145.098 0 145.802 0C146.531 0 147.185 0.179036 147.764 0.537109C148.35 0.895182 148.819 1.37695 149.171 1.98242C149.529 2.58138 149.708 3.2487 149.708 3.98438L149.727 10.3223C149.727 11.0514 149.552 11.7188 149.2 12.3242C148.842 12.9362 148.367 13.4245 147.774 13.7891C147.182 14.1536 146.524 14.3359 145.802 14.3359ZM145.802 11.9238C146.205 11.9238 146.557 11.7611 146.856 11.4355C147.156 11.1035 147.305 10.7324 147.305 10.3223L147.286 3.98438C147.286 3.54167 147.146 3.16732 146.866 2.86133C146.586 2.55534 146.231 2.40234 145.802 2.40234C145.391 2.40234 145.04 2.55208 144.747 2.85156C144.454 3.15104 144.307 3.52865 144.307 3.98438V10.3223C144.307 10.7585 144.454 11.1361 144.747 11.4551C145.04 11.7676 145.391 11.9238 145.802 11.9238Z" fill="#FFB2F6"/>
<path d="M133.043 14.1406H130.748C130.702 14.1406 130.68 14.1146 130.68 14.0625L130.699 8.37891L128.023 0.302734C128.01 0.250651 128.03 0.224609 128.082 0.224609H130.309C130.374 0.224609 130.413 0.250651 130.426 0.302734L131.9 5.68359L133.404 0.302734C133.417 0.250651 133.45 0.224609 133.502 0.224609H135.748C135.8 0.224609 135.82 0.250651 135.807 0.302734L133.102 8.30078L133.121 14.0625C133.121 14.1146 133.095 14.1406 133.043 14.1406Z" fill="#FFB2F6"/>
<path d="M111.422 14.1406H104.957C104.905 14.1406 104.879 14.1081 104.879 14.043L104.899 0.302734C104.899 0.250651 104.925 0.224609 104.977 0.224609H111.403C111.455 0.224609 111.481 0.257161 111.481 0.322266V2.55859C111.481 2.61068 111.455 2.63672 111.403 2.63672H107.301V5.76172H111.403C111.455 5.76172 111.481 5.78776 111.481 5.83984L111.5 8.10547C111.5 8.15755 111.474 8.18359 111.422 8.18359H107.301V11.6797H111.422C111.474 11.6797 111.5 11.7122 111.5 11.7773V14.0625C111.5 14.1146 111.474 14.1406 111.422 14.1406Z" fill="#FFB2F6"/>
<path d="M95.9391 14.1406H93.6832C93.6246 14.1406 93.5953 14.1081 93.5953 14.043V2.63672H90.9977C90.9326 2.63672 90.9 2.60417 90.9 2.53906L90.9196 0.302734C90.9196 0.250651 90.9456 0.224609 90.9977 0.224609H98.5953C98.667 0.224609 98.7028 0.250651 98.7028 0.302734V2.53906C98.7028 2.60417 98.6767 2.63672 98.6246 2.63672H95.9977L96.0172 14.043C96.0172 14.1081 95.9912 14.1406 95.9391 14.1406Z" fill="#FFB2F6"/>
<path d="M84.6355 14.1406H82.3699C82.3048 14.1406 82.2722 14.1081 82.2722 14.043L82.2917 0.302734C82.2917 0.250651 82.3178 0.224609 82.3699 0.224609H84.616C84.6681 0.224609 84.6941 0.250651 84.6941 0.302734L84.7136 14.043C84.7136 14.1081 84.6876 14.1406 84.6355 14.1406Z" fill="#FFB2F6"/>
<path d="M73.0879 14.1406H70.666C70.6074 14.1406 70.5748 14.1081 70.5683 14.043L67.8046 0.302734C67.7916 0.250651 67.8177 0.224609 67.8828 0.224609H70.1484C70.2005 0.224609 70.233 0.250651 70.2461 0.302734L71.8867 9.46289L73.4882 0.302734C73.5013 0.250651 73.5338 0.224609 73.5859 0.224609H75.8222C75.8938 0.224609 75.9199 0.250651 75.9003 0.302734L73.1855 14.043C73.179 14.1081 73.1464 14.1406 73.0879 14.1406Z" fill="#FFB2F6"/>
<path d="M56.1204 14.1406H54.1184C54.0142 14.1406 53.9622 14.0951 53.9622 14.0039L53.9426 0.380859C53.9426 0.276693 53.9947 0.224609 54.0989 0.224609H55.9055L59.2844 8.10547L59.1868 0.380859C59.1868 0.276693 59.2454 0.224609 59.3625 0.224609H61.345C61.4231 0.224609 61.4622 0.276693 61.4622 0.380859L61.4817 14.0234C61.4817 14.1016 61.4491 14.1406 61.384 14.1406H59.6262L56.1594 6.77734L56.3059 13.9844C56.3059 14.0885 56.2441 14.1406 56.1204 14.1406Z" fill="#FFB2F6"/>
<path d="M46.9066 14.1406H44.641C44.5759 14.1406 44.5433 14.1081 44.5433 14.043L44.5629 0.302734C44.5629 0.250651 44.5889 0.224609 44.641 0.224609H46.8871C46.9392 0.224609 46.9652 0.250651 46.9652 0.302734L46.9847 14.043C46.9847 14.1081 46.9587 14.1406 46.9066 14.1406Z" fill="#FFB2F6"/>
<path d="M27.0925 14.1406H20.6277C20.5756 14.1406 20.5496 14.1081 20.5496 14.043L20.5691 0.302734C20.5691 0.250651 20.5951 0.224609 20.6472 0.224609H27.073C27.1251 0.224609 27.1511 0.257161 27.1511 0.322266V2.55859C27.1511 2.61068 27.1251 2.63672 27.073 2.63672H22.9714V5.76172H27.073C27.1251 5.76172 27.1511 5.78776 27.1511 5.83984L27.1707 8.10547C27.1707 8.15755 27.1446 8.18359 27.0925 8.18359H22.9714V11.6797H27.0925C27.1446 11.6797 27.1707 11.7122 27.1707 11.7773V14.0625C27.1707 14.1146 27.1446 14.1406 27.0925 14.1406Z" fill="#FFB2F6"/>
<path d="M7.03906 14.1406H4.61719C4.55859 14.1406 4.52604 14.1081 4.51953 14.043L2.15625 0.302734C2.14323 0.250651 2.16276 0.224609 2.21484 0.224609H4.46094C4.51302 0.224609 4.54557 0.250651 4.55859 0.302734L5.83789 9.33594L7.15625 0.302734C7.16927 0.250651 7.20833 0.224609 7.27344 0.224609H9.08008C9.13216 0.224609 9.16471 0.250651 9.17773 0.302734L10.4766 9.33594L11.7754 0.302734C11.7884 0.250651 11.821 0.224609 11.873 0.224609H14.0996C14.1647 0.224609 14.1908 0.250651 14.1777 0.302734L11.7949 14.043C11.7884 14.069 11.7689 14.0918 11.7363 14.1113L11.6973 14.1406H9.27539C9.23633 14.1406 9.20378 14.1081 9.17773 14.043L8.15234 6.86523L7.13672 14.043C7.13021 14.1081 7.09766 14.1406 7.03906 14.1406Z" fill="#FFB2F6"/>
</g>
<defs>
<filter id="filter0_dd_83_775" x="0" y="0" width="170.404" height="80.3359" filterUnits="userSpaceOnUse" color-interpolation-filters="sRGB">
<feFlood flood-opacity="0" result="BackgroundImageFix"/>
<feColorMatrix in="SourceAlpha" type="matrix" values="0 0 0 0 0 0 0 0 0 0 0 0 0 0 0 0 0 0 127 0" result="hardAlpha"/>
<feOffset dy="2"/>
<feGaussianBlur stdDeviation="1"/>
<feComposite in2="hardAlpha" operator="out"/>
<feColorMatrix type="matrix" values="0 0 0 0 0 0 0 0 0 0 0 0 0 0 0 0 0 0 0.25 0"/>
<feBlend mode="normal" in2="BackgroundImageFix" result="effect1_dropShadow_83_775"/>
<feColorMatrix in="SourceAlpha" type="matrix" values="0 0 0 0 0 0 0 0 0 0 0 0 0 0 0 0 0 0 127 0" result="hardAlpha"/>
<feOffset dy="2"/>
<feGaussianBlur stdDeviation="1"/>
<feComposite in2="hardAlpha" operator="out"/>
<feColorMatrix type="matrix" values="0 0 0 0 1 0 0 0 0 1 0 0 0 0 1 0 0 0 0.15 0"/>
<feBlend mode="normal" in2="effect1_dropShadow_83_775" result="effect2_dropShadow_83_775"/>
<feBlend mode="normal" in="SourceGraphic" in2="effect2_dropShadow_83_775" result="shape"/>
</filter>
</defs>
</svg>
